<?xml version="1.0" encoding="UTF-8"?><svg xmlns="http://www.w3.org/2000/svg" viewBox="0 0 232 274.1"><g id="a"/><g id="b"><g id="c"><g id="d" transform="translate(-198.50799,-96.13684)"><g id="e"><path d="M127.6,145.5c-.5,.5-1.1,.7-1.8,.9-2,.6-4,.7-5.9,1.4-1.2,.4-1.7,1.5-2.7,2.2-.3,.2-.6,.3-1,.3h-.1s0,0,0,0c0,0,0,0,0,0h-.1c-.4,0-.7-.1-1-.3-1-.7-1.5-1.8-2.7-2.2-2-.7-3.9-.9-5.9-1.4-.7-.2-1.3-.4-1.8-.9-.4-.5,0-1,.4-1.3,1.2-.6,2.6-.7,3.9-.8,2-.2,3.9-.7,5.6-1.9,.5-.4,.8-.9,1.3-1.3h0c0,0,0-.1,.1-.1h.1s0,0,.1,0c0,0,0,0,.1,0h.1c0,0,0,0,.1,0h0c.5,.4,.8,1,1.3,1.3,1.7,1.2,3.6,1.7,5.6,1.9,1.3,.1,2.7,.2,3.9,.8,.5,.2,.9,.8,.4,1.3Z" style="fill:#8f5946;"/><path d="M231.6,116.3c0,.7,0,2-.2,3.3h0c-.2,1.4-.4,2.8-.5,3.7,0,0,0,0,0,0,0,.2,0,.5,0,.6,0,0,0,.2,0,.3-.3,1.4-1.2,4.2-1.7,5.1-.3,.5-.7,1.4-1.2,2.3,0,.1,0,.2-.1,.3-.3,.6-.5,1.1-.7,1.5,0,.2-.1,.4-.2,.6,0,0,0,.2,0,.2,0,0,0,0,0,.1-.3,1-.7,2.2-1,2.8-.1,.2-.3,.6-.6,1.1t0,0c-.8,1.5-2.1,3.7-2.5,4.3-.6,.8-2.8,3.8-3.8,4.6-.7,.5-2.3,1.5-3.5,2,0,0,0,0,0,0-.4,.2-.7,.3-1,.3,0,0,0,0,0,0h0c-.4,0-1.1,.2-1.9,.3,0,0,0,0-.1,0-.8,0-1.7,.2-2.4,.2h0c-.6,0-1.1,0-1.4,0-.3,0-.6-.2-1-.3,0,0,0,0,0,0-.6-.3-1.2-.7-1.8-1.2s-.3-.4-.5-.6c0,0,0,0,0,0-.3-.3-.5-.7-.7-1-.1-.2-.2-.4-.3-.5h0c0,0,.1,.7,0,1.4,0,.2,0,.3-.1,.4-.3,.7-1.4,2.1-1.4,2.1h0c0,0,.3,0,.5-.1,0,0,0,0,0,0,0,0,.2,0,.4,0h0c.2,0,.3,0,.5,0,.5,0,1.3,0,2,0h0c.5,0,1,0,1.5,0,0,0,0,0,0,0,0,0,.2,0,.3,0,.3,0,.7,.2,1.1,.3h0c.4,.1,.9,.3,1.3,.5h0c.3,.2,.6,.4,.9,.6,.5,.5,1.3,1.5,2,2.4,.2,.2,.3,.4,.4,.6,.2,.4,.4,.7,.5,1,.4,1.1,1,3.5,.5,4.8-.1,.3-.3,.8-.6,1.4,0,0,0,0,0,.1-.1,.2-.2,.4-.4,.7,0,0,0,0,0,.1-.8,1.5-1.9,3.1-2.5,3.6,0,0-.2,.2-.4,.3h0c-1,.7-2.8,2-4.3,2.9,0,0,0,0,0,0-.5,.3-.9,.5-1.3,.6-.2,0-.5,.2-.8,.2,0,0,0,0-.1,0-1.6,.5-3.9,1.1-4.8,1-.4,0-1-.2-1.7-.3,0,0-.2,0-.2,0-.1,0-.2,0-.3,0,0,0-.2,0-.3,0h0s0,0,0,0c0,0,0,0,0,0-.3,0-.6-.2-.9-.3h0s0,0,0,0c-.2,0-.4-.1-.5-.2-.2-.1-.4-.3-.7-.4,0,0-.1,0-.2-.2,0,0,0,0,0,0-.2-.2-.4-.3-.6-.5h0c-.3-.3-.6-.6-.6-.9,0-.4,0-1,.2-1.6,0,0,0,0,0,0,0-.1,0-.3,0-.4v-.3h0s0,0,0,0c-.2,0-.6,.2-1.1,.4,0,0,0,0,0,0-.2,0-.4,.1-.6,.2-.7,.3-2.6,.6-3.4,.8,0,0-.1,0-.2,0-.1,0-.2,0-.2,0,0,0,.2,0,.5,.1h0c.3,0,.8,.2,1.2,.3,.2,0,.4,.1,.6,.1,.4,0,1,.3,1.7,.5h0c.3,.1,.6,.2,.9,.3,.2,0,.3,.1,.4,.2,0,0,.1,0,.2,0,.2,.1,.5,.3,.8,.5,0,0,0,0,0,0,.1,0,.2,.1,.3,.2,.3,.2,.7,.5,.9,.7,0,0,0,0,0,0h0c.2,.2,.4,.4,.5,.6,0,.1,.2,.2,.3,.4h0c0,0,.1,.2,.1,.2,.2,.3,.4,.7,.5,1,0,0,0,0,0,0,0,.2,.1,.4,.2,.5,0,0,0,0,0,0,0,.2,0,.4,0,.6,0,0,0,.2-.1,.3h0c-.1,.3-.3,.6-.5,.9l-.2,.2c0,0-.1,.1-.2,.2,0,0,0,0-.1,.2,0,0,0,0,0,0-.3,.3-.6,.6-.9,.8,0,0,0,0,0,0,0,0,0,0,0,0-.3,.2-1,.5-1.7,.9-.2,.1-.4,.2-.6,.3-1.5,.7-3.1,1.5-3.1,1.5,0,0-5.4,1.9-7.2,1.9s-1.2,0-1.9-.2c0,0,0,0,0,0-1.3-.3-2.7-.7-3.7-1h0c-.4-.2-.8-.3-.9-.4-.3-.2-.8-.5-1.3-.9h0c-.5-.4-.9-.9-1.2-1.4,0,0,0,0,0,0,0-.1-.1-.3-.2-.4,0-.1,0-.2,0-.3-.2-.9-.3-2-.4-2.7h0c0-.2,0-.2,0-.3,0-.8,0-1.3-.4-1.6-.4-.2-1.2-.8-1.2,0s0,.2,0,.3h0c0,.2,0,.4,0,.6h0c0,.2,0,.3,0,.5t0,0c0,.3,0,.7,.2,1,0,0,0,.2,0,.3h0c0,0,0,.2,0,.3,.1,.3,.2,.7,.3,1.1,0,0,0,0,0,0,0,.2,0,.4,0,.5,0,0,0,0,0,0,0,.3,0,.6,0,.8,0,.4-.3,1-.6,1.5,0,0,0,0,0,0,0,0-.1,.2-.2,.2,0,0,0,0,0,.1t0,0s0,0,0,.1c-.2,.2-.5,.4-.8,.5,0,0-.2,0-.3,0,0,0,0,0,0,0-.2,0-.6,0-1,0h0c-1.5,0-3.7,0-5.5-.5,0,0-.1,0-.2,0,0,0-.2,0-.3,0h0c-.1,0-.2,0-.3-.1t0,0c-.2,0-.5-.2-.7-.3-.7-.4-1.6-.9-2.6-1.4h0c-1.2-.7-2.4-1.4-3.5-2.1,0,0,0,0,0,0-.9-.6-1.7-1.1-2.1-1.5-1.1-1-2.7-2.8-3-3.8,0,0,0,0,0,0,0,0,0,0,0,0h0c-.2-.9,.4-1.7,.8-2.2,.2-.3,.3-.4,.4-.6,0-.1,.1-.2,.2-.4,0,0,0-.1,0-.2,0,0,0,0,0,0,0-.2,0-.5,0-.7h0c0-.1-.2-.2-.4,0,0,0,0,0,0,0,0,0-.1,0-.2,0-.8,.3-1.4,.7-2.2,1.1-.2,0-.5,.2-.8,.2,0,0,0,0,0,0-.8,.2-1.8,.3-2.6,.2h0c-.5,0-.9-.1-1.2-.2,0,0,0,0-.2,0-.2-.2-.6-.4-1-.7,0,0,0,0,0,0-.2-.1-.3-.3-.5-.4-.2-.1-.3-.3-.5-.5-.7-.6-1.5-1.3-1.9-2-.1-.2-.2-.3-.3-.5,0,0,0-.2-.1-.3,0-.2-.1-.4-.2-.7,0,0,0,0,0,0-.3-.9-.7-2-.9-3,0,0,0,0,0,0-.1-.6-.2-1.2-.2-1.6s0-.3,0-.5c0,0,0,0,0,0,0-.2,0-.5,0-.8,0,0,0,0,0,0,0-1,.2-2.2,.4-3.5h0c.2-.9,.4-1.7,.6-2.5,0,0,0-.2,0-.2,0,0,0-.2,.1-.3,0-.1,0-.2,.1-.3,0-.1,0-.3,.2-.4,.1-.3,.3-.6,.4-.9h0c1.4-3,3-5.7,3.4-6.5,.1-.2,.2-.4,.3-.6h0c.3-.6,.6-1.1,.7-1.7,0,0,0,0,0,0,.1-.8-.2-1.4-1.3-.8-.1,0-.3,.2-.4,.3,0,0-.1,.1-.2,.2-1.2,1.1-2.9,3.2-4,4.7,0,0,0,0,0,.1,0,0,0,0,0,0-1.2,1.9-3,6.4-3.2,8,0,.3,0,.8,0,1.3,0,0,0,0,0,0h0c0,2,0,4.9,.5,6.2,.5,1.6,2.2,5.8,3.1,6.8,.9,1,3.4,4.2,3.9,4.9,.3,.5,.6,1.4,.6,2.4,0,.3,0,.7-.2,1,0,.1,0,.3-.2,.5,0,.2-.2,.5-.4,.9-.5,1-1.1,2.5-1.8,3.7,0,0,0,.1,0,.2-.5,1.1-1,2.2-1.3,2.7,0,0,0,.1,0,.2,0,.2-.2,.3-.2,.3l-1,2.2-1.4,2.9h0l-.2,.4s0,0,0,0l-1.5,3.2s-1.2,2.9-2.1,5.3c0,0,0,0,0,.1-.3,.8-.6,1.5-.8,2.1-.4,1.2-1.4,4.8-2.3,8.1h0c-.4,1.5-.8,2.9-1.1,4,0,.1,0,.3,0,.4,0,.2-.1,.5-.2,.7,0,0,0,.2,0,.3,0,0,0,.2,0,.3,0,0,0,.2,0,.2,0,.2-.1,.4-.2,.6-.2,.6-.4,1.3-.5,2.1,0,0,0,.1,0,.2-.6,2.3-1.2,5.1-1.5,7.1,0,0,0,0,0,.1,0,0,0,0,0,0,0,.5-.2,1-.2,1.4,0,1-.3,2.8-.5,4.8,0,0,0,.1,0,.2,0,0,0,0,0,0-.3,3.4-.7,7.2-.7,7.2l-.6,7.3-.8,9.5-.5,7.9v1.4l-.3,11.4h-7.4l.2-93.5v-29.9h.2s0,0,0,0c0,0,0,0,0,0h.1c.4,0,.7-.1,1-.3,1-.7,1.5-1.8,2.7-2.2,1.9-.7,3.9-.9,5.9-1.4,.7-.2,1.3-.4,1.8-.9,.4-.5,0-1-.4-1.3-1.2-.6-2.6-.7-3.9-.8-2-.2-3.9-.7-5.6-1.9-.5-.4-.8-.9-1.3-1.3h0c0,0,0-.1-.1-.1h-.1s0,0-.1,0c0,0,0,0-.1,0h0v-54.3h.1v-1.2h0V34.5c0,0,.8-.3,1.3-1,.1-.2,.2-.4,.3-.6h0c0-.1,0-.2,0-.2,.1-1.2,.2-6.8,.3-8.5,0-1.1,0-3.5,0-5.5h0c0-1,0-1.9,.1-2.5,0,0,0,0,0,0,0,0,0-.2,0-.2,.1-.6,.3-1.4,.5-2.3,0-.4,.2-.8,.2-1.2,0-.2,0-.4,.1-.6,0,0,0-.1,0-.2,.2-.8,.3-1.5,.5-1.9,.3-1,1.1-2.6,1.8-3.8,.2-.4,.4-.7,.6-1,.8-1.1,2.7-2.8,3.8-3.5s3.4-1.6,4.7-1.4,4.2,1.3,5.4,1.7c1.1,.4,7.1,1.8,9,2.2s7.4,1.9,8.9,2.4,5.1,1.9,6.1,2.7,3.1,2.9,3.8,4.1c.4,.8,.7,1.8,.9,2.9,0,0,0,0,0,0,0,.2,0,.5,0,.7,0,0,0,0,0,0,0,.3,0,.6,0,.9,0,1.4,0,4.2-.5,5.5,0,0,0,0,0,0,0,0,0,0,0,0-.4,1.2-1.3,3.9-1.5,5.1,0,0,0,.1,0,.2h0c-.2,1.2-.1,3.4,.1,3.9,.2,.2,.4,.5,.6,.6,0,0,.1,0,.2,0,0,0,0,0,0,0,.2,0,.5,0,.7-.2,0,0,0,0,0,0,0,0,0,0,0,0,.6-.6,.7-1.5,.7-2.7s.2-3.8,.2-4.9,0-4.6,.2-5.7c0-.2,.1-.6,.3-.9h0c.4-1.1,1.2-2.6,1.7-3.1,.7-.8,2.6-1.8,3.9-1.6,1.2,.1,3.6,.8,4.6,1.9,1,1.1,1.9,2.8,3.4,3.8s5.7,4.2,7.2,5.2c1.6,1.1,4.2,3.5,4.7,4.8,.5,1.3,.7,3.6,.4,4.6-.2,.5-.6,1.4-1,2.4,0,0,0,0,0,0-.4,.9-.9,1.8-1.2,2.2-.1,.2-.3,.7-.5,1.2,0,0,0,0,0,0,0,.3-.2,.5-.3,.8,0,0,0,0,0,0-.4,1.3-.8,2.9-.8,3.5,0,.9,0,2.6-.3,3.6h0c0,.1,0,.2,0,.3,0,0,0,0,0,0,0,0,0,.1,0,.1-.4,.8-1.8,2.3-1.8,2.3,0,0,0,0,.2,0,.2,0,.5,0,.8,0,.2,0,.3,0,.5,0,0,0,0,0,0,0,.5,0,1.5,.5,2,.8h0c.1,0,.2,.1,.3,.2h0c0,0,.1,0,.1,0t0,0h0c0-.2-.5-1.2-.8-1.8-.2-.3-.4-1-.6-1.7-.1-.5-.2-1-.3-1.5h0c0-.2,0-.4,0-.6,0-.4,0-.9,0-1.5,0,0,0,0,0,0,0-.7,.2-1.5,.4-2.3,0,0,0,0,0,0,.1-.6,.3-1.2,.5-1.6,.4-.9,1.3-2.2,2.1-3.3,0,0,0,0,0,0,.5-.6,.9-1.2,1.2-1.4,.8-.8,2.8-1.7,4-1.6,.7,0,1.6,.3,2.5,.8t0,0c.4,.2,.8,.5,1.3,.8,0,0,0,0,0,0,.2,.2,.5,.4,.8,.6,.3,.3,.7,.6,1.1,.9,0,0,0,0,0,0,1.5,1.3,3.3,2.9,4.3,4.1,0,0,.1,.2,.2,.3,0,.1,.2,.2,.2,.3,.9,1.6,2,3.6,2,4.4s-.1,.9-.3,1.5c0,0,0,0,0,0,0,.3-.2,.6-.2,.9h0c-.2,.6-.3,1.1-.3,1.5,0,.6,0,1.5,.4,2.2,0,0,0,0,0,0,.2,.3,.4,.5,.8,.6,.2,0,.3,0,.5,.1h0c1.1,.2,2.6,.3,3.5,.3s2.9,.6,3.7,1.8,2.3,4,2.2,5.5c0,1.1-.3,2.6-.7,3.6h0c-.1,.4-.3,.7-.4,.9-.2,.3-.7,.6-1.2,1,0,0,0,0,0,0-.2,.1-.5,.3-.7,.4,0,0,0,0,0,0-.1,0-.3,.2-.4,.2,0,0,0,0,0,0-.5,.2-.9,.4-1.2,.4s-.2,0-.4,0h0c-1.1,0-3.2-.3-4-.2-.3,0-.6,0-.9,.1h0c-.4,0-.7,.1-.9,.3,0,0,0,0-.1,.1-.1,.2-.2,.4-.2,.6,0,.3,.1,.7,.5,.8,0,0,.2,0,.3,0h0c.1,0,.2,0,.3,0,0,0,0,0,0,0,.5,0,1.2-.4,1.8-.5,.5-.1,1.4-.4,2.3-.6h0c.8-.2,1.6-.2,2.2-.2,0,0,0,0,.1,0h0c1.4,.2,3.2,1,4.3,1.9,1.2,.9,2.4,2.9,3.7,5.2,.2,.4,.5,1,.8,1.5,0,0,0,0,0,.1,.2,.5,.4,.9,.6,1.4,.7,1.7,1.4,3.5,1.8,4.6,0,0,0,.1,0,.2,0,.1,0,.2,.1,.3,0,.2,.2,.5,.3,.8,.6,1.6,1.4,4,1.6,5.1,.2,1.4,.8,5.7,.8,6.8,0,0,0,.2,0,.3,0,.7,0,1.9,0,3.1h0c0,1.1,0,2.1-.2,2.4,0,.2-.2,.5-.3,.7,0,0,0,0,0,.1-.3,.8-.6,1.7-1.1,2-.3,.2-.6,.4-1,.7,0,0,0,0,0,0h0c-.4,.3-.9,.6-1.3,.8,0,0,0,0,0,0-.2,0-.4,.2-.5,.2,0,0-.2,0-.4,0h0c-.8,0-2.5,0-4.1-.2,0,0,0,0,0,0-.6,0-1.1-.1-1.7-.2h0c-1-.1-1.8-.2-2.1-.3-1.2-.2-7.4-1.4-8.8-1.6-.2,0-.7-.1-1.3-.2,0,0,0,0,0,0-1.1-.2-2.7-.5-4.2-.9,0,0,0,0,0,0-1.1-.2-2.2-.4-3-.6-1.2-.2-2.1-.4-2.1-.4,0,0-.3-.1-.7-.3,0,0,0,0,0,0,0,0-.1,0-.2-.1-.8-.4-1.9-1.2-2.6-2.2-1.1-1.6-1.8-3.8-1.8-4.9,0,0,0,0,0,0,0,0,0-.2,0-.2,.1-1,.9-1.8,1.8-2.4,.9-.6,1.2-.9,1.5-1.3,0,0,0,0,0-.1h0c.1-.4-.1-.9-1-1-.4,0-1,0-1.7-.2,0,0,0,0,0,0-.7,0-1.4-.2-1.9-.4-.1,0-.3,0-.4-.2,0,0,0,0,0,0-.3-.2-.7-.4-1-.6h0c0,0,0,0,0-.1-.2-.1-.3-.2-.3-.2,0,0,.2,.3,.5,.6,.2,.3,.5,.6,.7,1,0,0,0,0,0,0,.3,.5,.6,1,.8,1.5,.3,.9,.6,2.7,.8,4.1h0c.1,.8,.2,1.4,.3,1.8,0,.2,0,.4,0,.6h0c0,.4,.1,.8,.2,1.3h0c.2,1.3,.3,2.6,.4,3.5h0c0,.3,0,.5,0,.6h0c0,.2,0,.3,0,.4,0,.8-.2,2.6-.6,3.8-.1,.3-.2,.6-.4,.8-.2,.3-.6,.6-1,1,0,0,0,0,0,0-.4,.3-.8,.7-1.1,1h0c-.6,.5-1.2,1-1.5,1.2-.8,.5-2.7,2.1-2.7,2.1l-1.4,1.4s.2,0,.5-.1h0c.1,0,.3,0,.4,0h0c.4,0,.8,0,1.2,0,0,0,0,0,0,0,.9,.2,1.4,.3,2.1,.8,0,0,0,0,.2,.1,0,0,0,0,0,0,.2,.2,.6,.5,.9,.7t0,0c.2,.1,.3,.3,.5,.4h0c.4,.3,.6,.6,.7,.7,0-.1-.4-.6-.8-1.1,0,0,0,0,0,0-.2-.2-.3-.5-.4-.7,0,0,0,0,0,0-.3-.5-.5-1-.5-1.3s0-.3,0-.5c0,0,0,0,0,0,0-.8,.4-2,.9-2.8,0-.1,.2-.3,.3-.4,0,0,0,0,0,0,.5-.7,1.4-1.7,2.1-2.5h0c.4-.5,.8-1,1-1.4,.7-1.1,1.4-2.7,2.1-3.3,.3-.2,.6-.4,.9-.5h0c.4-.1,.9-.2,1.5,0,0,0,0,0,0,0,.3,0,.7,.1,1.1,.3,1.9,.6,12.2,2.2,12.2,2.2l8.6,1.6s3.5,.3,4.9,.7c0,0,0,0,0,0,.1,0,.2,0,.3,0,.2,0,.4,.2,.7,.3,1.3,.6,3.5,1.6,4.3,2.7,.9,1.2,2.2,4.6,2.3,6.2Z" style="fill:#edead3;"/><path id="f" d="M131.7,51s-6.1,1.2-7.2,1.3c-1.1,.2-4.4,.2-4.4,.2,0,0,.9-.3,1.6-.8,.7-.5,.4-1.6-.4-2.3-.8-.8-2.9-1.6-3.5-2.9-.6-1.3-.8-2.5-.3-3.6s1-1.8,2.2-2.2,2.2-.4,2.2-.4c0,0-2.2-.7-2.8-1.5s-1.4-2.8-1.6-4.3c-.2-1.6,.2-15.1,.2-15.1,0,0,.6-6.4,1.6-9s4.2-6.9,5.5-8,4.2-1.9,5.4-1.8,5.8,1.8,7.5,2.2,13.5,3.2,15.2,3.8,7.5,3.6,8.4,4.5,3,4.1,3.1,5.7c0,1.6,0,6.2-.6,7.6s-1.8,5.8-1.8,6.8,.7,2.6,1.3,2.7c.7,0,1.2-1.2,1.4-2.7s.3-8.8,.3-8.8c0,0-.2-2.2,.5-3.4s1.9-3.3,2.9-3.9c1-.6,3.7-.8,5,0s3.8,3.2,4.7,4.2c.8,1,3.8,3.2,5.1,4s5.4,4,6.2,4.8,2.1,3.2,2.1,4.4-1,4.8-2.1,6.6c-1.1,1.8-2.2,4.7-2.2,5.9s.3,3.5-.3,4.5c-.7,1-2.2,2.5-2.2,2.5,0,0,1.2-.7,2.1-.4,.9,.2,2.8,1.5,2.8,1.5,0,0-1.1-1.6-1.4-2.7-.3-1.1-.7-4.4-.3-6.1,.3-1.7,2.2-5.4,3.5-6.8,1.2-1.3,2.9-2.3,4.2-2.3s2.9,.2,4.2,1.3c1.2,1.2,4.1,3.1,5.2,4.4,1.2,1.3,2.6,3.8,2.9,5,.3,1.2,.3,2.8-.2,3.8s-.5,2.4,0,3.2,2.1,1.4,3.4,1.4,3.7,0,4.3,.9c.7,.9,2.9,3.4,3.1,5.3,.2,1.9-.5,5.2-1.2,5.8-.7,.7-3,1.3-3.9,1.5s-3.4-.2-4.3,0c-.9,.2-2,.7-1.7,1.2s.5,1.2,1.4,.8,3.4-1.1,4.2-1.2c.8,0,3.2,0,4.3,.6,1.2,.6,3.2,2.4,4.2,3.9s3.2,4.9,3.8,7c.7,2.1,2.5,7.8,2.7,9.2s1.3,8.2,1.2,9.6c-.2,1.4-.3,4.5-1.2,5.5s-3.2,2.4-4.2,2.5-9.7-1.4-9.7-1.4l-11.7-1.9-5-1.2s-2.8-1.2-3.8-2.3-2.5-4.1-2.2-5.4c.2-1.3,1.1-2.2,1.9-2.8,.8-.6,1.4-1.1,1.5-1.5s-1.2-.8-1.2-.8l-3.8-.7-1.2-.8,1.7,3.3,1,4.7,.8,6.4-.7,3.4-2.8,3.8-3.5,2.9-2.2,2.2s.8-.7,1.8-.5,4,1.8,4,1.8c0,0-1-1.3-.8-2.6s1.8-3.6,1.8-3.6l2.8-3.8,2.2-3.2s.7-.7,1.9-.4,26.4,4.8,26.4,4.8c0,0,2.8,.8,4,1.7,1.2,.8,2.9,2.3,3.5,4.4,.6,2.1,.8,6.9,.2,9.3-.6,2.4-3.2,9.1-3.8,10.6-.7,1.5-2.2,6-3.2,7.6-1,1.6-4.8,6.5-6,7.2s-5.8,2.5-8.2,2.4-3.8-1-4.4-1.7-1.4-2.6-1.4-2.6c0,0,.2,1.7-.2,2.6-.5,.9-1.5,1.9-1.5,1.9,0,0,1.5-.4,2.4-.4s4.6,.2,5.7,.9c1.1,.8,3.2,2.6,3.8,4.3s.6,5-.2,6.5-3.9,5.7-5.2,6.2-6.6,3.2-8.4,3.1c-1.8,0-5.3-1-5.3-1,0,0-2-1.2-2-2s.6-2.5,.6-2.5c0,0-1,.5-1.8,.9s-4.2,.9-4.2,.9l3.1,1s3.8,1.1,4.8,2.1,2.5,2.3,1.8,3.6c-.7,1.2-3.4,3.5-5.2,4.2s-9.1,3.1-10.4,2.9c-1.4-.2-5.2-1.5-6-2.2s-2.3-2.8-2.5-3.5-.5-3.7-.5-3.7l-1-.6-.3,1.3s.7,1.7,.8,3.1c0,1.4,.4,2.4-.5,3.1-.9,.7-3.8,1.2-5.2,1-1.3-.2-6.7-1.4-8.3-2.7-1.7-1.2-5.1-3.8-5.9-4.9-.8-1.1-1.2-1.8-1.4-2.4s1.1-2.6,1.1-2.6l.2-1.3-1.6,.3s-2.3,1.3-3.5,1.2c-1.2-.2-3.8-.7-5.5-2.8-1.8-2.2-2.5-4.5-2.8-6.9-.2-2.4,.5-7.4,1.3-9.1,.8-1.7,3.2-5.8,3.8-7.2,.6-1.3,1.2-2.5,1.2-3l-1.3-.8s-4.8-2.5-2.4-4.9c2.4-2.4,7-3.8,8.9-1.2s4.3,8.9,2.1,11.1c-2.2,2.1-7.5,7.2-8.2,9.4s-.2,5.7,1.2,7.8c0,0,1.2,2.2,2.7,2.6,2.1,.5,4.4-.4,6.6,0,3.6,.8,1.3,5,2.1,7.6,1.1,3.9,5.5,5.1,9.2,4.5,.9-.2,1.9-.9,1.8-1.9-.4-3.3,2.6-5.8,5.7-4.9,2.7,.8,3.2,3.8,3.8,6.2,.2,1.3,1.2,2.2,2.5,2.8,3.6,1.4,8.2,.8,11.9-.9,.6-.3,1.2-.8,1.4-1.4,.2-.8-.2-1.4-1-1.8-3.5-1.3-7.3-1.6-10.1-4.2-1.3-1.2-1.6-3.3-.6-4.9,.9-1.2,2.4-1.4,3.8-1.1,1.7,.4,3.3,.7,5.1,.4,2.2-.4,4.2-1.6,6.2-2.8,1.8-1,3.9,.5,3.2,2.4-.6,1.2-1.7,2.3-1.3,3.9,.2,.4,.5,.7,.8,.8,1.2,.5,2.6,.5,3.8,.2,3.8-.9,7.1-3.3,8.7-6.8,.6-1.3,.8-3.2-.2-4.7-1.3-2.2-4.1-2.3-6.2-1.8-3.1,.8-5.9,2.4-9.1,1.5-1.8-.6-1.3-3.1,.2-4.1,3.6-2.4,5-6.2,5.8-10.2,.2-1.1,.9-2.2,1.9-2.6,1.2-.4,3-.7,3.5,.6,.8,1.8,0,3.8,.4,5.8,.5,2,3.2,1.8,5,1.3,4.9-1.2,8.3-6.2,10.2-10.8,2.5-6.1,5.3-12.3,4.5-19.2-.2-1.8-1.4-3-2.8-4.1-2.4-1.9-5.2-2.6-8.2-3.1-6.2-1-12.2-2.8-18.4-2.2-3.1,.3-5.9,4-5.2,7.2,.3,1.7,2,2.7,2.6,4.2,.6,1.4,.8,3.3-.8,4.2-.8,.5-2,.5-3,.2-2.4-.8-3.8-3.5-6.4-3.8s-5.5-.3-8-1.4c-2.3-1.1,.8-3.7,2-4.8,2.7-2.3,5.6-4.1,7.9-6.6,2.6-6.7-.5-13.5-1.8-20.3-.2-1.7-.9-3.8,.5-4.8,.7-.5,1.8-.2,2.5,.3,1.6,1.4,2.9,3,4.9,3.4,3,.7,8.2,.8,7,4.8-.4,1.6-2.2,2.2-3.3,3.5-.8,1-.9,2.2-.7,3.5,.2,.9,1.3,1.1,2.2,1.2,.6,.1,1.3,0,1.9,0,7,2.1,13.7,4.3,21,5.2,1.2,.2,2.7,.2,3.5-.8,2-2.3,1.6-5.7,1.1-8.5-.3-2.2-1.1-4.2-1.8-6.2-1.8-4.6-2-9.8-5.5-13.5-2-2.2-5.1-2.3-7.8-1.9-2,.2-3.8,.8-5.8,.4-2.2-.4-3.5-3.2-2.5-5,2.3-4.5,8.2-2.2,12.2-3.2,2.6-.7,1.8-4.9-.4-5.9-3.2-1.6-7.7-1.8-9.3-5.3-.9-2,.9-4.8,.3-7.2-.7-2.5-2.2-4.6-4.1-6.4-1.8-1.7-4.8-2.6-6.7-1.1-2,1.6-2.9,4.1-3.5,6.6-.8,3.4,.8,6.3,1.8,9.3,.3,.8,.5,2.2-.5,2.5-1.3,.5-2.2-.7-3.2-1.7-1.1-1.2-2.9-.8-4.4-.5-1.6,.4-3.1,1.2-4.8,.8-1-.2-1.4-1.7-.8-2.4,1.4-2.1,4.2-2.8,4.7-5.6,.7-4.2,1.5-7.9,4-11.6,.8-1.2,.9-2.8,.4-4-1.3-3.8-4.9-5.8-8.2-8.2-1.8-1.3-3-2.8-4.8-4.1-1.3-1-2.9-1.8-4.5-1.2-1.2,.5-1.8,1.8-1.9,3.2-.2,3.3,.2,6.6-.5,10-.5,2.1-1.1,4.6-3.3,5.2-5.2,1.6-7.2-4.6-6.2-8.7,1-4.8,2.2-9.6-.2-13.9-.8-1.5-2.5-2.2-4-2.7-6.2-2.2-12.4-3.3-19-4.8-2.7-.6-5.5-1.2-7.9,0-4.8,2.2-5.1,7.8-6.1,12.5-1.1,5-.9,9.7-.3,14.5,.2,1.5,2.8,.7,3.7-.7,1.2-1.9,1.9-3.8,3.2-5.6,.6-.8,1.6-1,2.3-.7,1.8,.8,1.5,3.2,1.2,4.8-.5,2.8-1.6,5.3-1.3,8.1,.2,1.8,2.2,3.3,4.4,3.8,1.8,.4,2.7,2.7,2,4.3-.8,2-3,2.2-4.8,2.5l-.4,.2h0Z" style="fill:#d6d3b8;"/><path id="g" d="M122.6,111.5c-.2-1-.5-1.9-1-2.8-.6-.8-1.1-1.6-1.3-2.6-.9-4.4-2-8.5-1.2-12.9,.8-5,3.1-9.2,6.6-13,1.6-1.7,3.5-3,5.6-3.8,3.7-1.2,7.6-1.8,11.4-.7,.7-1.7-.1-3.6,.9-5.3,0-.2,0-.6,0-.8,1.7-4.5,5.8-7.5,10-9.4,1.9-.8,3.9-.5,5.9-.6,0,0,0,.2,0,.2,4.1,1.8,6.8,5,5.1,10.9-1.6,3.8-3.1,5.4-7.8,8.4-2.4,1.5-5.2,.6-7.6,1.8-1.2,.6-1.3,2.2-1.4,3.4-.6,8.2-.4,15.1-4.2,20.7-1.7,2.4-3.8,4.6-6.2,5.7-3.8,1.7-8.6,3-12.2,1.8-1.1-.4-2.2-.7-2.8-1.7l.3,.8Z" style="fill:#d6d3b8;"/><path id="h" d="M141.9,114.5c4.6-5.7,14.8-19.9,18.6-11.1,5.5,9.4,2.6,15.4-7.2,18.2-3.7,1.1-7.3,.2-11-1-2.7-.8-1.9-4.2-.4-6.1Z" style="fill:#d6d3b8;"/><path id="i" d="M158.2,97.3c-.9-2.2,0-3.8,.7-5.7,1.5-5,6.7-9.2,12.2-7.8,2.2,.7,2.5,3,2.8,5.2,.8,9.7-.8,19-3.7,28-.8,3-4.7,4.8-7.3,3.5-1-.3,0-2,.5-3,1.5-2.7,1.7-8.2,.7-10.7-1.5-3.8-4.3-5.7-5.8-9.5h0Z" style="fill:#d6d3b8;"/><path id="j" d="M136.7,148.4c.6-1.6,2-4.8,2.8-6,.8-1.2,2.5-3.2,3.3-3.8,.9-.7,1.4-1.1,1.9-.7,.5,.4,.2,1.6-.4,2.7-.7,1.1-4.2,7.8-4.7,9.2-.5,1.3-1.6,7.4-1.2,8.9,.4,1.5,1.8,5,2.8,6.2s1.8,1.4,3,2.1c1.2,.7,1.4,1.3,2.7,1s2.4-1,3.1-1.3c.7-.3,1.5-.9,1.8-.4s-.3,1.6-.7,2.1c-.3,.5-.8,1.6-.4,2.2,.4,.7,1.8,2.6,2.6,3.3s4.2,3.2,5.7,4,5.8,2.1,7.2,2.2c1.5,.2,3.7,0,4.4-.5s1.3-1.5,1.3-2.2-.1-2.3-.4-2.9c-.2-.7-.4-1.7-.4-2.2s.7-.9,1-.5,.7,1.7,.8,2.3c0,.7,.4,2.9,.8,3.5s2.3,2.6,3.4,2.9c1.1,.3,4.4,1.2,6.1,.8,1.7-.3,3.3-.8,4.8-1.2s4.5-1.7,5.5-2.2,3.6-3,3.6-3c0,0,.8,.3,1.3,.7,.6,.3,1.2,.9,1.5,1.3,.2,.4,.1,1.1,.1,1.1,0,0,1.3,.6,1.5,1.5s.5,2.6,.2,3.8-1.1,3.6-1.5,4.1-.8,1.1-.8,1.1c0,0-.2,2.7-.7,3.5s-1.5,2.6-1.5,2.6c0,0-.3,2-.8,2.8-.5,.9-2,2.5-2,2.5,0,0-.2,1.6-.8,2.5-.7,.9-2.8,2.8-2.8,2.8l-1.4,1.2s-.4,1.1-1.2,1.7c-.8,.6-2.8,1.2-2.8,1.2,0,0-.3,.9-1,1.8-.7,.9-2.8,3-3.4,3.3s-2.7,.5-2.7,.5c0,0-1.1,1-1.9,1.4-.8,.4-2.9,1.1-2.9,1.1,0,0-1.3,.9-2.1,1.5s-2.9,1.2-3.5,1.4c-.6,.2-2.8,.2-2.8,.2,0,0-1.4,.8-2,1-.6,.2-1.9,.8-2.5,.7-.6-.2-1.6-1-1.6-1,0,0-1.1,1-2.2,1.4-1.1,.3-3,1-4.2,.6s-2.4-1.1-3.2-1.5-1.9-.8-1.9-.8c0,0-1,.3-1.5,.4-.5,0-1.9,.6-1.9,.6,0,0-.6,.8-1.4,1.5-.9,.7-1.9,1.3-2.8,1.8-.8,.4-1.7,.6-2.4,.7-.8,0-1.6,.2-2.4,.4-.8,.2-2.2,.3-3.2,.8s-2.2,1.3-2.8,1.5c-.7,.2-2.2,.3-2.2,.3l-1,.4s.4-6.5,1.1-9.6c.7-3.1,2.4-9.4,3.3-12.4,.9-3,2.8-10.2,3.9-13.2,1.1-3,2.8-6.6,4-9s3.1-5.7,3.8-7.3c.8-1.7,1.4-2.8,1.4-4.2s-.3-2.4-1.2-3.6c-.9-1.2-3.2-3.8-4.2-5.8s-2.3-5.4-2.4-8.3c0-2.9,.3-5.4,1-7.3h0Z" style="fill:#edead3;"/><path id="k" d="M113.7,52.1c.3,0,.7,0,1,0,2.4,.4,4.7,.8,7,.1,.7-.2,1.2-1,1-1.7-.5-1.6-2.1-2.2-3.4-3.1-1.9-1.3-2.2-4.1-.6-5.8,.9-1,2.3-1,3.6-1.1,.9,0,1.8-.4,2.7-.5,2.2-.2,2.8,2.3,3.6,3.9,0,0,0,0,.1,0,0,0,0,0,0-.2-.2-2.1-1.4-5-4-4.6-.8,.1-1.6,.5-2.4,.5-1.5,0-3.2,.1-4.3,1.4-1.8,2-1.4,5.2,.8,6.8,1.2,.8,2.7,1.3,3.2,2.8,0,.7-.8,.9-1.4,1-1.3,0-2.5,0-3.8-.1-.9,0-1.8,.1-2.7,.2-.1,0-.3,0-.4,0h0c0,0-.1,0-.1,0,0,0,0,.1,0,.1h0Z" style="fill:#8f5946;"/><path id="l" d="M128.3,32c0,1.8-1.2,3.2-2.2,4.7-.7,1.1-1.4,2.3-2.7,2.7-1.4,.5-3.1,.2-4.1-1.1-.7-.9-1.2-2-1.3-3.1-.4-5.5,.3-10.9,.1-16.3,.4-4.2,.9-8.6,3.2-12.3,.1-.2,.1-.4,0-.5-.2-.1-.4-.1-.5,0-.2,.1-.3,.3-.4,.5-2.2,3.8-2.7,8.1-3.1,12.3,.2,5.5-.5,10.9,0,16.3,.2,2.6,2.4,5.3,5.3,4.9,1.1-.1,2-.7,2.7-1.4,1.1-1.2,1.8-2.6,2.4-4,.4-.9,.7-1.8,.7-2.8h0c0,0,0,0,0,0,0,0,0,0,0,.1h0Z" style="fill:#8f5946;"/><path id="m" d="M127.7,34.2c-.2,.6-.5,1.1-.8,1.6-.7,1.5-1.1,3.3,0,4.7,.3,.4,.6,.6,.7,1,0,0,0,0,.1,0,0,0,0,0,0-.1-.4-1.1-.8-2.3-.9-3.4,0-1.3,.4-2.6,1-3.8,0,0,0-.1,0-.1,0,0-.1,0-.1,0h0Z" style="fill:#8f5946;"/><path id="n" d="M123.9,39.7c.8,0,1.5-.4,2.1-1l.2-.3-.2,.2h0c0,0,.2-.1,.2-.2h-.4c0,.3-.4,.5-.3,.9h0c0,.2,0,.4,.2,.4h.1s0,0,0,0h0c.1,0,.2,0,.3,0,.1-.1,.1-.3,0-.5h-.1c-.2-.2-.4-.3-.6-.3h0c-.2,0-.4,0-.4,.3s0,.4,.3,.4c.3,0,.4,.3,.9-.1l-.5,.3c0,0,.1,0,.2,0h0c.1,0,.3-.1,.3-.2,0-.2,0-.3-.2-.4h-.1l.2,.3v-.2s0,0,0,0c.1-.3,.4-.5,.3-.9h0c0,0,0-.2,0-.2h0c0-.2-.2-.2-.3-.2h0c-.1,0-.2,.1-.2,.2h0c0,0-.1,0-.2,.1h0c-.5,.6-1,1.2-1.7,1.2,0,0,0,0,0,.1,0,0,0,0,.1,0h0Z" style="fill:#8f5946;"/><path id="o" d="M117.7,18.2c.2-1.8,.7-3.5,1.2-5.3,.7-2.6,1.5-5,3.1-7.2,1.3-1.7,2.8-2.9,4.6-4,1.6-1,3.4-1,5.3-.6,1.7,.4,3,1.3,4.6,1.7,3.9,.9,7.3,1.9,11.2,2.8,3.4,.8,6.5,1.6,9.6,3,2.1,1,3.8,2.4,5.3,4.3,1.7,2.2,1.7,4.8,1.7,7.3,0,2.5-1.1,4.7-1.7,7.1-.5,2-.9,3.9-.3,5.9,.2,.6,.7,1.2,1.4,1.1,.9,0,1.4-.9,1.6-1.6,.3-.8,0-1.7,.1-2.6,.2-2.7,.4-5.3,.3-7.9,0-2.5,1-5,3-6.7,.4-.3,.8-.6,1.3-.7,1.6-.1,3.1,0,4.5,1,1.8,1.2,2.7,2.8,4.1,4.3,3.7,3.1,8,5.2,11.4,8.7,.8,1.2,1.5,2.6,1.4,4.1-.2,1.7-.4,3.3-1.3,4.8-.9,1.5-1.8,2.9-2.4,4.5-.8,2.1-.5,4.2-.7,6.4-.3,2.1-2.2,3.4-3.9,4.4h0c0,0,0,0,0,.2,0,0,.1,0,.2,0,.6-.3,1.2-.7,1.8-.9,1.5-.6,2.9-2,3-3.7,.1-1.3,0-2.6,.1-3.9,.1-1.6,.7-3.1,1.6-4.4,1.6-2.3,2.4-4.7,2.6-7.3,.1-1.7-.6-3.4-1.7-4.8-3-3.1-6.5-5.1-10.1-7.7-1.9-1.4-2.9-3.3-4.6-4.7-2-1.7-5-2.5-7.4-1.2-2.3,1.8-3.7,4.7-3.7,7.6,0,1.6,.2,3.2,0,4.9-.2,1.8-.3,3.6-.3,5.4-.3,.4-.4,1.1-1.1,1.1-.9-1.8-.4-3.9,0-5.9,.5-2.1,1.5-3.9,1.7-6,.2-1.9,0-3.7-.3-5.6-.6-3-2.6-5.1-5-6.9-2.2-1.6-4.6-2.3-7.1-3-5.7-1.8-11.5-2.8-17.2-4.5-.9-.5-1.9-.8-3-1.1-1.3-.4-2.5-.6-3.8-.3-3.4,.6-6,2.9-7.8,5.8-2.4,3.8-2.6,8.1-3.5,12.3h0c0,0,0,.1,0,.1,0,0,.1,0,.1,0h0Z" style="fill:#8f5946;"/><path id="p" d="M183.8,52.8c1.3-.7,2.9-1.5,4.4-.7,1.1,.5,2.1,1.4,2.8,2.4,0,0,0,0,.1,0,0,0,0,0,0-.1-.7-1.1-1.4-2.3-2.7-2.9-1-.4-2-.4-3,.1-.6,.3-1.1,.7-1.6,.9,0,0,0,0,0,.1,0,0,0,0,.1,0h0Z" style="fill:#8f5946;"/><path id="q" d="M190.1,52.9c-1.4-1.9-1.9-4.2-1.8-6.5,0-1.9,.4-3.8,1.6-5.5,1.4-2.2,2.7-4.8,5.5-5.3,1.1-.2,2.3,0,3.3,.4,1.5,1.2,2.9,2.3,4.5,3.5,1.3,1,2.2,2.1,3.2,3.5,1.4,1.9,2.9,4.4,1.4,6.6-.6,1.4-.6,3.1,.5,4.3,1.3,1.4,3.3,.7,5,.8,1.7,.1,3,1.1,3.9,2.6,1.3,2.2,2.2,4.9,1.3,7.4-.3,.8-.8,1.5-1.4,2.1-.8,.8-1.9,1.1-3,1-2-.2-4.1-.4-6,.4-.3,.1-.5,.5-.5,.8,0,.8,.6,1.5,1.4,1.4,2.1-.4,3.9-1.4,6-1.4,2.3,0,4.3,1.3,5.9,2.9,2.7,3.7,4.7,7.9,6.1,12.3,0,.1,.1,.2,.3,.1,.1,0,.2-.1,.1-.3-.2-1.3-.6-2.5-1-3.8-.4-1.6-1.2-2.9-2-4.4-1.1-2-2.1-3.9-3.8-5.4-1.6-1.4-3.6-2.3-5.7-2.3-2,0-3.9,.8-5.8,1.5-.4,.1-.9-.2-.7-.7,0-.2,.3-.2,.5-.3,1.7-.4,3.4-.2,5.1-.1,1.2,0,2.4-.2,3.4-1.1,1.2-1.1,2.1-2.5,2.2-4.1,.2-2.8-.8-5.5-2.6-7.7-.9-1.1-2.2-1.6-3.6-1.8-1.6-.2-3.5,.8-4.6-.8-.5-.8-.5-1.7-.3-2.6,.3-1.1,.9-2.2,.6-3.3-.6-2.8-2.2-5-4.1-7-1.7-1.8-3.7-3.1-5.5-4.7-1.3-.7-2.7-.9-4.1-.7-3.1,.4-4.6,3.4-6.1,5.9-1.7,2.7-2.1,5.9-1.3,8.9,.4,1.4,1.1,2.5,2.1,3.5,0,0,.1,0,.2,0,0,0,0-.1,0-.2h0Z" style="fill:#8f5946;"/><path id="r" d="M224.9,78.7c.1,.2,.2,.4,.2,.6,.3,2.4,1.3,4.5,2.2,6.6,.6,1.5,1,3.1,1.1,4.8,.3,3.4,1.1,6.6,.8,10-.2,2.6-1.5,5.5-4.4,6-1.9,.3-3.7-.2-5.6-.5-2.5-.4-4.9-.5-7.4-1.3-2.2-.7-4.4-.6-6.7-1-2.6-.8-5.2-1-7.8-1.6-2.8-1.4-5.4-4.3-5.1-7.6,0-.6,.3-1.1,.8-1.5,.8-.8,1.9-1.2,2.6-2.1,.2-.3,.3-.7,0-1-.3-.5-.9-.6-1.4-.6-1.4-.2-2.8,0-4.1-.7-.6-.3-1.1-.6-1.6-1.1,0,0,0-.1,0-.2h0l-.4,.2h0c.7,.9,1.2,1.7,1.7,2.6,.8,1.5,.9,3.1,1.3,4.7,.4,1.9,.4,3.7,.7,5.6,.2,1,.3,2,.2,3-.1,1.5-.5,2.8-1.4,4.1-1.8,2.6-4.3,3.7-6.4,5.8-.9,.9-1.5,1.9-2,3h0c0,0,0,.1,0,.1,0,0,.1,0,.1,0h0c.4-.9,1-1.7,1.9-1.7,.8,0,1.7,.2,2.5,.4,1.7,.6,2.7,2,4.1,2.9h.1c0,.1,0,.1,0,.1h0s0,0,0,0c0,0,0-.1,0-.2h0c-1.5-1.1-2.9-2.7-2.6-4.7,.2-1.1,.6-2.1,1.3-2.9,1.8-2.1,3.3-4.1,4.6-6.5,.6-1.1,1.9-1.8,3.1-1.3,1.1,.5,2.2,1.2,3.4,1.3,1.4,.1,2.7,0,4.1,.3,1.5,.4,2.9,.8,4.4,1.1,1.7,.3,3.2,.4,4.9,.6,1.9,.3,3.5,1,5.4,1.2,1.6,.2,3.1,.4,4.7,.9,2.3,.7,4.6,2.1,5.5,4.4,1.1,2.7,1.5,5.5,1,8.4-.5,2.4-.6,4.8-1.6,7-.8,1.7-1.8,3.3-2.4,5.1-.1,.4-.2,.8-.2,1.2,0,.1,0,.3,0,.3,.1,0,.3,0,.3,0,.5-.8,.8-1.7,1.2-2.6,.5-.9,1-1.8,1.5-2.8,1.4-2.7,1.5-5.7,2.1-8.5,.3-3.7,0-7.9-2.8-10.7-1.6-1.6-3.7-2.5-6-2.9-1.1-.2-2.2-.2-3.3-.4-1.4-.2-2.7-.6-4.1-.9-2.4-.5-4.6-.6-7-1.1-1.4-.3-2.5-.8-3.9-1.1-1.3-.3-2.4,0-3.7-.2-1.2-.1-2.1-.8-3.2-1.3-.8-.4-1.6-.3-2.4,0-.8,.3-1.4,.9-1.8,1.7-.9,1.5-1.6,2.9-2.7,4.3-.6,.8-1.3,1.4-1.9,2.2-.7,1-1.2,2.1-1.3,3.3,0,.7,0,1.4,.3,2.1,.6,1.2,1.7,2.1,2.9,2.7,0,0,.1,0,.2,0v.2c0,0,0,0,0,0h0c0,0,.1,0,.1,0,0,0,0-.2-.1-.2h0c0-.1,0-.1,0-.1-.8-.8-1.3-1.8-2.2-2.5-1.1-.8-2.4-1.3-3.7-1.4-1.3-.1-2.4,.9-2.8,2l-.2,.4s0,0,0,0h.3c0-.3,.1-.4,.2-.5,2.5-3.3,6.3-4.5,8.6-8.1,1.8-2.7,1.6-5.8,1-8.7-.1-2.7-.7-5.2-1.3-7.9-.4-1.5-1.3-2.6-2.2-3.8l-.2-.3h0l-.5,.4c.2,.8,1.1,1.3,1.8,1.7,1.5,.9,3.2,.6,4.9,.9,.1,0,.3,.2,.3,.2-.6,1.1-1.8,1.4-2.7,2.2-1.1,1-1,2.5-.8,3.9,.3,1.5,1,2.7,2,3.8,1,1.1,2,2.3,3.5,2.7,2.6,.7,5.3,.9,7.8,1.7,2.1,.3,4.2,.3,6.3,.9,2.6,.8,5.1,1,7.7,1.4,2.3,.3,4.6,1,6.9,.2,2.4-.9,3.7-3.2,4-5.7,.3-3-.1-5.9-.5-8.9-.3-2.3-.4-4.6-1.3-6.8-1-2.4-1.9-4.9-3-7.3h0s0,0-.1,0c0,0,0,0,0,.1h0Z" style="fill:#8f5946;"/><path id="s" d="M230.7,124.3c-.6,1.8-1.1,3.6-1.8,5.3-.9,2.1-2.3,3.8-2.9,6.1-.9,3.5-2.9,6.3-5.2,9.1-1.4,1.7-2.9,3.2-4.9,4.1-2.1,.9-4.4,1.3-6.7,1.2-1.5,0-2.9-.7-3.8-2-.8-1-1-2.2-1-3.4h0v.2h0v-.2h-.4c0,0,.1,.1,.1,.2,0,0,0,.1-.1,.2-.3,1.7,.2,3.5-1,4.9-1.1,.8-2,1.8-3,2.7h-.1v.3h.2c1.3-1.3,2.9-2.2,4.7-2.3,2.6,0,5.4,.3,7.3,2.2,1.1,1.6,2.2,3.2,2.5,5.2,.3,2.4-.8,4.5-2.2,6.4-1.9,2.6-4.4,4.1-7.1,5.3-3.6,1.5-8.7,2.1-11.4-1.3-.5-1.4,.6-2.8,1.2-3.9h0c0-.1,0-.1,0-.2h0c0-.2,0-.2,0-.2,0,0-.1,0-.1,0h0c-.6,.6-1.1,1.3-1.8,1.8-1.9,1.2-4,1.4-6.1,1.4-.5,0-1,0-1.5,0h0s0,0,0,0c0,0,0,.1,0,.1h.2c2.6,.3,5,1.4,7.5,2,1.6,.7,3.4,1.7,3.9,3.5,.2,.7,0,1.4-.4,2-.1,.2-.1,.4,0,.6,.2,.2,.4,.1,.6,0,1-1,1-2.6,.2-3.7-1.1-1.6-2.7-2.7-4.5-3.2-2.4-.6-4.7-1.2-7.1-1.2h-.1c.1,.2,.3,.1,.4,.2,2.3,.8,4.7,.2,6.8-.8,1-.5,1.4-1.5,2.2-2.3v-.2h-.1s0,0,0,0v.2c0,0-.1,0-.1,0-.9,1.1-2,2.3-1.9,3.8,.7,2,2.8,3,4.9,3.4,5,.9,9.8-1.4,13.5-4.5,2.2-2.3,4.2-5,4.3-8.3,.1-2.6-1.3-4.8-2.9-6.8-.8-1-2-1.5-3.3-1.9-1.8-.5-3.5-.8-5.3-.3-1.6,.4-2.8,1.5-4,2.5l-.2,.2s0,0,0,.1c0,0,0,0,.1,0h0s0,0,0,0h.1c1-.8,2.1-1.3,3-2.1,1.5-1.2,1.4-3.2,1.4-4.9,0-.4,0-.7,.1-1,0-.2,0-.3-.1-.5l-.2-.2c-.2-.1-.4,0-.5,0v.2c-.2,0-.2,0-.2,.1h0s0,0,0,.2v.2c-.3,3.2,2.4,6,5.5,6.1,3,.1,5.9-.4,8.5-2.1,2.7-1.8,4.4-4.2,6.2-6.8,.8-1.1,1.3-2.1,1.8-3.2,.8-1.6,1.1-3.3,1.8-5,1.1-2.5,2.5-4.8,2.9-7.6,.1-.7,.4-1.3,.5-2,0,0,0-.1,0-.1,0,0-.1,0-.1,0h0Z" style="fill:#8f5946;"/><path id="t" d="M140.6,146.7c-.8,1.8-1.6,3.5-2.2,5.3-.2,2.1-.2,4.1-.2,6.2,0,.8,.2,1.6,.4,2.4,1,3.3,3.2,6.2,6.6,7.3,1.1,.4,2.4,.2,3.5-.1,.9-.3,1.4-1,2.3-1.3,.2,0,.5-.2,.8,0-.3,.6-.7,1.1-1.1,1.6-.5,.6-.7,1.4-.5,2.1,.6,1.7,2,2.9,3.2,4.2,1.1,1.2,2.4,2.1,3.9,2.9,2.5,1.4,5,2.2,7.7,2.9,2.1,.5,4.3,.8,6.3-.2,2.3-1.9,.7-4.9,.4-7.4,0-.2,0-.5,0-.7h0c.4,0,.8,.4,.9,.8,.3,1.8-.1,3.5,.9,5.1,2,3.1,5.6,4.2,9,3.9,2-.1,3.9-.4,5.7-1.1,2-.8,4-1.6,6-2.4,1.4-1,2.8-2.1,3.4-3.7,.4-1.1,.1-2.3-.6-3.2-.3-.4-.5-.6-.9-.9-2-1.2-4-2.1-6.2-2.3h0c0,0-.1,0-.1,0,0,0,0,.1,0,.1,2.1,.2,4,1,5.8,2.2,1.3,.8,1.7,2.4,1.3,3.8-.8,1.3-2,2.3-3.4,3.1-1.7,.9-3.5,1.3-5.2,2.2-3.6,1.3-7.8,2-11.4,.2-1.5-.8-2.9-2-3.4-3.7-.3-1.2,0-2.3-.4-3.5-.2-.8-.9-1.5-1.8-1.3h0c0,0-.1,0-.2,0h-.1c-.5,1.5,.2,3,.5,4.5,.3,1.4,.2,3.2-1.4,3.6-3.6,1-7-.6-10.2-1.9-2.2-.8-4.1-2.1-5.8-3.8-1.1-1.1-2.3-2.2-3-3.6-.1-.3-.2-.7,0-1,.4-1,2-2.1,1.1-3.3-1.3-.8-2.5,.5-3.7,1-.8,.4-1.7,.5-2.6,.3-1.2-.2-2.1-.7-3.1-1.5-2.4-1.9-3.7-4.7-4.1-7.7,0-2,0-4,0-6.1,.6-1.8,1.1-3.6,1.9-5.4,0,0,0-.1,0-.1,0,0-.1,0-.1,0h0Z" style="fill:#8f5946;"/><path id="u" d="M138.6,159.7c-.6-2.2,0-4.3,.4-6.5,.4-1.8,.9-3.4,1.6-5,1.2-2.7,2.8-5,4.1-7.7,.4-.8,1-1.6,.6-2.4-.2-.4-.6-.6-1-.6-.7,0-1.2,.4-1.7,.9-1.1,.9-2,2-2.9,3.2-.9,1.2-1.6,2.4-2.2,3.7-1.4,2.9-2.5,5.8-2.3,9.1,.1,1.7,.2,3.4,.6,5.1,.4,1.6,1.1,3,1.8,4.5,.5,1,1.1,1.9,1.9,2.7,1.1,1.4,2,2.7,3.1,4.1,.9,1.1,.5,2.5,.5,3.7-.4,2.1-1.8,3.8-2.4,5.9h0c0,.1,0,.3,.2,.4,.1,0,.3,0,.4-.2,.7-1.2,1.3-2.5,2-3.7,.3-.6,.5-1.2,.7-1.9,.2-.7,.1-1.3,.1-2,0-.7,0-1.3-.3-2-.3-.8-.9-1.3-1.4-2-.8-.9-1.3-1.9-2.1-2.9-1.3-1.5-2.1-3.1-2.9-4.8-1-2.3-1.1-4.8-1.3-7.2-.2-3,.9-5.8,2.1-8.5,.8-1.6,1.6-3.1,2.8-4.5,1-1.2,2-2.6,3.6-2.9,.1,.2,0,.5,0,.7-1.2,3-3.2,5.6-4.4,8.7-.8,1.9-1.3,3.8-1.7,5.8-.4,2.1-.7,4.2,0,6.2,0,0,0,0,.1,0,0,0,0,0,0-.1h0Z" style="fill:#8f5946;"/><path id="v" d="M114.2,180.2c1.2-.3,2.4,.2,3.6,.3,2.5,.2,5-.1,7.3-1.3,1-.5,1.9-1,2.9-1.7,1.5-.9,2.5-2.1,3.8-3.3,.6-.6,1.2-1.1,2-1.2,1.1,0,2.2,.4,3.3,.4,.7,0,1.4,0,2.1-.3,1.4-.5,3.3-.7,4-2.2,0,0,0-.2,0-.3,0,0-.2,0-.3,0-1.2,.7-2.6,1.2-3.9,1.6-1.6,.5-3.2,.1-4.8-.1-2,0-3.3,1.9-4.7,3.2-2,1.9-4.2,3.5-6.9,4.2-2.2,.6-4.3,.6-6.6,.3-.6,0-1.1,0-1.7,0,0,0,0,0,0,.1,0,0,0,0,.1,0h0Z" style="fill:#8f5946;"/><path id="w" d="M123.3,219.7c.5-1.8,.8-3.6,1.1-5.5,.3-1.8,.7-3.4,1.1-5.2,1.2-5.4,2.5-10.2,4-15.4,1.1-3.7,1.9-7.3,3-11.1,.9-3.3,1.9-6.4,2-9.8,0-.2-.2-.4-.4-.4s-.4,.2-.4,.4c0,4-1.6,7.8-2.4,11.7-1.4,4.7-2.4,9.3-3.8,14.1-.7,2.4-1.1,4.7-1.7,7.1-.7,2.7-1.1,5.3-1.5,8-.3,2.1-.6,4.1-1.2,6.1h0c0,0,0,.1,0,.1,0,0,.1,0,.1,0h0Z" style="fill:#8f5946;"/><path id="x" d="M130.4,188.3c-.1,.8-.3,2,.7,2.2,1.8,.4,3.4-.9,4.6-2.1,1.3-1.4,2.3-2.9,3.3-4.5,2.3-3.5,4-7,5.1-10.9,0-.1,0-.2-.1-.3-.1,0-.2,0-.3,.1-.6,1.2-1.3,2.4-1.8,3.7-1,2.5-2.2,4.7-3.8,7.1-1.1,1.6-2,3.1-3.4,4.5s-2.4,2-3.9,1.7c-.3-.4-.5-.9-.4-1.4,0,0,0-.1,0-.1,0,0-.1,0-.1,0h0Z" style="fill:#8f5946;"/><path id="y" d="M126.7,222.9c0-.3,0-.6,.2-.9,0-.2,.1-.5,.2-.7,.1-.4,.2-.9,.3-1.3,1.4-5.2,2.7-10,4.1-15.2,.7-2.7,1.4-5.3,2.3-8,1.3-3.9,2.9-7.6,4.8-11.3,1-2,1.8-3.9,2.8-5.9,.7-1.4,1.4-2.7,1.9-4.2,0,0,0-.2-.1-.2,0,0-.2,0-.2,.1-.9,2-2,3.9-3.1,5.9-1.5,2.7-2.7,5.3-4,8.1-1.6,3.5-2.9,6.9-3.9,10.6-1.5,5.4-3,10.4-4.3,16-.6,2.4-.8,4.7-1.1,7.1,0,0,0,0,0,0,0,0,0,0,0-.1h0Z" style="fill:#8f5946;"/><path id="a`" d="M132.9,198.9c.3-.5,.5-1,1.1-1.2,1.8-.6,3.7-1.1,4.9-2.7,.9-1.2,.7-2.6,.4-3.9v-.2h-.2v.2c.2,.3,.2,.6,.2,.8-.2,1.6,.7,3.1,2.2,3.6,1.5,.5,3.4,0,4.2-1.4,.3-.6,.3-1.2,.3-1.8v0h0c1.1,0,2.2-.4,2.9-1.3,.7-1,.9-2.2,.3-3.3-.4-.7-1.1-1.1-1.6-1.6-.2-.2-.3-.4-.2-.7,0,0,0-.2,0-.2,0,0-.2,0-.2,0-.9,1.2,.9,2,1.5,2.9,.4,.6,.4,1.2,.2,1.8-.4,1.2-1.6,1.9-2.8,1.7h-.2c0,0-.1,0-.2,.1h0c0,0,0,0,0,.1h0c0,0-.1,.1-.1,.2h0s-.1,0-.1,.1c-.1,.5,0,.9-.2,1.4-.2,.6-.7,1.1-1.3,1.3-.9,.3-1.9,.2-2.7-.4-.5-.3-.8-.8-1.1-1.3-.4-.6-.3-1.3-.5-1.9v-.2c0,0-.1,0-.2,0s0,0,0,.1v.2c.3,1.2,.2,2.4-.6,3.4-1.1,1.4-2.7,2.1-4.3,2.7-.7,.3-1.1,1-1.5,1.6h0s0,.1,0,.1c0,0,.1,0,.1,0h0Z" style="fill:#8f5946;"/><path id="aa" d="M136.4,189.1c.3-.8,.8-2,1.9-1.7,1,.2,1.8,1,2.9,.7,.6-.2,1.1-.4,1.6-.8,.4-.3,.5-.8,.9-1,1.5,0,3.1-.2,4-1.5,1.2-1.8,0-3.7-1.4-4.7h0s-.1,0-.1,0c0,0,0,.1,0,.1,.9,.8,1.8,1.8,1.6,3.2-.4,2.1-2.6,2.4-4.3,2.4-.1,0-.3,.1-.4,.2-.7,.9-1.6,1.7-2.7,1.6-.9,0-1.8-.8-2.7-.4-.8,.3-1.1,1.1-1.4,1.8h0c0,0,0,.1,0,.1,0,0,.1,0,.1,0h0Z" style="fill:#8f5946;"/><path id="ab" d="M142.1,178.7c2.1-1.4,4.8-1.8,7.3-1.2,1.2,.3,2.2,.9,3.4,1.1,.8,.6,1.3,1.7,1,2.6h0c-.3,.3-.6,.6-.9,.6-.7,0-1.4,0-2.1,.3-1.3,.4-2.2,1.3-3,2.2,0,0,0,.1,0,.1,0,0,.1,0,.2,0,.9-.7,1.8-1.2,2.8-1.7,.9-.5,1.8-.3,2.8-.5,.2,0,.4-.2,.6-.3l.2-.2s0,0,0-.1v-.2c0,0,0,0,0,0,.3-1.2-.1-2.7-1.3-3.2-1.2-.5-2.3-.9-3.6-1.3-2.6-.7-5.3,.1-7.5,1.6,0,0,0,0,0,.1,0,0,0,0,.1,0h0Z" style="fill:#8f5946;"/><path id="ac" d="M145.5,192c.4,1.1,1.5,1.8,2.5,2.2,1.5,.6,3.1,.7,4.5-.2,1.2-.8,2.1-1.8,2.7-3.1,.4-.8,.7-1.7,1.5-2.2,1-.6,2.2-.5,2.9-1.6,.6-1,0-2.2-.5-3.1-1.1-1.6-2.8-2.8-4.7-3.1h0c0,0-.1,0-.1,0,0,0,0,.1,0,.1,0,0,.2,.2,.3,.2,1.5,.7,2.9,1.6,3.9,3,.4,.6,.8,1.3,.7,2.1,0,.6-.6,1-1.2,1.2-.6,.2-1.3,.3-1.8,.7-1,.9-1.5,2.1-2.1,3.3-.8,1.4-2.3,2.4-3.9,2.5-1.6-.3-3.6-.7-4.4-2.2,0,0,0,0-.1,0,0,0,0,0,0,.1h0Z" style="fill:#8f5946;"/><path id="ad" d="M133.2,197.9c.3,1,.7,1.9,1,2.9,.7,2.3-.2,4.5-.7,6.7-.6,2.5-.8,4.8-1.1,7.3-.3,2.6-1.1,5-2,7.4-.9,2.4-2.1,4.9-4.3,6.4-.2,.1-.2,.3-.1,.5,0,.2,.3,.2,.5,.1,2.4-1.6,3.5-4.2,4.5-6.8,1-2.5,1.4-5.1,1.8-7.7,.2-1.7,.4-3.3,.6-5,.3-2.3,1.3-4.3,1.5-6.5,.2-1.6-.4-3-1.1-4.4-.1-.3-.3-.6-.3-1h0c0,0,0,0-.1,0,0,0,0,0,0,.1h0Z" style="fill:#8f5946;"/><path id="ae" d="M125.9,205.6c0,1-.4,1.8-.6,2.8-.9,3.9-1.4,7.5-2,11.4-.7,4.4-1.4,8.7-2,13-1.6,8.2-2.3,16.6-2.5,24.9,0,.5,0,1.1,.2,1.6,0,0,0,.1,.1,0,0,0,.1,0,0-.1,.2-5,.4-9.9,.9-14.8,.2-2.3,.6-4.6,.9-6.9,.1-1.1,.4-2.1,.6-3.2,.8-5,1.3-9.8,2.2-14.6,.5-4.8,1.7-9.4,2.4-14.2h0c0,0,0,0-.1,0s0,0,0,.1h0Z" style="fill:#8f5946;"/><path id="af" d="M130.7,205.9c-.2,.7-.6,1.3-.8,2-.3,1.1-.4,2.2-.7,3.3-1.2,4.3-2.6,8.3-3.2,12.8-.9,6.7-1.2,13.2-1.9,19.8-.2,2.7-.4,5.3-.7,8-.2,1.9-.3,3.8-.4,5.8,0,1-.3,2-.2,3h0c0,.2,.2,.4,.4,.4s.4-.2,.4-.4c.4-3.8,.5-7.6,1-11.3,.2-5.5,1-11,1.4-16.6,.2-2.9,.4-5.8,.8-8.8,.2-1.8,.5-3.4,.9-5.1,.5-2.4,1.2-4.5,1.9-6.9,.6-2,.7-4,1.3-6,0,0,0-.1,0-.1,0,0-.1,0-.1,0h0Z" style="fill:#8f5946;"/><path id="ag" d="M119.5,245.4c0,1.3,0,2.5,0,3.8-.2,2.7-.9,5.4-.4,8.1,0,3.1,0,6.1-.1,9.2-.1,2.3,.1,4.5,0,6.8,0,0,0,0,.1,0s.1,0,.1,0c0-4.8,.4-9.5,.2-14.2,0-1.8-.4-3.6-.2-5.4,.3-2.8,.6-5.5,.5-8.3h0c0,0,0-.1,0-.1s0,0,0,0h0Z" style="fill:#8f5946;"/><path id="ah" d="M124.5,243.6c0,.2,0,.4,0,.6-.7,2.8-.6,5.5-1,8.3-.3,2-.5,3.8-.6,5.8-.2,2,0,4,0,6-.1,2.7-.4,5.3,0,8.1,0,.5,.1,1.1,.2,1.6,0,0,0,.1,.1,.1s.1,0,.1-.1c.2-3.2,.3-6.4,.5-9.5,0-1.9-.2-3.8,0-5.6,.2-4.3,.5-8.5,.9-12.9,0-.8,.2-1.6,.1-2.4h0c0,0,0-.1,0-.1s0,0,0,.1h0Z" style="fill:#8f5946;"/><path id="ai" d="M138.5,194.6c0,.4-.2,.8,0,1.2,.4,1.4,1,2.7,.8,4.2-.3,2.2-1.5,4.1-2,6.3-.6,2.4-.7,4.8-1.1,7.2-.5,2.8-1.1,5.5-2.2,8-.9,2-1.5,4.1-3.2,5.6-1.1,.9-2.5,1.2-3.8,1.3h0c-.2,0-.4,.2-.4,.4s.2,.4,.4,.4c1.8,0,3.6-.6,4.8-2,1.1-1.2,1.5-2.7,2.2-4.1,1.4-3.2,2.2-6.5,2.7-10,.4-2.5,.5-4.9,1.2-7.3,.8-2.4,2.2-4.6,1.9-7.2-.1-1.1-.8-1.9-1.1-3,0-.3,0-.6,0-.9,0,0,0-.1,0-.1,0,0-.1,0-.1,0h0Z" style="fill:#8f5946;"/><path id="aj" d="M143.3,195.2c0,0,0,.1,0,.2,.5,2,.1,3.9-.3,5.8-.2,1.1-.7,2.1-1.1,3.2-.9,2.3-1,4.7-1.6,7.1-.8,2.9-1.7,5.6-2.8,8.3-1.3,3.2-3.8,5.7-6.7,7.3h0c-.2,0-.2,.3-.1,.4,0,.2,.3,.2,.4,.1,3.4-1.3,5.6-4.4,6.8-7.8,1-2.9,1.9-5.7,2.7-8.7,.7-3,1-5.9,2.4-8.6,.8-1.5,1.1-3.1,1.2-4.8,0-1,.2-2.1-.5-2.9h0c0-.1-.2-.2-.3-.1-.1,0-.2,.2-.1,.3h.1Z" style="fill:#8f5946;"/><path id="ak" d="M129.2,228.6c1.9-.7,3.6-1.9,5.7-2.1,1.3-.2,2.5-.5,3.6-1.1,1.7-.9,2.8-2.5,3.6-4.3,1.6-3.8,2.4-7.8,3.7-11.8,1-2.9,2.6-5.4,3.3-8.6,.3-1.4,.5-2.7,.4-4,0-.9-.2-1.9-.7-2.7h0c0-.1-.2-.1-.3,0-.1,0-.1,.2,0,.3,1.1,2.4,.8,5.2,0,7.7-.8,2.5-2.3,4.7-3.2,7.2-1,3-1.8,6-2.9,9-.8,2.1-1.5,4.4-3.4,5.9-1.3,1.1-2.8,1.5-4.5,1.9-1.6,.3-3,1-4.4,1.8-.2,0-.3,.2-.4,.4-.2,.1-.4,.2-.6,.2,0,0,0,0,0,.1,0,0,0,0,.1,0h0Z" style="fill:#8f5946;"/><path id="al" d="M133.8,226.6c1.2-.4,2.5-.5,3.8-.5s1.6-.1,2.3-.6c2.7-1.5,4.6-3.6,6.2-6.2,.3-.5,.6-1,.9-1.5,1.6-3.1,2.9-6.2,4.2-9.4,1-2.3,1.5-4.7,1.9-7.2,.3-1.7,1.2-3.2,1.4-4.9,.2-1.6,.5-3.1,0-4.7h0c0-.2-.2-.2-.4-.2-.2,0-.2,.2-.2,.4,.2,1.4,.4,2.8,.1,4.3-.5,2.4-1.4,4.4-1.8,6.8-.4,2.2-1,4.3-2,6.3-1.7,3.2-2.9,6.3-4.9,9.4-1.6,2.6-3.5,4.8-6.2,6.2-.5,.3-1.1,.4-1.7,.4-1.3,0-2.6,.5-3.8,1h0c0,0,0,0,0,.1,0,0,0,0,.1,0h0Z" style="fill:#8f5946;"/><path id="am" d="M142.1,223.7c1.3-1.5,3.3-1.9,5-2.8,3.2-1.8,4.7-5,6.3-8.1,1.2-2.2,2.4-4.3,3.4-6.6,.6-1.5,.9-3.1,1.2-4.8,.6-3.2,1.7-5.9,2.3-9.1,.3-1.4,.2-2.7-.2-4-.1-.4-.2-.7-.5-1,0-.2-.3-.2-.5-.1-.2,0-.2,.3-.1,.5,1.1,2.1,1,4.6,.4,6.8-1.1,4-1.8,7.9-3.4,11.7-1.1,2.7-2.6,5.1-4,7.6-1,1.9-2,3.6-3.5,5.2-1.4,1.4-3.2,1.9-4.8,2.8-.6,.6-1.2,1.2-1.7,1.9h0s0,.1,0,.1c0,0,.1,0,.1,0h0Z" style="fill:#8f5946;"/><path id="an" d="M143.1,222.7c1.4-1,3.1-1.2,4.9-1.5,2.3-.5,4.1-1.6,5.9-3,2.9-2.3,4.9-5.2,6.6-8.3,1.6-3.6,3-7.2,3.7-11.2,.3-1.8,.3-3.4,.5-5.2,.2-1.8,.1-3.6,0-5.4-.1-2.3-1.1-4.8-3.7-5.2-1.3-.2-2.6-.5-3.8-.8h0c-.2,0-.4,0-.4,.2,0,.2,0,.4,.2,.4,1.3,.5,2.6,.6,4,.9,1.5,.3,2.5,1.5,2.9,2.8,1,3.2,.6,6.4,.2,9.7-.4,3.2-1.2,6.3-2.4,9.3-1.5,3.9-3.4,7.5-6.4,10.5-1.4,1.5-3,2.7-4.8,3.6-1.7,.9-3.6,1.1-5.4,1.8-.7,.3-1.4,.8-2,1.2h0s0,0,0,.1c0,0,0,0,.1,0h0Z" style="fill:#8f5946;"/><path id="ao" d="M142.7,223.2c1.3-1.4,3.2-2.1,5.1-2,1.3,.4,2.3,1.3,3.5,1.8,2.1,.8,4.5,.5,6.5-.5,2.6-1.3,4-3.9,5.1-6.5,1.3-2.9,3.2-5.5,4-8.7,1-3.8,1.6-7.4,1.8-11.3,.2-2.9,.6-5.9-.6-8.7-.7-1.6-2.5-2.6-4.3-2.4-.1,0-.2,0-.4,0h0c-.2,0-.4,.1-.4,.3,0,.2,.1,.4,.3,.4,.3,.1,.7,0,1.1,0,1,0,2,.3,2.6,1.1,1.2,1.4,1.2,3.4,1.5,5.2,0,4.6-.4,9.2-1.8,13.7-.7,2.2-1.4,4.3-2.6,6.2-1.6,2.6-2.5,5.3-4.3,7.8-2,2.6-5.3,3.5-8.3,2.8-1.6-.7-3-1.9-4.9-1.6-1.7,.3-3.1,1.1-4.2,2.3h0s0,0,0,.1c0,0,0,0,.1,0h0Z" style="fill:#8f5946;"/><path id="ap" d="M158.1,222c.3-.2,.7-.4,1.1-.6h.1c.5,.3,.8,.8,1.4,.9,.6,.1,1.2,0,1.7-.1,3.5-1.3,6-4.1,7.6-7.3,1.5-3,2.1-6.4,2.5-9.7,.8-3.9,1.5-7.7,.8-11.8-.4-2.2-1.2-4.3-2.7-6-.8-.8-1.9-1.4-3-1.2-.1,0-.2,.1-.2,.2s.1,.2,.2,.2c2.8,0,4.1,2.8,5,5,.8,3.1,.9,6.3,.4,9.5-.4,2.6-1,4.9-1.4,7.4-.6,1.7-1,3.4-1.7,5.2-.5,1.4-1.4,2.5-2.2,3.7-1.3,1.9-3.1,3.1-5,4-.6,.3-1.4,.5-2.1,.2-.3-.2-.6-.4-.9-.5h0s0,0-.2,0h-.2c-.4,.2-.8,.5-1.2,.8h0s0,0,0,.1c0,0,0,0,.1,0h0Z" style="fill:#8f5946;"/><path id="aq" d="M162.7,221.8c.3-.3,.7-.6,1.1-.8,1.1-.5,2.4-.2,3.6-.4,.9,0,1.8-.4,2.6-.7,2.9-1,4.6-3.6,5.8-6.2,.9-3,1.2-6.1,1.5-9.2,.2-2.5,.1-4.9-.3-7.3-1.1-3.5-2.1-7.3-5.1-9.8-.7-.6-1.7-.8-2.6-.9h0c-.1,0-.2,0-.2,.2,0,.1,0,.2,.2,.2,1.3,0,2.5,.6,3.4,1.7,2,2.5,3.1,5.3,3.9,8.4,.6,2.8,.6,5.6,.2,8.4-.5,4-.8,7.9-3.3,11.3-1.5,2-3.7,3-6,3.4-1,0-2.1,0-3.1,.3-.7,.2-1.2,.7-1.7,1.2,0,0,0,0,0,.1,0,0,0,0,.1,0h0Z" style="fill:#8f5946;"/><path id="ar" d="M170.2,219.6c1-.3,1.9-.9,2.7-1.5,.7-.6,1.6-.7,2.4-1,5.8-2.1,7.2-9,7-14.5-.4-2.2-.6-4.4-1.1-6.6-.1-.6-.3-1.1-.5-1.6-1-1.9-1.6-4-3.2-5.6-1.5-1.6-3.8-1.9-5.9-1.8,0,0-.2,0-.2,0,0,0,0,.2,0,.2,.1,0,.2,.1,.3,.1,1.9,0,3.9,.2,5.3,1.5,1.6,1.5,2.3,3.6,3,5.6,.9,2.4,1,4.9,1.4,7.3,.6,5.8-1.2,13.6-7.8,14.9-1.2,.5-2.1,1.6-3.2,2.3-.2,.1-.3,.2-.5,.2,0,0,0,0,0,.2,0,0,0,0,.1,0h0Z" style="fill:#8f5946;"/><path id="as" d="M173.4,187.3c1.8,.4,3.8,.8,5.5-.5,1-.8,2.3,0,3,.9,1.2,1.7,2.1,3.4,2.7,5.3,.7,2.2,1.2,4.5,1.3,6.8,0,2.9,.2,5.8-.6,8.7-.6,2.1-1.8,3.9-3.7,5.1-1,.6-2.1,.8-3.2,.9h0c-.1,0-.3,.1-.3,.3s.1,.3,.3,.3c1.4,.2,2.8-.4,3.9-1.2,2.2-1.7,3.4-4.1,3.8-6.9,.2-1.5,.1-2.9,.2-4.4,0-1,0-1.9,0-2.9-.3-2.4-.8-4.7-1.5-6.9-.5-1.5-1.3-2.9-2-4.3-.3-.7-.8-1.4-1.4-1.9-1-.8-2.4-.8-3.3,.1-1.5,.8-3.1,.6-4.7,.4h0c0,0-.1,0-.1,0,0,0,0,.1,0,.1h0Z" style="fill:#8f5946;"/><path id="at" d="M179.2,186.6c1,0,1.9,0,2.8-.5,1.1-.3,2.4,.2,3,1.2,.6,1.1,1,2.2,1.6,3.2,.6,1,1.2,1.9,1.6,3,1.4,4.1,2.6,8.7,.7,12.9-.6,1.3-2,2.1-3.4,2.4,0,0,0,0,0,0h0c-.2,0-.3,.2-.3,.4,0,.2,.2,.3,.4,.3,1.7,0,3.2-1.3,3.8-2.8,1.6-3.5,.8-7.3-.1-10.9-.4-1.5-.8-2.8-1.7-4.1-1.2-1.8-1.6-3.9-3.1-5.4-.5-.5-1.3-.7-2-.7-.8,0-1.4,.5-2.2,.7-.4,0-.8,0-1.2,.2h0c0,0,0,0,0,.1,0,0,0,0,.1,0h0Z" style="fill:#8f5946;"/><path id="au" d="M181.6,186.1c.7-.1,1.4-.2,2.1-.5,.5-.2,.9-.7,1.5-.8,.6-.2,1.2-.2,1.7,0,2,1,3.4,2.7,4.5,4.7,1.2,2.2,2.2,4.4,2.5,6.9,.3,2,.5,4-.6,5.8-1.1,1.9-3.3,2.5-4.2,4.4h0c0,0,0,.2,0,.3,0,0,.2,0,.3,0,1.4-1.6,3.3-2.5,4.5-4.4,.5-.8,.7-1.8,.8-2.7,.3-3.8-1.3-7.3-3-10.6-.9-1.7-2.2-2.9-3.7-4.2-.5-.4-1.1-.7-1.7-.8-1.1-.2-1.9,.3-2.7,.9-.6,.4-1.3,.5-2,.6h0c0,0,0,0,0,.1,0,0,0,0,.1,0h0Z" style="fill:#8f5946;"/><path id="av" d="M183,185.7c1.3-.4,2.4-1.3,3.6-2.2,1.3-.9,2.9-.5,4.2,.3,2.7,1.6,5.2,3.7,6.2,6.7,.4,3.3-.5,6.8-2.8,9.3h0c0,.1,0,.3,0,.4,.1,0,.3,0,.4,0,1.4-1.2,2.2-2.8,2.6-4.6,.4-1.8,.7-3.6,.1-5.3-.5-1.5-1.5-2.8-2.7-3.9-1.8-1.7-3.6-3.4-6.2-3.7-.9-.1-1.8,.1-2.5,.8-1,.9-1.9,1.8-3.1,2.1,0,0,0,0,0,.1,0,0,0,0,.1,0h0Z" style="fill:#8f5946;"/><path id="aw" d="M185.8,183.9c.5-.3,1-.7,1.6-.8,1.6-.2,3-.8,4.5-1.3,1.2-.4,2.5-.3,3.8-.1,2.2,.4,3.4,2.5,3.7,4.6,.4,3.3-1.5,6-2.6,8.8-.3,.6-.5,1.3-.6,2h0c0,.1,0,.2,.1,.2,.1,0,.2,0,.2-.1,1.3-2.8,3-5.6,3.5-8.7,0-1.3,0-2.7-.4-3.9-.6-1.3-1.5-2.6-2.8-3.2-1.6-.7-3.3-.6-4.9-.1-.9,.2-1.7,.7-2.6,1-1.2,.4-2.5,.7-3.5,1.5,0,0,0,0,0,.1,0,0,0,0,.1,0h0Z" style="fill:#8f5946;"/><path id="ax" d="M191.2,181.9c2.2-.6,4.1-1.7,5.9-3.1,1.1-.9,2.9-1.1,3.8,.2,2.1,3,.3,6.3-1.3,9,0,.1,0,.3,0,.4h0c0,.1,0,.2,.2,.3,.1,0,.2,0,.3-.2,0-.1,0-.3,.2-.4,1.4-1.8,2.3-3.8,2.3-6,0-1.2-.5-2.4-1.2-3.5-1-1.5-3.1-1.3-4.4-.3-1.8,1.4-3.5,2.7-5.7,3.3h0s0,0,0,.1c0,0,0,0,.1,0h0Z" style="fill:#8f5946;"/><path id="ay" d="M145.9,168.6c-.5,1.8-.3,3.7-.2,5.5,.1,1.2,.6,2.5,1.8,2.9,.1,0,.2,0,.3-.1,0-.1,0-.2-.1-.3-.8-.4-1.2-1.3-1.4-2.2-.4-2-.7-3.9-.2-5.8,0,0,0-.1,0-.1,0,0-.1,0-.1,0h0Z" style="fill:#8f5946;"/><path id="b`" d="M148.7,167.5c-.7,2-.6,4-.2,6.1,.4,1.7,1,3.6,2.7,4.4,.1,0,.2,0,.3-.1,0-.1,0-.2-.1-.3-1.3-.9-2.1-2.4-2.4-4-.4-2-.7-4,0-6,0,0,0-.1,0-.1,0,0-.1,0-.1,0h0Z" style="fill:#8f5946;"/><path id="ba" d="M151.4,172.2c.4,2.2,.3,4.8,1.8,6.6,0,0,.2,.1,.3,0,0,0,.1-.2,0-.3-1.3-1.8-1.5-4.2-2-6.3,0,0,0,0-.1,0,0,0,0,0,0,.1h0Z" style="fill:#8f5946;"/><path id="bb" d="M155.1,175.7c.1,.3,.4,.6,.4,1,.3,1.9-.1,4.3,1.6,5.7,.1,0,.2,0,.3,0,0-.1,0-.2,0-.3-.1,0-.2-.2-.3-.3-1.2-1.7-.9-3.6-1.4-5.5,0-.2-.2-.4-.3-.6,0,0,0,0-.1,0,0,0,0,0,0,.1h0Z" style="fill:#8f5946;"/><path id="bc" d="M158.7,177.7c.3,.2,.5,.4,.6,.7,.5,1.5,.4,3.4,1.7,4.5,0,0,.2,0,.3,0,0,0,0-.2,0-.3-1.2-1.1-1.2-2.9-1.8-4.4-.1-.3-.4-.5-.7-.7h0s-.1,0-.1,0c0,0,0,.1,0,.1h0Z" style="fill:#8f5946;"/><path id="bd" d="M162.5,179.1c.2,.1,.3,.3,.4,.6,.3,1.8,.2,3.8,1.3,5.3,.7,.4,1.6,.6,2.3,.2,0,0,0,0,0-.1,0,0,0,0-.1,0-.6,.2-1.3,.1-1.9-.3-.9-1.4-.9-3.1-1.3-4.7,0-.4-.2-.8-.5-1.1h0s-.1,0-.1,0c0,0,0,.1,0,.1h0Z" style="fill:#8f5946;"/><path id="be" d="M164.8,179.9c.3,.2,.7,.3,.8,.7,.4,2,.3,4.3,2,5.7,.4,.3,.8,.2,1.3,.3,0,0,.1,0,.2,0s0-.1,0-.2c-2.5-.7-2.5-3.6-3.1-5.7-.1-.5-.6-.8-1.1-1h0s-.1,0-.1,0c0,0,0,.1,0,.1h0Z" style="fill:#8f5946;"/><path id="bf" d="M167.8,180.3c.2,.1,.3,.2,.4,.4,.3,.8,.4,1.7,.6,2.5,.4,1.2,.9,2.4,1.8,3.3,.7,.8,2,1.1,2.8,.4,0,0,.1-.1,.1-.2,0,0-.1-.1-.2-.1-.8,.2-1.7,0-2.3-.6-1.4-1.4-1.8-3.2-2.3-5-.1-.4-.4-.7-.7-.9h0s-.1,0-.1,0c0,0,0,.1,0,.1h0Z" style="fill:#8f5946;"/><path id="bg" d="M171.1,179.2c-.3,2-.1,4.1,.8,6,.6,1.4,1.9,2.4,3.5,2.4,0,0,.1,0,.1-.1s0-.1-.1-.1c-3.4-.9-4.6-5-4.1-8.1,0,0,0-.1,0-.1,0,0-.1,0-.1,0h0Z" style="fill:#8f5946;"/><path id="bh" d="M172.2,175.3c.1,.3,.2,.5,.3,.8,.4,1.4,.3,2.8,.6,4.2,.5,2.1,.9,4,2.3,5.7,.8,1,2.1,1.1,3.2,.6,0,0,.1,0,0-.1,0,0,0-.1-.2,0-1,.3-2.1,0-2.7-.9-1.2-1.6-1.8-3.4-2.3-5.3-.5-1.7-.5-3.4-1.1-5.1h0c0,0,0,0-.1,0,0,0,0,0,0,.1h0Z" style="fill:#8f5946;"/><path id="bi" d="M176,179.7c.2,.3,.5,.7,.6,1.1,.4,1.9,.5,4,2.1,5.2,1.2,.5,2.5,.4,3.7-.1,0,0,0,0,0-.1,0,0,0,0-.1,0-1.2,.3-2.6,.6-3.6-.3-1.4-1.3-1.4-3.4-2.1-5.1,0-.2-.2-.4-.4-.6h0s0,0-.1,0c0,0,0,0,0,.1h0Z" style="fill:#8f5946;"/><path id="bj" d="M180.2,181.3c.2,1.4,.7,2.8,1.9,3.8,.6,.5,1.5,.5,2.2,.1,0,0,0,0,0-.1,0,0,0,0-.2,0-.6,.2-1.3,0-1.9-.4-1.1-.8-1.7-2.1-1.9-3.4h0c0,0,0,0-.1,0,0,0,0,0,0,.1h0Z" style="fill:#8f5946;"/><path id="bk" d="M184.3,181.3c.4,.6,.5,1.3,.8,2,.2,.3,.5,.6,.9,.5,0,0,.1,0,.1-.1,0,0,0-.1-.1-.2-.3,0-.5-.2-.6-.5-.4-.6-.6-1.2-.9-1.8,0,0,0,0-.1,0,0,0,0,0,0,.1h0Z" style="fill:#8f5946;"/><path id="bl" d="M187.2,180.5c.5,.8,.9,2.2,2.1,2,0,0,.1,0,.1-.1,0,0,0-.1-.2-.1-1,0-1.4-1.1-1.9-1.8h0s0,0-.1,0c0,0,0,0,0,.1h0Z" style="fill:#8f5946;"/><path id="bm" d="M190.6,179.1c.4,.8,.5,2,1.5,2.3h.2c0,0,0,0,.1,0h0c.1,0,.2-.1,.3-.1,0,0,.1-.1,0-.2,0,0-.1-.1-.2,0,0,0-.1,0-.2,0h-.3c-.8-.3-1-1.3-1.4-2h0c0,0,0,0-.1,0,0,0,0,0,0,.1h0Z" style="fill:#8f5946;"/><path id="bn" d="M192.9,178.4c.5,.8,1,2,2.2,1.9,0,0,.2,0,.2-.2s0-.2-.2-.2c-1,0-1.5-1-2-1.6h0s0,0-.1,0c0,0,0,0,0,.1h0Z" style="fill:#8f5946;"/><path id="bo" d="M195.9,176.4c.7,.5,.9,1.5,.6,2.3h0c0,0,0,.2,.1,.2,0,0,.2,0,.2-.1,.4-.9,0-1.9-.7-2.5,0,0,0,0-.1,0,0,0,0,.1,0,.1h0Z" style="fill:#8f5946;"/><path id="bp" d="M197.4,173.2c0,.8-.6,2,.4,2.4,1,.5,2.3,1,2.4,2.3,0,.1,.1,.2,.2,.3,0,0,.1,0,.2,0,0,0,0-.2,0-.2,0-1.5-1.1-2.6-2.5-2.8-.8-.4-.5-1.4-.5-2.1h0c0,0,0-.1-.1-.1s0,0,0,.1h0Z" style="fill:#8f5946;"/><path id="bq" d="M115.9,86.4c0-2.3,2-3.8,3.6-5.2,1.2-1.1,3-2.2,2.7-4-.3-1.9-2-2.9-3.1-4.5-.3-.4-.4-.9-.3-1.4,.5-2.8,2-5.8,5.1-6.2,3.5-.5,6.8-.4,10.4-1.1,4-.8,7.6-1.4,11.4-2.7,6.6-2.2,11.9-6.4,17.9-9.9,.4-.2,.7-.4,1.1-.4h.3c.3,.2,.4,.6,.2,.9-1.2,2.1-3.1,3.3-5,4.8-.9,.8-1.7,1.8-1.4,3.1h0l.5-.2h-.1c-1.2-.7-2.6-.4-3.8-.1-2.5,.4-4.7,1.6-6.7,3.2-2.6,2-4.9,4.2-5.8,7.4-.6,1.9-.3,3.8-.4,5.8h.1c-.2,0-.4,0-.6,0-3.5-1.4-7.3-.9-10.8,.2-6.5,2.8-10.3,9.4-12.3,15.9-1.1,6.5-.2,13.3,3.4,19.2,.1,.2,.1,.5,0,.7-1.2,1.7-2.3,3.2-2.4,5.2-.1,2,.5,4.5-1.4,6-.6,.5-1.4,.5-2.1,.5-.2,0-.3,0-.5,.1-.2,0-.3,.2-.3,.4,0,.2,.2,.3,.4,.3,1.2-.2,2.6-.1,3.5-1.3,1.4-1.9,.9-4,1.1-6.1,.2-1.6,.8-2.9,2-4.1,.5-.5,.7-1.2,.4-1.7-3.3-5.9-4.5-12.5-3.3-19,1.8-5.6,4.5-11,9.8-14.3,1.5-.9,3-1.4,4.7-1.8,2.5-.4,5-.6,7.4,.4,.3,.1,.6,.2,1,0h.3c0,0,.1,0,.2-.1l.2-.4h0c0-1.8-.2-3.5,.3-5.3,.4-1.5,1.1-2.9,2.1-4.1,3.3-3.8,7.9-7.1,13.1-6.5l.4,.2c0,0,.1,0,.2,0,.2,0,.3-.1,.3-.3v-.3c0-.2-.2-.5,0-.7,1.1-2.3,3.7-3.1,5.3-5.1,.6-.8,1.7-1.9,.8-2.9l-.4-.3s-.1,0-.2,0h-.4c-.5,0-1,.2-1.5,.5-2.8,1.4-5.1,3.2-7.9,5-3.2,2-6.4,3.5-9.7,4.9-7.1,2.1-14.3,3.3-21.7,3.8-3.5,.2-5.4,3.6-5.8,6.8,0,.6,0,1.3,.4,1.8,1.1,1.8,4.2,3.2,2.8,5.6-1.8,2.8-5.8,4.2-5.6,7.8,0,0,0,.1,.1,.1s0,0,0-.1h0Z" style="fill:#8f5946;"/><path id="br" d="M116.4,65c2.3,.3,4.5,.2,6.8,0,.8,0,1.5-.2,2.3-.3,3.6-.5,7-.7,10.5-1.4,0,0,0,0,0-.1,0,0,0,0-.1,0-3.5,.7-7,.8-10.5,1.3-3.1,.4-6,.4-9.1,.4,0,0-.1,0-.1,.1s0,.1,.1,.1h0Z" style="fill:#8f5946;"/><path id="bs" d="M115.6,52.2c2,.9,4.1,.7,6.2,.6,1.9,0,3.7-.2,5.6-.6,3-.5,5.7-1.1,8.5-2.1,3.2-1.2,6.1-2.7,9.2-4.1,1.8-.8,3.3-1.6,5-2.8,1.6-1.1,2.9-2.2,4.3-3.4,0,0,0-.1,0-.1,0,0,0,0-.1,0-2.1,1.8-4.3,3.4-6.8,4.6-2.1,1-4.1,1.8-6.2,2.8-1.8,.9-3.6,1.8-5.5,2.5-2.9,1.1-5.7,1.6-8.7,2.2-2.5,.4-4.9,.6-7.3,.6-1.3,0-2.7,.1-4-.3h0c0,0-.1,0-.1,0,0,0,0,.1,0,.1h0Z" style="fill:#8f5946;"/><path id="bt" d="M172.4,117.3c-.5-2,.3-3.8,1-5.7,2.7-7.7,3.3-15.7,2.5-23.7-.2-1.8-1.5-3.2-2.5-4.8-.2-.5-.5-1.2-.2-1.7,1.2-1.3,3.3-2,4.2-1,3.8,4.2,3,10.3,2.5,15.8-.8,7.8-3.3,15-6.2,22.3-.2,.5-.8,.8-1.2,.5-.3-.5,0-1.2-.2-1.8h0Z" style="fill:#d6d3b8;"/><g id="bu"><path d="M116.4,273.8h-7.4l-.2-11.4v-1.4l-.6-7.9-.8-9.5-.6-7.3s-.3-3.8-.7-7.2c0,0,0-.1,0-.2-.2-2-.4-3.8-.5-4.8,0-.4-.1-.9-.2-1.4,0,0,0,0,0,0,0,0,0,0,0-.1-.3-1.8-.8-4.3-1.4-6.4,0-.1,0-.3-.1-.4-.2-1-.5-1.8-.6-2.5,0-.2-.1-.4-.2-.6,0,0,0-.2,0-.2,0,0,0-.2,0-.3,0,0,0-.2,0-.3,0-.2-.1-.4-.2-.7,0-.1,0-.3,0-.4-.3-1.1-.7-2.5-1.1-4h0c-.9-3.3-1.8-6.8-2.3-8.1-.2-.5-.5-1.3-.8-2.1,0,0,0,0,0,0-.9-2.4-2.1-5.4-2.1-5.4l-1.5-3.2s0,0,0,0l-.2-.4h0l-1.4-2.9-1-2.2s0,0,0,0c0,0,0-.2-.1-.2-.3-.5-.8-1.6-1.4-2.9,0,0,0-.1,0-.2-.6-1.3-1.3-2.7-1.8-3.7-.1-.3-.3-.6-.4-.9,0-.2-.1-.3-.2-.5-.1-.3-.2-.7-.2-1,0-.9,.3-1.8,.6-2.4,.4-.8,3-3.9,3.9-4.9,.9-1,2.6-5.2,3.1-6.8,.4-1.3,.5-4.2,.5-6.2h0s0,0,0,0c0-.5,0-.9,0-1.3-.1-1.5-1.9-6-3.2-8,0,0,0,0,0,0,0,0,0,0,0-.1-1-1.5-2.8-3.6-4-4.7,0,0-.1-.1-.2-.2-.2-.2-.3-.2-.4-.3-1.1-.6-1.4,0-1.3,.8,0,0,0,0,0,0,0,0,0,0,0,0,0,.5,.4,1,.7,1.5,0,0,0,0,0,0,.1,.2,.3,.5,.4,.7,.4,.8,2,3.5,3.4,6.5h0c.1,.4,.3,.6,.4,.9,0,.1,.1,.3,.2,.4,0,0,0,.2,.1,.3,0,0,0,.2,.1,.3,0,0,0,.2,0,.2,.3,.8,.5,1.6,.6,2.4h0c.3,1.5,.4,2.7,.4,3.7h0c0,.3,0,.6,0,.8,0,0,0,0,0,0,0,.2,0,.4,0,.5,0,.5-.1,1-.2,1.6,0,0,0,0,0,0-.3,1-.7,2.1-.9,3,0,0,0,0,0,0,0,.2-.2,.5-.2,.7,0,0,0,.2-.1,.3,0,.2-.2,.3-.3,.5-.5,.6-1.2,1.3-1.9,2,0,0,0,0,0,0-.1,0-.2,.2-.3,.2-.1,0-.2,.2-.3,.3-.1,0-.2,.2-.3,.3-.4,.3-.8,.6-1,.8,0,0-.1,0-.2,0-.3,.1-.7,.2-1.2,.2h0c-.8,0-1.9,0-2.6-.2,0,0,0,0,0,0-.4,0-.7-.2-.8-.2-.8-.4-1.4-.8-2.2-1.1,0,0,0,0-.1,0h0c-.2,0-.3,0-.4,0,0,.2,0,.4,0,.7,0,0,0,0,0,0,0,0,0,.1,0,.2,0,.2,0,.3,.2,.4,0,.2,.2,.3,.4,.6,.3,.5,.9,1.3,.8,2.2h0c0,0,0,.1,0,.1,0,0,0,0,0,0-.4,.9-1.9,2.7-3,3.8-.4,.4-1.1,.9-2,1.4,0,0,0,0,0,0-1,.7-2.3,1.4-3.5,2.1,0,0,0,0,0,0-1,.6-2,1.1-2.7,1.4-.2,.1-.4,.2-.7,.3t0,0c-.1,0-.2,0-.3,0h0c0,0-.2,0-.3,0,0,0-.1,0-.2,0-1.8,.4-4,.5-5.5,.5h0c-.4,0-.8,0-1,0h0c-.1,0-.2,0-.3,0-.3,0-.5-.2-.8-.5,0,0,0,0,0-.1,0,0,0,0,0,0,0,0,0,0,0-.1,0,0,0-.1-.1-.2t0,0c-.3-.5-.6-1.1-.6-1.6,0-.2,0-.4,0-.6h0c0-.4,0-.8,0-1.1,0,0,0,0,0-.1,0-.3,.1-.6,.2-.8,0-.1,0-.2,0-.3,0,0,0-.2,0-.3,0-.3,.1-.6,.2-.9h0c0-.2,0-.4,0-.6h0c0-.2,0-.4,0-.6h0c0-.1,0-.3,0-.4,0-.7-.9-.2-1.2,0-.4,.2-.3,.8-.4,1.6,0,0,0,.1,0,.2h0c0,.7-.2,1.9-.4,2.8,0,.1,0,.2,0,.3,0,.1,0,.3-.2,.4,0,0,0,0,0,0-.3,.5-.7,.9-1.2,1.3h0c-.5,.4-.9,.7-1.3,.9-.2,0-.5,.2-.9,.4h0c-1,.3-2.4,.8-3.7,1,0,0,0,0,0,0-.7,.2-1.4,.2-1.9,.2-1.8,0-7.2-1.9-7.2-1.9,0,0-1.6-.8-3.1-1.5-.2,0-.4-.2-.6-.3-.8-.4-1.4-.7-1.7-.9,0,0,0,0,0,0,0,0,0,0,0,0-.3-.2-.6-.5-.9-.8,0,0,0,0,0,0,0,0,0-.1-.1-.2,0,0-.2-.2-.2-.3,0,0,0-.1-.1-.2-.2-.3-.4-.5-.5-.8h0c0-.1,0-.2-.1-.3,0-.2,0-.3,0-.6,0,0,0,0,0,0,0-.2,0-.3,.2-.5,0,0,0,0,0,0,.1-.4,.3-.7,.5-1.1,0,0,0-.2,.1-.2,0-.1,.2-.3,.3-.4,.2-.2,.3-.4,.5-.5t0,0s0,0,0,0c0,0,0,0,0,0,.3-.3,.6-.5,.9-.7,.1,0,.2-.1,.3-.2,0,0,0,0,0,0,.3-.2,.6-.4,.8-.5,0,0,.1,0,.2,0,.1,0,.3-.1,.4-.2,.3-.1,.6-.2,.9-.3h0c.6-.2,1.3-.4,1.7-.5,.2,0,.4,0,.6-.1,.4-.1,.9-.2,1.2-.3h0c.3,0,.5-.1,.5-.1,0,0,0,0-.2,0,0,0-.1,0-.2,0-.8-.1-2.7-.5-3.4-.8-.2,0-.4-.1-.6-.2t0,0c-.5-.2-.9-.3-1.1-.4,0,0,0,0,0,0h0v.3c0,.1,.1,.2,.2,.4,0,0,0,0,0,0,.1,.5,.2,1.2,.2,1.6,0,.3-.3,.6-.6,.9h0c-.2,.2-.4,.3-.6,.5,0,0,0,0,0,0,0,0-.1,0-.2,.2-.2,.2-.5,.3-.7,.4-.1,0-.3,.1-.5,.2,0,0,0,0,0,0,0,0,0,0,0,0-.2,0-.5,.2-.9,.3,0,0,0,0,0,0,0,0,0,0,0,0h0c-.1,0-.2,0-.3,0-.1,0-.2,0-.3,0,0,0-.2,0-.2,0-.6,.1-1.2,.3-1.7,.3-.9,.2-3.2-.5-4.8-1,0,0,0,0-.1,0-.3,0-.6-.2-.8-.2-.3-.1-.8-.3-1.3-.6,0,0,0,0,0,0-1.4-.9-3.3-2.2-4.3-2.9h0c-.2-.1-.3-.2-.4-.3-.6-.4-1.7-2.1-2.5-3.6,0,0,0,0,0-.1-.1-.2-.2-.5-.4-.7,0,0,0,0,0-.1-.3-.5-.5-1-.6-1.4-.5-1.3,0-3.8,.5-4.8,.1-.3,.3-.6,.5-1,.1-.2,.3-.4,.4-.6,.6-.9,1.4-1.9,2-2.4,.3-.2,.6-.4,.9-.6h0c.4-.2,.8-.4,1.3-.5,.4-.1,.8-.2,1.2-.3,0,0,.2,0,.3,0,0,0,0,0,0,0,.4,0,.9,0,1.4,0h0c.8,0,1.5,0,2,0,.2,0,.3,0,.5,0h0c.1,0,.2,0,.4,0h0c.3,0,.5,.1,.6,.1h0s-1.1-1.4-1.4-2.1c0-.1,0-.3-.1-.4h0c-.1-.7,0-1.5,0-1.5h0c0,.1-.2,.3-.3,.5h0c-.2,.3-.4,.7-.7,1,0,0,0,0,0,0-.2,.2-.3,.4-.5,.6-.5,.5-1.1,.9-1.8,1.2,0,0,0,0,0,0-.3,.1-.7,.2-1,.3-.2,0-.6,0-1.2,0h0s0,0,0,0c0,0,0,0,0,0t0,0c-.8,0-1.8-.1-2.7-.2,0,0,0,0,0,0-.8,0-1.4-.2-1.8-.2,0,0,0,0,0,0,0,0,0,0,0,0-.2,0-.6-.2-1-.3,0,0,0,0,0,0-1.2-.5-2.8-1.5-3.5-2-.9-.8-3.1-3.8-3.8-4.6-.5-.6-1.7-2.8-2.5-4.3,0,0,0,0,0,0-.2-.5-.5-.9-.6-1.1-.3-.7-.7-1.9-1-2.8,0,0,0,0,0-.1,0,0,0-.2,0-.2,0-.2-.1-.4-.2-.6-.2-.4-.5-1.1-.8-1.8-.4-.9-.9-1.8-1.2-2.3-.5-.8-1.4-3.6-1.7-5.1,0,0,0-.2,0-.3,0-.2,0-.4,0-.7h0c-.1-.9-.3-2.3-.5-3.7H.6c-.2-1.4-.3-2.6-.2-3.3,0-1.6,1.4-5,2.3-6.2,.7-1,2.9-2.1,4.3-2.7,.3-.1,.5-.2,.7-.3,0,0,.2,0,.3,0,0,0,0,0,0,0,1.4-.3,4.9-.7,4.9-.7l8.6-1.6s10.2-1.6,12.2-2.2c.4-.1,.8-.2,1.1-.3,0,0,0,0,0,0,.6-.1,1.1,0,1.5,0h0c.4,.1,.7,.3,.9,.5,.7,.6,1.4,2.2,2.1,3.3,.2,.3,.6,.8,1,1.3,0,0,0,0,0,0t0,0h0c.7,.9,1.5,1.8,2,2.5,0,0,0,0,0,0,.1,.2,.2,.3,.3,.5,.5,.8,.8,1.9,.9,2.8,0,0,0,0,0,0,0,.2,0,.3,0,.5,0,.3-.2,.8-.5,1.3,0,0,0,0,0,0-.1,.2-.3,.5-.4,.7,0,0,0,0,0,0-.4,.6-.7,1-.8,1.1,0,0,.3-.3,.7-.6h0c.2-.2,.3-.3,.5-.4t0,0c.3-.3,.6-.5,.9-.7,0,0,.1,0,.2-.1,.8-.5,1.2-.6,2.1-.8,.2,0,.3,0,.5,0,.2,0,.3,0,.5,0,0,0,.2,0,.3,0h0c.2,0,.3,0,.4,0h0c.3,0,.5,.1,.5,.1l-1.4-1.4s-1.9-1.6-2.7-2.1c-.3-.2-.9-.7-1.5-1.2h0c-.4-.3-.8-.7-1.1-1,0,0,0,0,0,0-.4-.4-.8-.7-1-1-.2-.2-.3-.5-.4-.8h0c-.4-1.2-.5-2.9-.6-3.8,0-.1,0-.2,0-.4h0c0-.2,0-.3,0-.4h0c0-1,.2-2.3,.4-3.5v-.7c.1-.3,.2-.6,.2-.8,0-.2,0-.4,0-.5,0-.4,.2-1,.3-1.7h0c.2-1.5,.6-3.3,.9-4.3,.2-.5,.5-1.1,.8-1.5,0,0,0,0,0,0,.2-.4,.5-.7,.7-1,.2-.3,.4-.5,.5-.6,0,0-.2,.1-.3,.2,0,0,0,0,0,0h0c-.3,.3-.7,.5-1,.7,0,0,0,0,0,0-.1,0-.3,.1-.4,.2-.5,.2-1.2,.3-1.9,.4,0,0,0,0,0,0-.7,.1-1.3,.2-1.7,.2-.8,0-1.1,.6-1,1h0c0,0,0,.1,0,.1,.2,.4,.6,.8,1.5,1.3,.9,.6,1.6,1.4,1.8,2.4,0,0,0,.2,0,.2s0,0,0,0c0,1.1-.7,3.3-1.8,4.9-.7,1-1.8,1.8-2.6,2.2,0,0,0,0,0,0,0,0-.2,.1-.3,.2-.3,.2-.6,.3-.6,.3,0,0-.9,.2-2.1,.4-.9,.2-1.9,.4-3,.6h0c-1.6,.3-3.2,.7-4.3,.9h0c-.6,.1-1,.2-1.2,.2-1.3,.2-7.5,1.4-8.8,1.6-.4,0-1.2,.2-2.1,.3h0c-.5,0-1.1,.1-1.7,.2,0,0,0,0,0,0-1.6,.2-3.3,.3-4.1,.2h0c-.2,0-.3,0-.4,0-.2,0-.3,0-.5-.2t0,0c-.4-.2-.9-.5-1.4-.8,0,0,0,0,0,0-.4-.2-.7-.5-1-.7-.5-.4-.9-1.2-1.1-2,0,0,0,0,0-.1-.1-.3-.2-.5-.3-.7-.1-.4-.2-1.3-.2-2.4h0c0-1.1,0-2.3,0-3,0,0,0,0,0,0,0-.1,0-.2,0-.3,0-1.1,.6-5.4,.8-6.8,.2-1.2,1-3.6,1.5-5.1,.1-.3,.2-.5,.3-.8,0-.1,0-.3,.2-.5,0,0,0-.1,0-.2,.4-1.1,1-2.8,1.7-4.4,.2-.5,.4-1,.6-1.4,0,0,0,0,0-.1,.2-.5,.5-1.1,.8-1.5,1.3-2.4,2.5-4.3,3.7-5.2,1.2-.9,2.9-1.6,4.3-1.9,0,0,0,0,.1,0,.6,0,1.5,0,2.2,.2,0,0,0,0,0,0,.9,.2,1.9,.4,2.3,.6,.6,.2,1.3,.5,1.8,.6,0,0,0,0,0,0,0,0,.2,0,.3,0,.1,0,.2,0,.3,0,.4-.1,.5-.5,.5-.8s0-.5-.2-.6c0,0,0,0-.1-.1-.2-.1-.5-.2-.9-.3h0c-.3,0-.6,0-.9-.1-.8-.1-2.9,.2-4,.2h0c-.1,0-.3,0-.4,0-.3,0-.7-.1-1.2-.4-.2,0-.3-.2-.5-.2,0,0,0,0,0,0-.2-.1-.4-.2-.6-.4-.5-.3-1-.7-1.2-1-.1-.2-.3-.5-.4-.8h0c-.4-1.1-.7-2.6-.7-3.7,0-1.5,1.4-4.3,2.2-5.5s2.6-1.8,3.7-1.8,2.5,0,3.5-.3h0c.2,0,.3,0,.5-.1,.3-.1,.6-.3,.8-.6,0,0,0,0,0,0,.4-.6,.4-1.5,.4-2.2s-.1-.9-.3-1.4h0c0-.3-.2-.6-.2-.8,0,0,0,0,0,0-.2-.6-.3-1.2-.3-1.5,0-.8,1.1-2.8,2-4.4,.1-.2,.3-.4,.5-.6,0,0,0,0,0,0,1-1.2,2.8-2.8,4.2-4,0,0,0,0,0,0,.4-.3,.8-.6,1.1-.9,.3-.2,.5-.4,.8-.6,0,0,0,0,0,0,.4-.3,.8-.6,1.2-.8t0,0c.9-.5,1.8-.8,2.5-.8,1.2,0,3.2,.9,4,1.6,.3,.3,.7,.8,1.2,1.4t0,0s0,0,0,0h0s0,0,0,0h0c.8,1,1.7,2.4,2.1,3.3,.2,.4,.3,.9,.5,1.5h0c.2,.9,.4,1.8,.4,2.6,0,0,0,0,0,0,0,.5,0,1,0,1.3s0,.4,0,.5h0c0,.5-.2,1.1-.3,1.5-.2,.7-.4,1.4-.6,1.7-.3,.6-.7,1.6-.8,1.8h0s0,0,.1,0h0c0,0,.2-.1,.3-.2h0c.6-.3,1.5-.8,2-.8,0,0,0,0,0,0,.2,0,.3,0,.5,0,.3,0,.6,0,.8,0,.1,0,.2,0,.2,0,0,0-1.4-1.5-1.8-2.3,0,0,0,0,0-.1,0,0,0,0,0,0,0,0,0-.2,0-.3h0c-.2-1-.2-2.8-.3-3.6,0-.6-.4-2.2-.8-3.5,0,0,0,0,0,0,0-.3-.2-.6-.3-.8,0,0,0,0,0,0-.2-.5-.3-.9-.5-1.2-.3-.5-.7-1.3-1.2-2.2,0,0,0,0,0,0-.4-.9-.9-1.9-1-2.4-.3-1-.1-3.2,.4-4.6,.5-1.3,3.1-3.8,4.7-4.8,1.6-1.1,5.8-4.2,7.2-5.2s2.4-2.7,3.4-3.8c1-1.1,3.4-1.8,4.6-1.9,1.2-.1,3.2,.9,3.9,1.6,.5,.6,1.3,2,1.7,3.1h0c.1,.4,.2,.7,.3,.9,.2,1.1,.2,4.5,.2,5.7s.2,3.8,.2,4.9,.1,2.1,.7,2.7c0,0,0,0,0,0,0,0,0,0,0,0,.3,.2,.5,.3,.7,.2,0,0,0,0,0,0,0,0,.1,0,.2,0,.3-.1,.5-.4,.6-.6,.3-.5,.3-2.6,.1-3.8h0c0-.1,0-.2,0-.2-.2-1.1-1.1-3.8-1.5-5.1,0,0,0,0,0,0,0,0,0,0,0,0-.4-1.3-.5-4.2-.5-5.5,0-.3,0-.6,0-.9h0c0-.3,0-.5,0-.8,0,0,0,0,0,0,.2-1,.5-2.1,.9-2.9,.7-1.2,2.8-3.4,3.8-4.1s4.6-2.2,6.1-2.7,7-2,8.9-2.4,7.9-1.9,9-2.2c1.1-.4,4.1-1.5,5.4-1.7s3.6,.7,4.7,1.4,3,2.4,3.8,3.5c.2,.3,.4,.6,.6,1,.7,1.2,1.5,2.8,1.8,3.8,.1,.4,.3,1.1,.5,1.9,0,0,0,.1,0,.2,0,.2,0,.4,.1,.6,0,.4,.2,.8,.2,1.2,.2,.9,.4,1.7,.5,2.3,0,0,0,.2,0,.2,0,0,0,0,0,0,0,.6,.1,1.5,.1,2.6h0c0,2,0,4.4,0,5.5,.1,1.7,.2,7.2,.3,8.5,0,0,0,.1,0,.2h0c0,.3,.2,.5,.3,.7,.4,.7,1.2,1,1.2,1v50.2h0v1h0v54.3h0s0,0-.1,0c0,0,0,0-.1,0h-.1c0,0,0,0-.1,0h0c-.5,.4-.8,1-1.3,1.3-1.7,1.2-3.6,1.7-5.6,1.9-1.3,.1-2.7,.2-3.9,.8-.5,.2-.9,.8-.4,1.3,.5,.5,1.1,.7,1.8,.9,2,.6,4,.7,5.9,1.4,1.1,.4,1.7,1.5,2.7,2.2,.3,.2,.6,.3,1,.3h.1s0,0,0,0c0,0,0,0,0,0h.1v29.9l.3,93.5Z" style="fill:#edead3;"/><path id="bv" d="M100.4,51s6.1,1.2,7.2,1.3c1.1,.2,4.4,.2,4.4,.2,0,0-.9-.3-1.6-.8-.7-.5-.4-1.6,.4-2.3,.8-.8,2.9-1.6,3.5-2.9,.6-1.3,.8-2.5,.3-3.6s-1-1.8-2.2-2.2-2.2-.4-2.2-.4c0,0,2.2-.7,2.8-1.5s1.4-2.8,1.6-4.3c.2-1.6-.2-15.1-.2-15.1,0,0-.6-6.4-1.6-9s-4.2-6.9-5.5-8-4.2-1.9-5.4-1.8-5.8,1.8-7.5,2.2-13.5,3.2-15.2,3.8-7.5,3.6-8.4,4.5-3,4.1-3.1,5.7c0,1.6,0,6.2,.6,7.6s1.8,5.8,1.8,6.8-.7,2.6-1.3,2.7c-.7,0-1.2-1.2-1.4-2.7s-.3-8.8-.3-8.8c0,0,.2-2.2-.5-3.4s-1.9-3.3-2.9-3.9c-1-.6-3.7-.8-5,0s-3.8,3.2-4.7,4.2c-.8,1-3.8,3.2-5.1,4-1.3,.8-5.4,4-6.2,4.8-.8,.8-2.1,3.2-2.1,4.4s1,4.8,2.1,6.6c1.1,1.8,2.2,4.7,2.2,5.9s-.3,3.5,.3,4.5c.7,1,2.2,2.5,2.2,2.5,0,0-1.2-.7-2.1-.4-.9,.2-2.8,1.5-2.8,1.5,0,0,1.1-1.6,1.4-2.7,.3-1.1,.7-4.4,.3-6.1-.3-1.7-2.2-5.4-3.5-6.8-1.2-1.3-2.9-2.3-4.2-2.3s-2.9,.2-4.2,1.3c-1.2,1.2-4.1,3.1-5.2,4.4-1.2,1.3-2.6,3.8-2.9,5-.3,1.2-.3,2.8,.2,3.8s.5,2.4,0,3.2-2.1,1.4-3.4,1.4-3.7,0-4.3,.9c-.7,.9-2.9,3.4-3.1,5.3-.2,1.9,.5,5.2,1.2,5.8,.7,.7,3,1.3,3.9,1.5s3.4-.2,4.3,0c.9,.2,2,.7,1.7,1.2s-.5,1.2-1.4,.8-3.4-1.1-4.2-1.2c-.8,0-3.2,0-4.3,.6-1.2,.6-3.2,2.4-4.2,3.9s-3.2,4.9-3.8,7c-.7,2.1-2.5,7.8-2.7,9.2s-1.3,8.2-1.2,9.6c.2,1.4,.3,4.5,1.2,5.5s3.2,2.4,4.2,2.5,9.7-1.4,9.7-1.4l11.7-1.9,5-1.2s2.8-1.2,3.8-2.3,2.5-4.1,2.2-5.4c-.2-1.3-1.1-2.2-1.9-2.8-.8-.6-1.4-1.1-1.5-1.5s1.2-.8,1.2-.8l3.8-.7,1.2-.8-1.7,3.3-1,4.7-.8,6.4,.7,3.4,2.8,3.8,3.5,2.9,2.2,2.2s-.8-.7-1.8-.5-4,1.8-4,1.8c0,0,1-1.3,.8-2.6s-1.8-3.6-1.8-3.6l-2.8-3.8-2.2-3.2s-.7-.7-1.9-.4-26.4,4.8-26.4,4.8c0,0-2.8,.8-4,1.7-1.2,.8-2.9,2.3-3.5,4.4-.6,2.1-.8,6.9-.2,9.3,.6,2.4,3.2,9.1,3.8,10.6,.7,1.5,2.2,6,3.2,7.6,1,1.6,4.8,6.5,6,7.2s5.8,2.5,8.2,2.4c2.4,0,3.8-1,4.4-1.7,.7-.7,1.4-2.6,1.4-2.6,0,0-.2,1.7,.2,2.6,.5,.9,1.5,1.9,1.5,1.9,0,0-1.5-.4-2.4-.4s-4.6,.2-5.7,.9c-1.1,.8-3.2,2.6-3.8,4.3s-.6,5,.2,6.5,3.9,5.7,5.2,6.2,6.6,3.2,8.4,3.1c1.8,0,5.3-1,5.3-1,0,0,2-1.2,2-2s-.6-2.5-.6-2.5c0,0,1,.5,1.8,.9s4.2,.9,4.2,.9l-3.1,1s-3.8,1.1-4.8,2.1-2.5,2.3-1.8,3.6c.7,1.2,3.4,3.5,5.2,4.2s9.1,3.1,10.4,2.9,5.2-1.5,6-2.2,2.3-2.8,2.5-3.5,.5-3.7,.5-3.7l1-.6,.3,1.3s-.7,1.7-.8,3.1c0,1.4-.4,2.4,.5,3.1,.9,.7,3.8,1.2,5.2,1,1.3-.2,6.7-1.4,8.3-2.7,1.7-1.2,5.1-3.8,5.9-4.9,.8-1.1,1.2-1.8,1.4-2.4s-1.1-2.6-1.1-2.6l-.2-1.3,1.6,.3s2.3,1.3,3.5,1.2c1.2-.2,3.8-.7,5.5-2.8,1.8-2.2,2.5-4.5,2.8-6.9,.2-2.4-.5-7.4-1.3-9.1-.8-1.7-3.2-5.8-3.8-7.2-.6-1.3-1.2-2.5-1.2-3l1.3-.8s4.8-2.5,2.4-4.9c-2.4-2.4-7-3.8-8.9-1.2s-4.3,8.9-2.1,11.1c2.2,2.1,7.5,7.2,8.2,9.4s.2,5.7-1.2,7.8c0,0-1.2,2.2-2.7,2.6-2.1,.5-4.4-.4-6.6,0-3.6,.8-1.3,5-2.1,7.6-1.1,3.9-5.5,5.1-9.2,4.5-.9-.2-1.9-.9-1.8-1.9,.4-3.3-2.6-5.8-5.7-4.9-2.7,.8-3.2,3.8-3.8,6.2-.2,1.3-1.2,2.2-2.5,2.8-3.6,1.4-8.2,.8-11.9-.9-.6-.3-1.2-.8-1.4-1.4-.2-.8,.2-1.4,1-1.8,3.5-1.3,7.3-1.6,10.1-4.2,1.3-1.2,1.6-3.3,.6-4.9-.9-1.2-2.4-1.4-3.8-1.1-1.7,.4-3.3,.7-5.1,.4-2.2-.4-4.2-1.6-6.2-2.8-1.8-1-3.9,.5-3.2,2.4,.6,1.2,1.7,2.3,1.3,3.9-.2,.4-.5,.7-.8,.8-1.2,.5-2.6,.5-3.8,.2-3.8-.9-7.1-3.3-8.7-6.8-.6-1.3-.8-3.2,.2-4.7,1.3-2.2,4.1-2.3,6.2-1.8,3.1,.8,5.9,2.4,9.1,1.5,1.8-.6,1.3-3.1-.2-4.1-3.6-2.4-5-6.2-5.8-10.2-.2-1.1-.9-2.2-1.9-2.6-1.2-.4-3-.7-3.5,.6-.8,1.8,0,3.8-.4,5.8-.5,2-3.2,1.8-5,1.3-4.9-1.2-8.3-6.2-10.2-10.8-2.5-6.1-5.3-12.3-4.5-19.2,.2-1.8,1.4-3,2.8-4.1,2.4-1.9,5.2-2.6,8.2-3.1,6.2-1,12.2-2.8,18.4-2.2,3.1,.3,5.9,4,5.2,7.2-.3,1.7-2,2.7-2.6,4.2-.6,1.4-.8,3.3,.8,4.2,.8,.5,2,.5,3,.2,2.4-.8,3.8-3.5,6.4-3.8s5.5-.3,8-1.4c2.3-1.1-.8-3.7-2-4.8-2.7-2.3-5.6-4.1-7.9-6.6-2.6-6.7,.5-13.5,1.8-20.3,.2-1.7,.9-3.8-.5-4.8-.7-.5-1.8-.2-2.5,.3-1.6,1.4-2.9,3-4.9,3.4-3,.7-8.2,.8-7,4.8,.4,1.6,2.2,2.2,3.3,3.5,.8,1,.9,2.2,.7,3.5-.2,.9-1.3,1.1-2.2,1.2-.6,.1-1.3,0-1.9,0-7,2.1-13.7,4.3-21,5.2-1.2,.2-2.7,.2-3.5-.8-2-2.3-1.6-5.7-1.1-8.5,.3-2.2,1.1-4.2,1.8-6.2,1.8-4.6,2-9.8,5.5-13.5,2-2.2,5.1-2.3,7.8-1.9,2,.2,3.8,.8,5.8,.4,2.2-.4,3.5-3.2,2.5-5-2.3-4.5-8.2-2.2-12.2-3.2-2.6-.7-1.8-4.9,.4-5.9,3.2-1.6,7.7-1.8,9.3-5.3,.9-2-.9-4.8-.3-7.2,.7-2.5,2.2-4.6,4.1-6.4,1.8-1.7,4.8-2.6,6.7-1.1,2,1.6,2.9,4.1,3.5,6.6,.8,3.4-.8,6.3-1.8,9.3-.3,.8-.5,2.2,.5,2.5,1.3,.5,2.2-.7,3.2-1.7,1.1-1.2,2.9-.8,4.4-.5,1.6,.4,3.1,1.2,4.8,.8,1-.2,1.4-1.7,.8-2.4-1.4-2.1-4.2-2.8-4.7-5.6-.7-4.2-1.5-7.9-4-11.6-.8-1.2-.9-2.8-.4-4,1.3-3.8,4.9-5.8,8.2-8.2,1.8-1.3,3-2.8,4.8-4.1,1.3-1,2.9-1.8,4.5-1.2,1.2,.5,1.8,1.8,1.9,3.2,.2,3.3-.2,6.6,.5,10,.5,2.1,1.1,4.6,3.3,5.2,5.2,1.6,7.2-4.6,6.2-8.7-1-4.8-2.2-9.6,.2-13.9,.8-1.5,2.5-2.2,4-2.7,6.2-2.2,12.4-3.3,19-4.8,2.7-.6,5.5-1.2,7.9,0,4.8,2.2,5.1,7.8,6.1,12.5,1.1,5,.9,9.7,.3,14.5-.2,1.5-2.8,.7-3.7-.7-1.2-1.9-1.9-3.8-3.2-5.6-.6-.8-1.6-1-2.3-.7-1.8,.8-1.5,3.2-1.2,4.8,.5,2.8,1.6,5.3,1.3,8.1-.2,1.8-2.2,3.3-4.4,3.8-1.8,.4-2.7,2.7-2,4.3,.8,2,3,2.2,4.8,2.5l.4,.2h0Z" style="fill:#d6d3b8;"/><path id="bw" d="M109.4,111.5c.2-1,.5-1.9,1-2.8,.6-.8,1.1-1.6,1.3-2.6,.9-4.4,2-8.5,1.2-12.9-.8-5-3.1-9.2-6.6-13-1.6-1.7-3.5-3-5.6-3.8-3.7-1.2-7.6-1.8-11.4-.7-.7-1.7,.1-3.6-.9-5.3,0-.2,0-.6,0-.8-1.7-4.5-5.8-7.5-10-9.4-1.9-.8-3.9-.5-5.9-.6,0,0,0,.2,0,.2-4.1,1.8-6.8,5-5.1,10.9,1.6,3.8,3.1,5.4,7.8,8.4,2.4,1.5,5.2,.6,7.6,1.8,1.2,.6,1.3,2.2,1.4,3.4,.6,8.2,.4,15.1,4.2,20.7,1.7,2.4,3.8,4.6,6.2,5.7,3.8,1.7,8.6,3,12.2,1.8,1.1-.4,2.2-.7,2.8-1.7l-.3,.8Z" style="fill:#d6d3b8;"/><path id="bx" d="M90.1,114.5c-4.6-5.7-14.8-19.9-18.6-11.1-5.5,9.4-2.6,15.4,7.2,18.2,3.7,1.1,7.3,.2,11-1,2.7-.8,1.9-4.2,.4-6.1Z" style="fill:#d6d3b8;"/><path id="by" d="M73.8,97.3c.9-2.2,0-3.8-.7-5.7-1.5-5-6.7-9.2-12.2-7.8-2.2,.7-2.5,3-2.8,5.2-.8,9.7,.8,19,3.7,28,.8,3,4.7,4.8,7.3,3.5,1-.3,0-2-.5-3-1.5-2.7-1.7-8.2-.7-10.7,1.5-3.8,4.3-5.7,5.8-9.5h0Z" style="fill:#d6d3b8;"/><path id="c`" d="M95.4,148.4c-.6-1.6-2-4.8-2.8-6-.8-1.2-2.5-3.2-3.3-3.8-.9-.7-1.4-1.1-1.9-.7-.5,.4-.2,1.6,.4,2.7,.7,1.1,4.2,7.8,4.7,9.2,.5,1.3,1.6,7.4,1.2,8.9-.4,1.5-1.8,5-2.8,6.2s-1.8,1.4-3,2.1c-1.2,.7-1.4,1.3-2.7,1s-2.4-1-3.1-1.3c-.7-.3-1.5-.9-1.8-.4s.3,1.6,.7,2.1c.3,.5,.8,1.6,.4,2.2-.4,.7-1.8,2.6-2.6,3.3s-4.2,3.2-5.7,4-5.8,2.1-7.2,2.2c-1.5,.2-3.7,0-4.4-.5s-1.3-1.5-1.3-2.2,.1-2.3,.4-2.9c.2-.7,.4-1.7,.4-2.2s-.7-.9-1-.5-.7,1.7-.8,2.3c0,.7-.4,2.9-.8,3.5s-2.3,2.6-3.4,2.9c-1.1,.3-4.4,1.2-6.1,.8-1.7-.3-3.3-.8-4.8-1.2-1.5-.5-4.5-1.7-5.5-2.2s-3.6-3-3.6-3c0,0-.8,.3-1.3,.7-.6,.3-1.2,.9-1.5,1.3-.2,.4-.1,1.1-.1,1.1,0,0-1.3,.6-1.5,1.5s-.5,2.6-.2,3.8,1.1,3.6,1.5,4.1,.8,1.1,.8,1.1c0,0,.2,2.7,.7,3.5s1.5,2.6,1.5,2.6c0,0,.3,2,.8,2.8,.5,.9,2,2.5,2,2.5,0,0,.2,1.6,.8,2.5,.7,.9,2.8,2.8,2.8,2.8l1.4,1.2s.4,1.1,1.2,1.7c.8,.6,2.8,1.2,2.8,1.2,0,0,.3,.9,1,1.8,.7,.9,2.8,3,3.4,3.3s2.7,.5,2.7,.5c0,0,1.1,1,1.9,1.4,.8,.4,2.9,1.1,2.9,1.1,0,0,1.3,.9,2.1,1.5s2.9,1.2,3.5,1.4c.6,.2,2.8,.2,2.8,.2,0,0,1.4,.8,2,1,.6,.2,1.9,.8,2.5,.7,.6-.2,1.6-1,1.6-1,0,0,1.1,1,2.2,1.4,1.1,.3,3,1,4.2,.6s2.4-1.1,3.2-1.5,1.9-.8,1.9-.8c0,0,1,.3,1.5,.4,.5,0,1.9,.6,1.9,.6,0,0,.6,.8,1.4,1.5s1.9,1.3,2.8,1.8c.8,.4,1.7,.6,2.4,.7,.8,0,1.6,.2,2.4,.4,.8,.2,2.2,.3,3.2,.8s2.2,1.3,2.8,1.5c.7,.2,2.2,.3,2.2,.3l1,.4s-.4-6.5-1.1-9.6c-.7-3.1-2.4-9.4-3.3-12.4-.9-3-2.8-10.2-3.9-13.2-1.1-3-2.8-6.6-4-9s-3.1-5.7-3.8-7.3c-.8-1.7-1.4-2.8-1.4-4.2s.3-2.4,1.2-3.6c.9-1.2,3.2-3.8,4.2-5.8s2.3-5.4,2.4-8.3c0-2.9-.3-5.4-1-7.3h0Z" style="fill:#edead3;"/><path id="ca" d="M118.3,52.1c-.3,0-.7,0-1,0-2.4,.4-4.7,.8-7,.1-.7-.2-1.2-1-1-1.7,.5-1.6,2.1-2.2,3.4-3.1,1.9-1.3,2.2-4.1,.6-5.8-.9-1-2.3-1-3.6-1.1-.9,0-1.8-.4-2.7-.5-2.2-.2-2.8,2.3-3.6,3.9,0,0,0,0-.2,0,0,0,0,0,0-.2,.2-2.1,1.4-5,4-4.6,.8,.1,1.6,.5,2.4,.5,1.5,0,3.2,.1,4.3,1.4,1.8,2,1.4,5.2-.8,6.8-1.2,.8-2.7,1.3-3.2,2.8,0,.7,.8,.9,1.4,1,1.3,0,2.5,0,3.8-.1,.9,0,1.8,.1,2.7,.2,.1,0,.3,0,.4,0h0c0,0,.1,0,.1,0,0,0,0,.1,0,.1h0Z" style="fill:#8f5946;"/><path id="cb" d="M103.7,32c0,1.8,1.2,3.2,2.2,4.7,.7,1.1,1.4,2.3,2.7,2.7,1.4,.5,3.1,.2,4.1-1.1,.7-.9,1.2-2,1.3-3.1,.4-5.5-.3-10.9-.1-16.3-.4-4.2-.9-8.6-3.2-12.3-.1-.2-.1-.4,0-.5s.4-.1,.5,0c.2,.1,.3,.3,.4,.5,2.2,3.8,2.7,8.1,3.1,12.3-.2,5.5,.5,10.9,0,16.3-.2,2.6-2.4,5.3-5.3,4.9-1.1-.1-2-.7-2.7-1.4-1.1-1.2-1.8-2.6-2.4-4-.4-.9-.7-1.8-.7-2.8h0c0,0,0,0,0,0s0,0,0,.1h0Z" style="fill:#8f5946;"/><path id="cc" d="M104.3,34.2c.2,.6,.5,1.1,.8,1.6,.7,1.5,1.1,3.3,0,4.7-.3,.4-.6,.6-.7,1,0,0,0,0-.1,0,0,0,0,0,0-.1,.4-1.1,.8-2.3,.9-3.4,0-1.3-.4-2.6-1-3.8,0,0,0-.1,0-.1,0,0,.1,0,.1,0h0Z" style="fill:#8f5946;"/><path id="cd" d="M108.1,39.7c-.8,0-1.5-.4-2.1-1l-.2-.3,.2,.2h0c0,0-.2-.1-.2-.2h.4c0,.3,.4,.5,.3,.9h0c0,.2,0,.4-.2,.4h-.1s0,0,0,0h0c0,0-.2,0-.3,0-.1-.1-.1-.3,0-.5h.1c.2-.2,.4-.3,.6-.3h0c.2,0,.4,0,.4,.3,0,.2,0,.4-.3,.4-.3,0-.4,.3-.9-.1l.5,.3c0,0-.1,0-.2,0h0c-.1,0-.3-.1-.3-.2,0-.2,0-.3,.2-.4h.1l-.2,.3v-.2s0,0,0,0c-.1-.3-.4-.5-.3-.9h0c0,0,0-.2,0-.2h0c0-.2,.2-.2,.3-.2h0c.1,0,.2,.1,.2,.2h0c0,0,.2,0,.2,.1h0c.5,.6,1,1.2,1.7,1.2,0,0,0,0,0,.1,0,0,0,0-.1,0h0Z" style="fill:#8f5946;"/><path id="ce" d="M114.3,18.2c-.2-1.8-.7-3.5-1.2-5.3-.7-2.6-1.5-5-3.1-7.2-1.3-1.7-2.8-2.9-4.6-4-1.6-1-3.4-1-5.3-.6-1.7,.4-3,1.3-4.6,1.7-3.9,.9-7.3,1.9-11.2,2.8-3.4,.8-6.5,1.6-9.6,3-2.1,1-3.8,2.4-5.3,4.3-1.7,2.2-1.7,4.8-1.7,7.3,0,2.5,1.1,4.7,1.7,7.1,.5,2,.9,3.9,.3,5.9-.2,.6-.7,1.2-1.4,1.1-.9,0-1.4-.9-1.6-1.6-.3-.8,0-1.7-.1-2.6-.2-2.7-.4-5.3-.3-7.9,0-2.5-1-5-3-6.7-.4-.3-.8-.6-1.3-.7-1.6-.1-3.1,0-4.5,1-1.8,1.2-2.7,2.8-4.1,4.3-3.7,3.1-8,5.2-11.4,8.7-.8,1.2-1.5,2.6-1.4,4.1,.2,1.7,.4,3.3,1.3,4.8,.9,1.5,1.8,2.9,2.4,4.5,.8,2.1,.5,4.2,.7,6.4,.3,2.1,2.2,3.4,3.9,4.4h0c0,0,0,0,0,.2,0,0-.1,0-.2,0-.6-.3-1.2-.7-1.8-.9-1.5-.6-2.9-2-3-3.7-.1-1.3,0-2.6-.1-3.9-.1-1.6-.7-3.1-1.6-4.4-1.6-2.3-2.4-4.7-2.6-7.3-.1-1.7,.6-3.4,1.7-4.8,3-3.1,6.5-5.1,10.1-7.7,1.9-1.4,2.9-3.3,4.6-4.7,2-1.7,5-2.5,7.4-1.2,2.3,1.8,3.7,4.7,3.7,7.6,0,1.6-.2,3.2,0,4.9,.2,1.8,.3,3.6,.3,5.4,.3,.4,.4,1.1,1.1,1.1,.9-1.8,.4-3.9,0-5.9-.5-2.1-1.5-3.9-1.7-6-.2-1.9,0-3.7,.3-5.6,.6-3,2.6-5.1,5-6.9,2.2-1.6,4.6-2.3,7.1-3,5.7-1.8,11.5-2.8,17.2-4.5,.9-.5,1.9-.8,3-1.1,1.3-.4,2.5-.6,3.8-.3,3.4,.6,6,2.9,7.8,5.8,2.4,3.8,2.6,8.1,3.5,12.3h0c0,0,0,.1,0,.1,0,0-.1,0-.1,0h0Z" style="fill:#8f5946;"/><path id="cf" d="M48.2,52.8c-1.3-.7-2.9-1.5-4.4-.7-1.1,.5-2.1,1.4-2.8,2.4,0,0,0,0-.1,0,0,0,0,0,0-.1,.7-1.1,1.4-2.3,2.7-2.9,1-.4,2-.4,3,.1,.6,.3,1.1,.7,1.6,.9,0,0,0,0,0,.1s0,0-.1,0h0Z" style="fill:#8f5946;"/><path id="cg" d="M42,52.9c1.4-1.9,1.9-4.2,1.8-6.5,0-1.9-.4-3.8-1.6-5.5-1.4-2.2-2.7-4.8-5.5-5.3-1.1-.2-2.3,0-3.3,.4-1.5,1.2-2.9,2.3-4.5,3.5-1.3,1-2.2,2.1-3.2,3.5-1.4,1.9-2.9,4.4-1.4,6.6,.6,1.4,.6,3.1-.5,4.3-1.3,1.4-3.3,.7-5,.8-1.7,.1-3,1.1-3.9,2.6-1.3,2.2-2.2,4.9-1.3,7.4,.3,.8,.8,1.5,1.4,2.1,.8,.8,1.9,1.1,3,1,2-.2,4.1-.4,6,.4,.3,.1,.5,.5,.5,.8,0,.8-.6,1.5-1.4,1.4-2.1-.4-3.9-1.4-6-1.4-2.3,0-4.3,1.3-5.9,2.9-2.7,3.7-4.7,7.9-6.2,12.3,0,.1-.1,.2-.3,.1-.1,0-.2-.1-.2-.3,.2-1.3,.6-2.5,1-3.8,.4-1.6,1.2-2.9,2-4.4,1.1-2,2.1-3.9,3.8-5.4,1.6-1.4,3.6-2.3,5.7-2.3,2,0,3.9,.8,5.8,1.5,.4,.1,.9-.2,.7-.7,0-.2-.3-.2-.5-.3-1.7-.4-3.4-.2-5.1-.1-1.2,0-2.4-.2-3.4-1.1-1.2-1.1-2.1-2.5-2.2-4.1-.2-2.8,.8-5.5,2.6-7.7,.9-1.1,2.2-1.6,3.6-1.8,1.6-.2,3.5,.8,4.6-.8,.5-.8,.5-1.7,.3-2.6-.3-1.1-.9-2.2-.6-3.3,.6-2.8,2.2-5,4.1-7,1.7-1.8,3.7-3.1,5.5-4.7,1.3-.7,2.7-.9,4.2-.7,3.1,.4,4.6,3.4,6.1,5.9,1.7,2.7,2.1,5.9,1.3,8.9-.4,1.4-1.1,2.5-2.1,3.5,0,0-.1,0-.2,0,0,0,0-.1,0-.2h0Z" style="fill:#8f5946;"/><path id="ch" d="M7.1,78.7c-.1,.2-.2,.4-.2,.6-.3,2.4-1.3,4.5-2.2,6.6-.6,1.5-1,3.1-1.1,4.8-.3,3.4-1.1,6.6-.8,10,.2,2.6,1.5,5.5,4.4,6,1.9,.3,3.7-.2,5.6-.5,2.5-.4,4.9-.5,7.4-1.3,2.2-.7,4.4-.6,6.7-1,2.6-.8,5.2-1,7.8-1.6,2.8-1.4,5.4-4.3,5.1-7.6,0-.6-.3-1.1-.8-1.5-.8-.8-1.9-1.2-2.6-2.1-.2-.3-.3-.7,0-1,.3-.5,.9-.6,1.4-.6,1.4-.2,2.8,0,4.1-.7,.6-.3,1.1-.6,1.6-1.1,0,0,0-.1,0-.2h0l.4,.2h0c-.7,.9-1.2,1.7-1.7,2.6-.8,1.5-.9,3.1-1.3,4.7-.4,1.9-.4,3.7-.7,5.6-.2,1-.3,2-.2,3,.1,1.5,.5,2.8,1.4,4.1,1.8,2.6,4.3,3.7,6.4,5.8,.9,.9,1.5,1.9,2,3h0c0,0,0,.1,0,.1,0,0-.1,0-.1,0h0c-.4-.9-1-1.7-1.9-1.7-.8,0-1.7,.2-2.5,.4-1.7,.6-2.7,2-4.1,2.9h-.1c0,.1,0,.1,0,.1h0s0,0,0,0c0,0,0-.1,0-.2h0c1.5-1.1,2.9-2.7,2.6-4.7-.2-1.1-.6-2.1-1.3-2.9-1.8-2.1-3.3-4.1-4.6-6.5-.6-1.1-1.9-1.8-3.1-1.3-1.1,.5-2.2,1.2-3.4,1.3-1.4,.1-2.7,0-4.1,.3-1.5,.4-2.9,.8-4.4,1.1-1.7,.3-3.2,.4-4.9,.6-1.9,.3-3.5,1-5.4,1.2-1.6,.2-3.1,.4-4.7,.9-2.3,.7-4.6,2.1-5.5,4.4-1.1,2.7-1.5,5.5-1,8.4,.5,2.4,.6,4.8,1.6,7,.8,1.7,1.8,3.3,2.4,5.1,.1,.4,.2,.8,.2,1.2,0,.1,0,.3,0,.3-.1,0-.3,0-.3,0-.5-.8-.8-1.7-1.2-2.6-.5-.9-1-1.8-1.5-2.8-1.4-2.7-1.5-5.7-2.1-8.5-.3-3.7,0-7.9,2.8-10.7,1.6-1.6,3.7-2.5,6-2.9,1.1-.2,2.2-.2,3.3-.4,1.4-.2,2.7-.6,4.1-.9,2.4-.5,4.6-.6,7-1.1,1.4-.3,2.5-.8,3.9-1.1,1.3-.3,2.4,0,3.7-.2,1.2-.1,2.1-.8,3.2-1.3,.8-.4,1.6-.3,2.4,0,.8,.3,1.4,.9,1.8,1.7,.9,1.5,1.6,2.9,2.7,4.3,.6,.8,1.3,1.4,1.9,2.2,.7,1,1.2,2.1,1.3,3.3,0,.7,0,1.4-.3,2.1-.6,1.2-1.7,2.1-2.9,2.7,0,0-.1,0-.2,0v.2c0,0,0,0,0,0h0c0,0-.1,0-.1,0,0,0,0-.2,.1-.2h0c0-.1,0-.1,0-.1,.8-.8,1.3-1.8,2.2-2.5,1.1-.8,2.4-1.3,3.7-1.4,1.3-.1,2.4,.9,2.8,2l.2,.4s0,0,0,0h-.3c0-.3-.1-.4-.2-.5-2.5-3.3-6.3-4.5-8.7-8.1-1.8-2.7-1.6-5.8-1-8.7,.1-2.7,.7-5.2,1.3-7.9,.4-1.5,1.3-2.6,2.2-3.8l.2-.3h0l.5,.4c-.2,.8-1.1,1.3-1.8,1.7-1.5,.9-3.2,.6-4.9,.9-.1,0-.3,.2-.3,.2,.6,1.1,1.8,1.4,2.7,2.2,1.1,1,1,2.5,.8,3.9-.3,1.5-1,2.7-2,3.8-1,1.1-2,2.3-3.5,2.7-2.6,.7-5.3,.9-7.8,1.7-2.1,.3-4.2,.3-6.3,.9-2.6,.8-5.1,1-7.7,1.4-2.3,.3-4.6,1-6.9,.2-2.4-.9-3.7-3.2-4-5.7-.3-3,.1-5.9,.5-8.9,.3-2.3,.4-4.6,1.3-6.8,1-2.4,1.9-4.9,3-7.3h0s0,0,.1,0c0,0,0,0,0,.1h0Z" style="fill:#8f5946;"/><path id="ci" d="M1.3,124.3c.6,1.8,1.1,3.6,1.8,5.3,.9,2.1,2.3,3.8,2.9,6.1,.9,3.5,2.9,6.3,5.2,9.1,1.4,1.7,2.9,3.2,4.9,4.1,2.1,.9,4.4,1.3,6.7,1.2,1.5,0,2.9-.7,3.8-2,.8-1,1-2.2,1-3.4h0v.2h0v-.2h.4c0,0-.1,.1,0,.2,0,0,0,.1,.1,.2,.3,1.7-.2,3.5,1,4.9,1.1,.8,2,1.8,3,2.7h.1v.3h-.2c-1.3-1.3-2.9-2.2-4.7-2.3-2.6,0-5.4,.3-7.3,2.2-1.1,1.6-2.2,3.2-2.5,5.2-.3,2.4,.8,4.5,2.2,6.4,1.9,2.6,4.4,4.1,7.1,5.3,3.6,1.5,8.7,2.1,11.4-1.3,.5-1.4-.6-2.8-1.2-3.9h0c0-.1,0-.1,0-.2h0c0-.2,0-.2,0-.2,0,0,.1,0,.1,0h0c.6,.6,1.1,1.3,1.8,1.8,1.9,1.2,4,1.4,6.1,1.4,.5,0,1,0,1.5,0h0s0,0,0,0c0,0,0,.1,0,.1h-.2c-2.6,.3-5,1.4-7.5,2-1.6,.7-3.4,1.7-3.9,3.5-.2,.7,0,1.4,.4,2,.2,.2,.1,.4,0,.6-.2,.2-.4,.1-.6,0-1-1-1-2.6-.2-3.7,1.1-1.6,2.7-2.7,4.5-3.2,2.4-.6,4.7-1.2,7.1-1.2h.1c-.1,.2-.3,.1-.4,.2-2.3,.8-4.7,.2-6.8-.8-1-.5-1.4-1.5-2.2-2.3v-.2h.1s0,0,0,0v.2c0,0,0,0,0,0,.9,1.1,2,2.3,1.9,3.8-.7,2-2.8,3-4.9,3.4-5,.9-9.8-1.4-13.5-4.5-2.2-2.3-4.2-5-4.3-8.3-.1-2.6,1.3-4.8,2.9-6.8,.8-1,2-1.5,3.3-1.9,1.8-.5,3.5-.8,5.3-.3,1.6,.4,2.8,1.5,4,2.5l.2,.2s0,0,0,.1c0,0,0,0-.1,0h0s0,0,0,0h-.1c-1-.8-2.1-1.3-3-2.1-1.5-1.2-1.4-3.2-1.4-4.9,0-.4,0-.7-.1-1,0-.2,0-.3,.1-.5l.2-.2c.2-.1,.4,0,.5,0v.2c.2,0,.2,0,.2,.1h0s0,0,0,.2v.2c.3,3.2-2.4,6-5.5,6.1-3,.1-5.9-.4-8.5-2.1-2.7-1.8-4.3-4.2-6.2-6.8-.8-1.1-1.3-2.1-1.8-3.2-.8-1.6-1.1-3.3-1.8-5-1.1-2.5-2.5-4.8-2.9-7.6-.1-.7-.4-1.3-.5-2,0,0,0-.1,0-.1,0,0,.1,0,.1,0h0Z" style="fill:#8f5946;"/><path id="cj" d="M91.4,146.7c.8,1.8,1.6,3.5,2.2,5.3,.2,2.1,.2,4.1,.2,6.2,0,.8-.2,1.6-.4,2.4-1,3.3-3.2,6.2-6.6,7.3-1.2,.4-2.4,.2-3.5-.1-.9-.3-1.4-1-2.3-1.3-.2,0-.5-.2-.8,0,.3,.6,.7,1.1,1.1,1.6,.5,.6,.7,1.4,.5,2.1-.6,1.7-2,2.9-3.2,4.2-1.1,1.2-2.4,2.1-3.9,2.9-2.5,1.4-5,2.2-7.7,2.9-2.1,.5-4.3,.8-6.3-.2-2.3-1.9-.7-4.9-.4-7.4,0-.2,0-.5,0-.7h0c-.4,0-.8,.4-.9,.8-.3,1.8,.1,3.5-.9,5.1-2,3.1-5.6,4.2-9,3.9-2-.1-3.9-.4-5.7-1.1-2-.8-4-1.6-6-2.4-1.4-1-2.8-2.1-3.4-3.7-.4-1.1-.1-2.3,.6-3.2,.3-.4,.5-.6,.9-.9,2-1.2,4-2.1,6.2-2.3h0c0,0,.1,0,.1,0,0,0,0,.1,0,.1-2.1,.2-4,1-5.8,2.2-1.3,.8-1.7,2.4-1.3,3.8,.8,1.3,2,2.3,3.4,3.1,1.7,.9,3.5,1.3,5.2,2.2,3.6,1.3,7.8,2,11.3,.2,1.5-.8,2.9-2,3.4-3.7,.3-1.2,0-2.3,.4-3.5,.2-.8,.9-1.5,1.8-1.3h0c0,0,.1,0,.2,0h.1c.5,1.5-.2,3-.5,4.5-.3,1.4-.2,3.2,1.4,3.6,3.6,1,7-.6,10.2-1.9,2.2-.8,4.1-2.1,5.8-3.8,1.1-1.1,2.3-2.2,3-3.6,.1-.3,.2-.7,0-1-.4-1-2-2.1-1.1-3.3,1.3-.8,2.5,.5,3.7,1,.8,.4,1.7,.5,2.6,.3,1.2-.2,2.1-.7,3.1-1.5,2.4-1.9,3.7-4.7,4.1-7.7,0-2,0-4,0-6.1-.6-1.8-1.1-3.6-1.9-5.4,0,0,0-.1,0-.1,0,0,.1,0,.1,0h0Z" style="fill:#8f5946;"/><path id="ck" d="M93.4,159.7c.6-2.2,0-4.3-.4-6.5-.4-1.8-.9-3.4-1.6-5-1.2-2.7-2.8-5-4.1-7.7-.4-.8-1-1.6-.6-2.4,.2-.4,.6-.6,1-.6,.7,0,1.2,.4,1.7,.9,1.1,.9,2,2,2.9,3.2,.9,1.2,1.6,2.4,2.2,3.7,1.4,2.9,2.5,5.8,2.3,9.1-.1,1.7-.2,3.4-.6,5.1-.4,1.6-1.1,3-1.8,4.5-.5,1-1.2,1.9-1.9,2.7-1.1,1.4-2,2.7-3.1,4.1-.9,1.1-.5,2.5-.5,3.7,.4,2.1,1.8,3.8,2.4,5.9h0c0,.1,0,.3-.2,.4-.1,0-.3,0-.4-.2-.7-1.2-1.3-2.5-2-3.7-.3-.6-.5-1.2-.7-1.9-.2-.7-.1-1.3-.1-2,0-.7,0-1.3,.3-2,.3-.8,.9-1.3,1.4-2,.8-.9,1.3-1.9,2.2-2.9,1.3-1.5,2.1-3.1,2.9-4.8,1-2.3,1.1-4.8,1.3-7.2,.2-3-.9-5.8-2.1-8.5-.8-1.6-1.6-3.1-2.8-4.5-1-1.2-2-2.6-3.6-2.9-.1,.2,0,.5,0,.7,1.2,3,3.2,5.6,4.4,8.7,.8,1.9,1.3,3.8,1.7,5.8,.4,2.1,.7,4.2,0,6.2,0,0,0,0-.1,0,0,0,0,0,0-.1h0Z" style="fill:#8f5946;"/><path id="cl" d="M117.8,180.2c-1.2-.3-2.4,.2-3.6,.3-2.5,.2-5-.1-7.3-1.3-1-.5-1.9-1-2.9-1.7-1.5-.9-2.5-2.1-3.8-3.3-.6-.6-1.2-1.1-2-1.2-1.1,0-2.2,.4-3.3,.4-.7,0-1.4,0-2.1-.3-1.4-.5-3.3-.7-4-2.2,0,0,0-.2,0-.3,0,0,.2,0,.3,0,1.2,.7,2.6,1.2,3.9,1.6,1.6,.5,3.2,.1,4.8-.1,2,0,3.3,1.9,4.7,3.2,2,1.9,4.2,3.5,6.9,4.2,2.2,.6,4.3,.6,6.6,.3,.6,0,1.1,0,1.7,0,0,0,0,0,0,.1,0,0,0,0-.1,0h0Z" style="fill:#8f5946;"/><path id="cm" d="M108.7,219.7c-.5-1.8-.8-3.6-1.1-5.5-.3-1.8-.7-3.4-1.1-5.2-1.2-5.4-2.5-10.2-4-15.4-1.1-3.7-1.9-7.3-3-11.1-.9-3.3-1.9-6.4-2-9.8,0-.2,.2-.4,.4-.4s.4,.2,.4,.4c0,4,1.6,7.8,2.4,11.7,1.4,4.7,2.4,9.3,3.8,14.1,.7,2.4,1.1,4.7,1.7,7.1,.7,2.7,1.1,5.3,1.5,8,.3,2.1,.6,4.1,1.2,6.1h0c0,0,0,.1,0,.1,0,0-.1,0-.1,0h0Z" style="fill:#8f5946;"/><path id="cn" d="M101.6,188.3c.1,.8,.3,2-.7,2.2-1.8,.4-3.4-.9-4.6-2.1-1.3-1.4-2.3-2.9-3.3-4.5-2.3-3.5-4-7-5.1-10.9,0-.1,0-.2,.1-.3,0,0,.2,0,.3,.1,.6,1.2,1.3,2.4,1.8,3.7,1,2.5,2.2,4.7,3.8,7.1,1.1,1.6,2,3.1,3.4,4.5,1,1,2.4,2,3.9,1.7,.3-.4,.5-.9,.4-1.4,0,0,0-.1,0-.1,0,0,.1,0,.1,0h0Z" style="fill:#8f5946;"/><path id="co" d="M105.3,222.9c0-.3,0-.6-.2-.9,0-.2-.1-.5-.2-.7-.1-.4-.2-.9-.3-1.3-1.4-5.2-2.7-10-4.1-15.2-.7-2.7-1.4-5.3-2.3-8-1.3-3.9-2.9-7.6-4.8-11.3-1-2-1.8-3.9-2.8-5.9-.7-1.4-1.4-2.7-1.9-4.2,0,0,0-.2,.1-.2,0,0,.2,0,.2,.1,.9,2,2,3.9,3.1,5.9,1.5,2.7,2.7,5.3,4,8.1,1.6,3.5,2.9,6.9,3.9,10.6,1.5,5.4,3,10.4,4.3,16,.6,2.4,.8,4.7,1.1,7.1,0,0,0,0,0,0,0,0-.1,0-.1-.1h0Z" style="fill:#8f5946;"/><path id="cp" d="M99.1,198.9c-.3-.5-.5-1-1.1-1.2-1.8-.6-3.7-1.1-4.9-2.7-.9-1.2-.7-2.6-.4-3.9v-.2h.2v.2c-.2,.3-.2,.6-.2,.8,.2,1.6-.7,3.1-2.2,3.6-1.5,.5-3.4,0-4.2-1.4-.3-.6-.3-1.2-.3-1.8v0h0c-1.1,0-2.2-.4-2.9-1.3-.7-1-.9-2.2-.3-3.3,.4-.7,1.1-1.1,1.6-1.6,.2-.2,.3-.4,.2-.7,0,0,0-.2,0-.2,0,0,.2,0,.2,0,.9,1.2-.9,2-1.5,2.9-.4,.6-.3,1.2-.2,1.8,.4,1.2,1.6,1.9,2.8,1.7h.2c0,0,.1,0,.2,.1h0c0,0,0,0,0,.1h0c0,0,.1,.1,.1,.2h0s.1,0,.1,.1c.1,.5,0,.9,.2,1.4,.2,.6,.7,1.1,1.3,1.3,.9,.3,1.9,.2,2.7-.4,.5-.3,.8-.8,1.1-1.3,.4-.6,.3-1.3,.5-1.9v-.2c0,0,.1,0,.2,0s0,0,0,.1v.2c-.3,1.2-.2,2.4,.6,3.4,1.1,1.4,2.7,2.1,4.3,2.7,.7,.3,1.1,1,1.5,1.6h0s0,.1,0,.1c0,0-.1,0-.1,0h0Z" style="fill:#8f5946;"/><path id="cq" d="M95.6,189.1c-.3-.8-.8-2-1.9-1.7-1,.2-1.8,1-2.9,.7-.6-.2-1.1-.4-1.6-.8-.4-.3-.5-.8-.9-1-1.5,0-3.1-.2-4-1.5-1.2-1.8,0-3.7,1.4-4.7h0s.1,0,.1,0c0,0,0,.1,0,.1-.9,.8-1.8,1.8-1.6,3.2,.4,2.1,2.6,2.4,4.3,2.4,.1,0,.3,.1,.4,.2,.7,.9,1.6,1.7,2.7,1.6,.9,0,1.8-.8,2.7-.4,.8,.3,1.1,1.1,1.4,1.8h0c0,0,0,.1,0,.1,0,0-.1,0-.1,0h0Z" style="fill:#8f5946;"/><path id="cr" d="M89.9,178.7c-2.1-1.4-4.8-1.8-7.3-1.2-1.2,.3-2.2,.9-3.4,1.1-.8,.6-1.3,1.7-1,2.6h0c.3,.3,.6,.6,.9,.6,.7,0,1.4,0,2.1,.3,1.3,.4,2.2,1.3,3,2.2,0,0,0,.1,0,.1,0,0-.1,0-.2,0-.9-.7-1.8-1.2-2.8-1.7-.9-.5-1.8-.3-2.8-.5-.2,0-.4-.2-.6-.3l-.2-.2s0,0,0-.1v-.2c0,0,0,0,0,0-.3-1.2,.1-2.7,1.3-3.2,1.2-.5,2.3-.9,3.6-1.3,2.6-.7,5.3,.1,7.5,1.6,0,0,0,0,0,.1,0,0,0,0-.1,0h0Z" style="fill:#8f5946;"/><path id="cs" d="M86.5,192c-.4,1.1-1.5,1.8-2.5,2.2-1.5,.6-3.1,.7-4.5-.2-1.2-.8-2.1-1.8-2.7-3.1-.4-.8-.7-1.7-1.5-2.2-1-.6-2.2-.5-2.9-1.6-.6-1,0-2.2,.5-3.1,1.1-1.6,2.8-2.8,4.7-3.1h0c0,0,.1,0,.2,0,0,0,0,.1,0,.1,0,0-.2,.2-.3,.2-1.5,.7-2.9,1.6-3.9,3-.4,.6-.8,1.3-.7,2.1,0,.6,.6,1,1.2,1.2,.6,.2,1.3,.3,1.8,.7,1,.9,1.5,2.1,2.1,3.3,.8,1.4,2.3,2.4,3.9,2.5,1.6-.3,3.6-.7,4.4-2.2,0,0,0,0,.1,0,0,0,0,0,0,.1h0Z" style="fill:#8f5946;"/><path id="ct" d="M98.8,197.9c-.3,1-.7,1.9-1,2.9-.7,2.3,.2,4.5,.7,6.7,.6,2.5,.8,4.8,1.1,7.3,.3,2.6,1.1,5,2,7.4,.9,2.4,2.1,4.9,4.3,6.4,.2,.1,.2,.3,.1,.5,0,.2-.3,.2-.5,.1-2.4-1.6-3.5-4.2-4.5-6.8-1-2.5-1.4-5.1-1.8-7.7-.2-1.7-.4-3.3-.6-5-.3-2.3-1.3-4.3-1.5-6.5-.2-1.6,.4-3,1.1-4.4,.1-.3,.3-.6,.3-1h0c0,0,0,0,.1,0,0,0,0,0,0,.1h0Z" style="fill:#8f5946;"/><path id="cu" d="M106.1,205.6c0,1,.4,1.8,.6,2.8,.9,3.9,1.4,7.5,2,11.4,.7,4.4,1.4,8.7,2,13,1.6,8.2,2.3,16.6,2.5,24.9,0,.5,0,1.1-.2,1.6,0,0,0,.1-.1,0,0,0-.1,0,0-.1-.2-5-.4-9.9-.9-14.8-.2-2.3-.6-4.6-.9-6.9-.1-1.1-.4-2.1-.6-3.2-.8-5-1.3-9.8-2.2-14.6-.5-4.8-1.7-9.4-2.4-14.2h0c0,0,0,0,0,0s0,0,0,.1h0Z" style="fill:#8f5946;"/><path id="cv" d="M101.3,205.9c.2,.7,.6,1.3,.8,2,.3,1.1,.4,2.2,.7,3.3,1.2,4.3,2.6,8.3,3.2,12.8,.9,6.7,1.2,13.2,1.9,19.8,.2,2.7,.4,5.3,.7,8,.2,1.9,.3,3.8,.4,5.8,0,1,.3,2,.2,3h0c0,.2-.2,.4-.4,.4s-.4-.2-.4-.4c-.4-3.8-.5-7.6-1-11.3-.2-5.5-1-11-1.4-16.6-.2-2.9-.4-5.8-.8-8.8-.2-1.8-.5-3.4-.9-5.1-.5-2.4-1.2-4.5-1.9-6.9-.6-2-.7-4-1.3-6,0,0,0-.1,0-.1,0,0,.1,0,.1,0h0Z" style="fill:#8f5946;"/><path id="cw" d="M112.5,245.4c0,1.3,0,2.5,0,3.8,.2,2.7,.9,5.4,.4,8.1,0,3.1,0,6.1,0,9.2,.1,2.3-.1,4.5,0,6.8,0,0,0,0,0,0s0,0,0,0c0-4.8-.4-9.5-.2-14.2,0-1.8,.4-3.6,.2-5.4-.3-2.8-.6-5.5-.5-8.3h0c0,0,0-.1,0-.1,0,0,.1,0,.1,0h0Z" style="fill:#8f5946;"/><path id="cx" d="M107.5,243.6c0,.2,0,.4,0,.6,.7,2.8,.6,5.5,1,8.3,.3,2,.5,3.8,.6,5.8,.2,2,0,4,0,6,.1,2.7,.4,5.3,0,8.1,0,.5-.1,1.1-.2,1.6,0,0,0,.1-.1,.1s-.1,0-.1-.1c-.2-3.2-.3-6.4-.5-9.5,0-1.9,.2-3.8,0-5.6-.2-4.3-.5-8.5-.9-12.9,0-.8-.2-1.6-.1-2.4h0c0,0,0-.1,0-.1s0,0,0,.1h0Z" style="fill:#8f5946;"/><path id="cy" d="M93.5,194.6c0,.4,.2,.8,0,1.2-.4,1.4-1,2.7-.8,4.2,.3,2.2,1.5,4.1,2,6.3,.6,2.4,.7,4.8,1.1,7.2,.5,2.8,1.1,5.5,2.2,8,.9,2,1.5,4.1,3.2,5.6,1.1,.9,2.5,1.2,3.8,1.3h0c.2,0,.4,.2,.4,.4s-.2,.4-.4,.4c-1.8,0-3.6-.6-4.8-2-1.1-1.2-1.5-2.7-2.2-4.1-1.4-3.2-2.2-6.5-2.7-10-.4-2.5-.5-4.9-1.2-7.3-.8-2.4-2.2-4.6-1.9-7.2,.1-1.1,.8-1.9,1.1-3,0-.3,0-.6,0-.9,0,0,0-.1,0-.1,0,0,.1,0,.1,0h0Z" style="fill:#8f5946;"/><path id="d`" d="M88.7,195.2c0,0,0,.1,0,.2-.5,2-.1,3.9,.3,5.8,.2,1.1,.7,2.1,1.1,3.2,.9,2.3,1,4.7,1.6,7.1,.8,2.9,1.7,5.6,2.8,8.3,1.3,3.2,3.8,5.7,6.7,7.3h0c.2,0,.2,.3,.1,.4,0,.2-.3,.2-.4,.1-3.4-1.3-5.6-4.4-6.8-7.8-1-2.9-1.9-5.7-2.7-8.7-.7-3-1-5.9-2.4-8.6-.8-1.5-1.1-3.1-1.2-4.8,0-1-.2-2.1,.5-2.9h0c0-.1,.2-.2,.3-.1,.1,0,.2,.2,.1,.3h-.1Z" style="fill:#8f5946;"/><path id="da" d="M102.8,228.6c-1.9-.7-3.6-1.9-5.7-2.1-1.3-.2-2.5-.5-3.6-1.1-1.7-.9-2.8-2.5-3.6-4.3-1.6-3.8-2.4-7.8-3.7-11.8-1-2.9-2.7-5.4-3.3-8.6-.3-1.4-.5-2.7-.4-4,0-.9,.2-1.9,.7-2.7h0c0-.1,.2-.1,.3,0,.1,0,.1,.2,0,.3-1.1,2.4-.8,5.2,0,7.7,.8,2.5,2.3,4.7,3.2,7.2,1,3,1.8,6,2.9,9,.8,2.1,1.5,4.4,3.4,5.9,1.3,1.1,2.8,1.5,4.5,1.9,1.6,.3,3,1,4.4,1.8,.2,0,.3,.2,.4,.4,.2,.1,.4,.2,.6,.2,0,0,0,0,0,.1,0,0,0,0-.1,0h0Z" style="fill:#8f5946;"/><path id="db" d="M98.2,226.6c-1.2-.4-2.5-.5-3.8-.5s-1.6-.1-2.3-.6c-2.7-1.5-4.6-3.6-6.2-6.2-.3-.5-.6-1-.9-1.5-1.6-3.1-2.9-6.2-4.2-9.4-1-2.3-1.5-4.7-1.9-7.2-.3-1.7-1.2-3.2-1.4-4.9-.2-1.6-.5-3.1,0-4.7h0c0-.2,.2-.2,.4-.2,.2,0,.2,.2,.2,.4-.2,1.4-.4,2.8-.1,4.3,.5,2.4,1.4,4.4,1.8,6.8,.4,2.2,1,4.3,2,6.3,1.7,3.2,2.9,6.3,4.9,9.4,1.6,2.6,3.5,4.8,6.2,6.2,.5,.3,1.1,.4,1.7,.4,1.3,0,2.6,.5,3.8,1h0c0,0,0,0,0,.1,0,0,0,0-.1,0h0Z" style="fill:#8f5946;"/><path id="dc" d="M90,223.7c-1.3-1.5-3.3-1.9-5-2.8-3.2-1.8-4.7-5-6.3-8.1-1.2-2.2-2.4-4.3-3.4-6.6-.6-1.5-.9-3.1-1.2-4.8-.6-3.2-1.7-5.9-2.3-9.1-.3-1.4-.2-2.7,.2-4,.1-.4,.2-.7,.5-1,0-.2,.3-.2,.5-.1,.2,0,.2,.3,.1,.5-1.1,2.1-1,4.6-.4,6.8,1.1,4,1.8,7.9,3.4,11.7,1.1,2.7,2.6,5.1,4,7.6,1,1.9,2,3.6,3.5,5.2,1.4,1.4,3.2,1.9,4.8,2.8,.6,.6,1.2,1.2,1.7,1.9h0s0,.1,0,.1c0,0-.1,0-.1,0h0Z" style="fill:#8f5946;"/><path id="dd" d="M88.9,222.7c-1.4-1-3.1-1.2-4.9-1.5-2.3-.5-4.1-1.6-5.9-3-2.9-2.3-4.9-5.2-6.6-8.3-1.6-3.6-3-7.2-3.7-11.2-.3-1.8-.3-3.4-.5-5.2-.2-1.8-.2-3.6,0-5.4,.1-2.3,1.1-4.8,3.7-5.2,1.3-.2,2.6-.5,3.8-.8h0c.2,0,.4,0,.4,.2,0,.2,0,.4-.2,.4-1.3,.5-2.6,.6-4,.9-1.5,.3-2.5,1.5-2.9,2.8-1,3.2-.6,6.4-.2,9.7,.4,3.2,1.2,6.3,2.4,9.3,1.5,3.9,3.4,7.5,6.4,10.5,1.4,1.5,3,2.7,4.8,3.6,1.7,.9,3.6,1.1,5.4,1.8,.7,.3,1.4,.8,2,1.2h0s0,0,0,.1c0,0,0,0-.1,0h0Z" style="fill:#8f5946;"/><path id="de" d="M89.3,223.2c-1.3-1.4-3.2-2.1-5.1-2-1.3,.4-2.3,1.3-3.5,1.8-2.1,.8-4.5,.5-6.5-.5-2.6-1.3-4-3.9-5.1-6.5-1.3-2.9-3.2-5.5-4-8.7-1-3.8-1.6-7.4-1.8-11.3-.2-2.9-.6-5.9,.6-8.7,.7-1.6,2.5-2.6,4.3-2.4,.1,0,.2,0,.4,0h0c.2,0,.4,.1,.4,.3,0,.2-.1,.4-.3,.4-.3,.1-.7,0-1.1,0-1,0-2,.3-2.6,1.1-1.2,1.4-1.2,3.4-1.5,5.2,0,4.6,.4,9.2,1.8,13.7,.7,2.2,1.4,4.3,2.6,6.2,1.6,2.6,2.5,5.3,4.3,7.8,2,2.6,5.3,3.5,8.3,2.8,1.6-.7,3-1.9,4.9-1.6,1.7,.3,3.1,1.1,4.2,2.3h0s0,0,0,.1c0,0,0,0-.1,0h0Z" style="fill:#8f5946;"/><path id="df" d="M73.9,222c-.3-.2-.7-.4-1.1-.6h-.1c-.5,.3-.8,.8-1.3,.9-.6,.1-1.2,0-1.7-.1-3.5-1.3-6-4.1-7.6-7.3-1.5-3-2.1-6.4-2.5-9.7-.8-3.9-1.5-7.7-.8-11.8,.4-2.2,1.2-4.3,2.7-6,.8-.8,1.9-1.4,3-1.2,.1,0,.2,.1,.2,.2s-.1,.2-.2,.2c-2.8,0-4.1,2.8-5,5-.8,3.1-.9,6.3-.4,9.5,.4,2.6,1,4.9,1.4,7.4,.6,1.7,1,3.4,1.7,5.2,.5,1.4,1.4,2.5,2.2,3.7,1.3,1.9,3.1,3.1,5,4,.6,.3,1.4,.5,2.1,.2,.3-.2,.6-.4,.9-.5h0s0,0,.2,0h.2c.4,.2,.8,.5,1.2,.8h0s0,0,0,.1c0,0,0,0-.1,0h0Z" style="fill:#8f5946;"/><path id="dg" d="M69.3,221.8c-.3-.3-.7-.6-1.1-.8-1.1-.5-2.4-.2-3.6-.4-.9,0-1.8-.4-2.6-.7-2.9-1-4.6-3.6-5.8-6.2-.9-3-1.2-6.1-1.5-9.2-.2-2.5-.1-4.9,.3-7.3,1.1-3.5,2.1-7.3,5.1-9.8,.7-.6,1.7-.8,2.6-.9h0c.1,0,.2,0,.2,.2,0,.1,0,.2-.2,.2-1.3,0-2.5,.6-3.4,1.7-2,2.5-3.1,5.3-3.8,8.4-.7,2.8-.6,5.6-.2,8.4,.5,4,.8,7.9,3.3,11.3,1.5,2,3.7,3,6,3.4,1,0,2.1,0,3.1,.3,.7,.2,1.2,.7,1.7,1.2,0,0,0,0,0,.1,0,0,0,0-.1,0h0Z" style="fill:#8f5946;"/><path id="dh" d="M61.8,219.6c-1-.3-1.9-.9-2.7-1.5-.7-.6-1.6-.7-2.4-1-5.8-2.1-7.2-9-7-14.5,.4-2.2,.6-4.4,1.1-6.6,.1-.6,.3-1.1,.5-1.6,1-1.9,1.6-4,3.2-5.6,1.5-1.6,3.8-1.9,5.9-1.8,0,0,.2,0,.2,0,0,0,0,.2,0,.2-.1,0-.2,.1-.3,.1-1.9,0-3.9,.2-5.3,1.5-1.6,1.5-2.3,3.6-3,5.6-.9,2.4-1,4.9-1.4,7.3-.6,5.8,1.2,13.6,7.8,14.9,1.2,.5,2.1,1.6,3.2,2.3,.2,.1,.3,.2,.5,.2,0,0,0,0,0,.2,0,0,0,0-.2,0h0Z" style="fill:#8f5946;"/><path id="di" d="M58.6,187.3c-1.8,.4-3.8,.8-5.5-.5-1-.8-2.3,0-3,.9-1.2,1.7-2.1,3.4-2.7,5.3-.7,2.2-1.2,4.5-1.3,6.8,0,2.9-.2,5.8,.6,8.7,.6,2.1,1.8,3.9,3.7,5.1,1,.6,2.1,.8,3.2,.9h0c.1,0,.3,.1,.3,.3s-.1,.3-.3,.3c-1.4,.2-2.8-.4-3.9-1.2-2.2-1.7-3.4-4.1-3.8-6.9-.2-1.5-.1-2.9-.2-4.4,0-1,0-1.9,0-2.9,.3-2.4,.8-4.7,1.5-6.9,.5-1.5,1.3-2.9,2-4.3,.3-.7,.8-1.4,1.4-1.9,1-.8,2.4-.8,3.3,.1,1.5,.8,3.1,.6,4.7,.4h0c0,0,.1,0,.1,0,0,0,0,.1,0,.1h0Z" style="fill:#8f5946;"/><path id="dj" d="M52.8,186.6c-1,0-1.9,0-2.8-.5-1.1-.3-2.4,.2-3,1.2-.6,1.1-1,2.2-1.6,3.2-.6,1-1.2,1.9-1.6,3-1.4,4.1-2.6,8.7-.7,12.9,.6,1.3,2,2.1,3.4,2.4,0,0,0,0,0,0h0c.2,0,.3,.2,.3,.4,0,.2-.2,.3-.4,.3-1.7,0-3.2-1.3-3.8-2.8-1.6-3.5-.8-7.3,.1-10.9,.4-1.5,.8-2.8,1.7-4.1,1.2-1.8,1.6-3.9,3.1-5.4,.5-.5,1.3-.7,2-.7,.8,0,1.4,.5,2.2,.7,.4,0,.8,0,1.2,.2h0c0,0,0,0,0,.1,0,0,0,0-.1,0h0Z" style="fill:#8f5946;"/><path id="dk" d="M50.4,186.1c-.7-.1-1.4-.2-2.1-.5-.5-.2-.9-.7-1.5-.8-.6-.2-1.2-.2-1.7,0-2,1-3.4,2.7-4.5,4.7-1.2,2.2-2.2,4.4-2.5,6.9-.3,2-.5,4,.6,5.8,1.1,1.9,3.3,2.5,4.2,4.4h0c0,0,0,.2,0,.3,0,0-.2,0-.3,0-1.4-1.6-3.3-2.5-4.5-4.4-.5-.8-.7-1.8-.8-2.7-.3-3.8,1.3-7.3,3-10.6,.9-1.7,2.2-2.9,3.7-4.2,.5-.4,1.1-.7,1.7-.8,1.1-.2,1.9,.3,2.7,.9,.6,.4,1.3,.5,2,.6h0c0,0,0,0,0,.1,0,0,0,0-.1,0h0Z" style="fill:#8f5946;"/><path id="dl" d="M49,185.7c-1.3-.4-2.4-1.3-3.6-2.2-1.3-.9-2.9-.5-4.2,.3-2.7,1.6-5.2,3.7-6.2,6.7-.4,3.3,.5,6.8,2.8,9.3h0c0,.1,0,.3,0,.4-.1,0-.3,0-.4,0-1.3-1.2-2.2-2.8-2.6-4.6-.4-1.8-.7-3.6-.1-5.3,.5-1.5,1.5-2.8,2.7-3.9,1.8-1.7,3.6-3.4,6.2-3.7,.9-.1,1.8,.1,2.5,.8,1,.9,1.9,1.8,3.1,2.1,0,0,0,0,0,.1,0,0,0,0-.1,0h0Z" style="fill:#8f5946;"/><path id="dm" d="M46.2,183.9c-.5-.3-1-.7-1.6-.8-1.6-.2-3-.8-4.5-1.3-1.2-.4-2.5-.3-3.8-.1-2.2,.4-3.4,2.5-3.7,4.6-.4,3.3,1.5,6,2.6,8.8,.3,.6,.5,1.3,.6,2h0c0,.1,0,.2-.1,.2-.1,0-.2,0-.2-.1-1.3-2.8-3-5.6-3.5-8.7,0-1.3,0-2.7,.4-3.9,.6-1.3,1.5-2.6,2.8-3.2,1.6-.7,3.3-.6,4.9-.1,.9,.2,1.7,.7,2.6,1,1.2,.4,2.5,.7,3.5,1.5,0,0,0,0,0,.1,0,0,0,0-.1,0h0Z" style="fill:#8f5946;"/><path id="dn" d="M40.8,181.9c-2.2-.6-4.1-1.7-5.9-3.1-1.1-.9-2.9-1.1-3.8,.2-2.1,3-.3,6.3,1.3,9,0,.1,0,.3,0,.4h0c0,.1,0,.2-.2,.3-.1,0-.2,0-.3-.2,0-.1,0-.3-.2-.4-1.4-1.8-2.3-3.8-2.3-6,0-1.2,.5-2.4,1.2-3.5,1-1.5,3.1-1.3,4.4-.3,1.8,1.4,3.5,2.7,5.7,3.3h0s0,0,0,.1c0,0,0,0-.1,0h0Z" style="fill:#8f5946;"/><path id="do" d="M86.2,168.6c.5,1.8,.3,3.7,.2,5.5-.1,1.2-.6,2.5-1.8,2.9-.1,0-.2,0-.3-.1,0-.1,0-.2,.1-.3,.8-.4,1.2-1.3,1.4-2.2,.4-2,.7-3.9,.2-5.8,0,0,0-.1,0-.1,0,0,.1,0,.1,0h0Z" style="fill:#8f5946;"/><path id="dp" d="M83.3,167.5c.7,2,.6,4,.2,6.1-.4,1.7-1,3.6-2.7,4.4-.1,0-.2,0-.3-.1,0-.1,0-.2,.1-.3,1.3-.9,2.1-2.4,2.4-4,.4-2,.7-4,0-6,0,0,0-.1,0-.1s.1,0,.1,0h0Z" style="fill:#8f5946;"/><path id="dq" d="M80.6,172.2c-.4,2.2-.3,4.8-1.8,6.6,0,0-.2,.1-.3,0,0,0-.1-.2,0-.3,1.3-1.8,1.5-4.2,2-6.3,0,0,0,0,.1,0,0,0,0,0,0,.1h0Z" style="fill:#8f5946;"/><path id="dr" d="M76.9,175.7c-.1,.3-.4,.6-.4,1-.3,1.9,0,4.3-1.6,5.7-.1,0-.2,0-.3,0,0-.1,0-.2,0-.3,.1,0,.2-.2,.3-.3,1.2-1.7,.9-3.6,1.4-5.5,0-.2,.2-.4,.3-.6,0,0,0,0,.1,0,0,0,0,0,0,.1h0Z" style="fill:#8f5946;"/><path id="ds" d="M73.3,177.7c-.3,.2-.5,.4-.6,.7-.5,1.5-.4,3.4-1.7,4.5,0,0-.2,0-.3,0,0,0,0-.2,0-.3,1.2-1.1,1.2-2.9,1.8-4.4,.1-.3,.4-.5,.7-.7h0s.1,0,.1,0c0,0,0,.1,0,.1h0Z" style="fill:#8f5946;"/><path id="dt" d="M69.5,179.1c-.2,.1-.3,.3-.4,.6-.3,1.8-.2,3.8-1.3,5.3-.7,.4-1.6,.6-2.3,.2,0,0,0,0,0-.1,0,0,0,0,.1,0,.6,.2,1.3,.1,1.9-.3,.9-1.4,.9-3.1,1.3-4.7,0-.4,.2-.8,.5-1.1h0s.1,0,.1,0c0,0,0,.1,0,.1h0Z" style="fill:#8f5946;"/><path id="du" d="M67.2,179.9c-.3,.2-.7,.3-.8,.7-.4,2-.3,4.3-2,5.7-.4,.3-.8,.2-1.3,.3,0,0-.1,0-.2,0s0-.1,0-.2c2.5-.7,2.5-3.6,3.1-5.7,.1-.5,.6-.8,1.1-1h0s.1,0,.1,0c0,0,0,.1,0,.1h0Z" style="fill:#8f5946;"/><path id="dv" d="M64.2,180.3c-.2,.1-.3,.2-.4,.4-.3,.8-.4,1.7-.6,2.5-.4,1.2-.9,2.4-1.8,3.3-.7,.8-2,1.1-2.8,.4,0,0-.1-.1-.1-.2,0,0,.1-.1,.2-.1,.8,.2,1.7,0,2.3-.6,1.4-1.4,1.8-3.2,2.3-5,.1-.4,.4-.7,.7-.9h0s.1,0,.1,0c0,0,0,.1,0,.1h0Z" style="fill:#8f5946;"/><path id="dw" d="M61,179.2c.3,2,.1,4.1-.8,6-.6,1.4-1.9,2.4-3.5,2.4,0,0-.1,0-.1-.1s0-.1,.1-.1c3.4-.9,4.6-5,4.1-8.1,0,0,0-.1,0-.1,0,0,.1,0,.1,0h0Z" style="fill:#8f5946;"/><path id="dx" d="M59.8,175.3c-.1,.3-.2,.5-.3,.8-.4,1.4-.3,2.8-.7,4.2-.5,2.1-.9,4-2.3,5.7-.8,1-2.1,1.1-3.2,.6,0,0-.1,0,0-.1,0,0,0-.1,.2,0,1,.3,2.1,0,2.7-.9,1.2-1.6,1.8-3.4,2.3-5.3,.5-1.7,.5-3.4,1.1-5.1h0c0,0,0,0,.1,0,0,0,0,0,0,.1h0Z" style="fill:#8f5946;"/><path id="dy" d="M56,179.7c-.2,.3-.5,.7-.6,1.1-.4,1.9-.5,4-2.1,5.2-1.2,.5-2.5,.4-3.7-.1,0,0,0,0,0-.1,0,0,0,0,.1,0,1.2,.3,2.6,.6,3.6-.3,1.4-1.3,1.4-3.4,2.1-5.1,0-.2,.2-.4,.4-.6h0s0,0,.1,0c0,0,0,0,0,.1h0Z" style="fill:#8f5946;"/><path id="e`" d="M51.8,181.3c-.2,1.4-.7,2.8-1.9,3.8-.6,.5-1.5,.5-2.2,.1,0,0,0,0,0-.1,0,0,0,0,.2,0,.6,.2,1.3,0,1.9-.4,1.1-.8,1.7-2.1,1.9-3.4h0c0,0,0,0,.1,0,0,0,0,0,0,.1h0Z" style="fill:#8f5946;"/><path id="ea" d="M47.7,181.3c-.4,.6-.5,1.3-.8,2-.2,.3-.5,.6-.9,.5,0,0-.1,0-.1-.1,0,0,0-.1,.1-.2,.3,0,.5-.2,.6-.5,.4-.6,.6-1.2,.9-1.8,0,0,0,0,.1,0,0,0,0,0,0,.1h0Z" style="fill:#8f5946;"/><path id="eb" d="M44.8,180.5c-.5,.8-.9,2.2-2.1,2,0,0-.1,0-.1-.1,0,0,0-.1,.2-.1,1,0,1.4-1.1,1.9-1.8h0s0,0,.1,0c0,0,0,0,0,.1h0Z" style="fill:#8f5946;"/><path id="ec" d="M41.5,179.1c-.4,.8-.5,2-1.5,2.3h-.2c0,0,0,0-.1,0h0c-.1,0-.2-.1-.3-.1,0,0-.1-.1,0-.2,0,0,.1-.1,.2,0,0,0,.1,0,.2,0h.3c.8-.3,1-1.3,1.4-2h0c0,0,0,0,.1,0,0,0,0,0,0,.1h0Z" style="fill:#8f5946;"/><path id="ed" d="M39.2,178.4c-.5,.8-1,2-2.2,1.9,0,0-.2,0-.2-.2s0-.2,.2-.2c1,0,1.5-1,2-1.6h0s0,0,.1,0c0,0,0,0,0,.1h0Z" style="fill:#8f5946;"/><path id="ee" d="M36.1,176.4c-.7,.5-.9,1.5-.6,2.3h0c0,0,0,.2-.1,.2,0,0-.2,0-.2-.1-.4-.9,0-1.9,.7-2.5,0,0,0,0,.1,0,0,0,0,.1,0,.1h0Z" style="fill:#8f5946;"/><path id="ef" d="M34.6,173.2c0,.8,.6,2-.4,2.4-1,.5-2.3,1-2.4,2.3,0,.1-.1,.2-.2,.3,0,0-.2,0-.2,0,0,0,0-.2,0-.2,0-1.5,1.1-2.6,2.5-2.8,.8-.4,.5-1.4,.5-2.1h0c0,0,0-.1,0-.1s0,0,0,.1h0Z" style="fill:#8f5946;"/><path id="eg" d="M116.1,86.4c0-2.3-2-3.8-3.6-5.2-1.2-1.1-3-2.2-2.7-4,.3-1.9,2-2.9,3.1-4.5,.3-.4,.4-.9,.3-1.4-.5-2.8-2-5.8-5.1-6.2-3.5-.5-6.8-.4-10.4-1.1-4-.8-7.6-1.4-11.4-2.7-6.6-2.2-11.9-6.4-17.9-9.9-.4-.2-.7-.4-1.1-.4h-.3c-.3,.2-.4,.6-.2,.9,1.2,2.1,3.1,3.3,5,4.8,.9,.8,1.7,1.8,1.4,3.1h0l-.5-.2h.1c1.2-.7,2.6-.4,3.8-.1,2.5,.4,4.7,1.6,6.7,3.2,2.6,2,4.9,4.2,5.8,7.4,.6,1.9,.3,3.8,.4,5.8h-.1c.2,0,.4,0,.6,0,3.5-1.4,7.3-.9,10.8,.2,6.5,2.8,10.3,9.4,12.3,15.9,1.1,6.5,.2,13.3-3.4,19.2-.1,.2-.1,.5,0,.7,1.2,1.7,2.3,3.2,2.4,5.2,.1,2-.5,4.5,1.4,6,.6,.5,1.4,.5,2.1,.5,.2,0,.3,0,.5,.1,.2,0,.3,.2,.3,.4,0,.2-.2,.3-.4,.3-1.2-.2-2.6-.1-3.5-1.3-1.4-1.9-.9-4-1.1-6.1-.2-1.6-.8-2.9-2-4.1-.5-.5-.7-1.2-.4-1.7,3.3-5.9,4.5-12.5,3.3-19-1.8-5.6-4.5-11-9.8-14.3-1.5-.9-3-1.4-4.7-1.8-2.5-.4-5-.6-7.4,.4-.3,.1-.6,.2-1,0h-.3c0,0-.1,0-.2-.1l-.2-.4h0c0-1.8,.2-3.5-.3-5.3-.4-1.5-1.1-2.9-2.1-4.1-3.3-3.8-7.9-7.1-13.1-6.5l-.4,.2c0,0-.1,0-.2,0-.2,0-.3-.1-.3-.3v-.3c0-.2,.2-.5,0-.7-1.1-2.3-3.7-3.1-5.3-5.1-.6-.8-1.7-1.9-.8-2.9l.4-.3s.1,0,.2,0h.4c.5,0,1,.2,1.5,.5,2.8,1.4,5.1,3.2,7.9,5,3.2,2,6.4,3.5,9.7,4.9,7.1,2.1,14.3,3.3,21.7,3.8,3.5,.2,5.4,3.6,5.8,6.8,0,.6,0,1.3-.4,1.8-1.1,1.8-4.2,3.2-2.8,5.6,1.8,2.8,5.8,4.2,5.6,7.8,0,0,0,.1-.1,.1s0,0,0-.1h0Z" style="fill:#8f5946;"/><path id="eh" d="M115.6,65c-2.3,.3-4.5,.2-6.8,0-.8,0-1.5-.2-2.3-.3-3.6-.5-7-.7-10.5-1.4,0,0,0,0,0-.1,0,0,0,0,.1,0,3.5,.7,7,.8,10.5,1.3,3.1,.4,6,.4,9.1,.4,0,0,.1,0,.1,.1s0,.1-.1,.1h0Z" style="fill:#8f5946;"/><path id="ei" d="M116.4,52.2c-1.9,.9-4.1,.7-6.2,.6-1.9,0-3.7-.2-5.6-.6-3-.5-5.7-1.1-8.5-2.1-3.2-1.2-6.1-2.7-9.2-4.1-1.8-.8-3.3-1.6-5-2.8-1.6-1.1-2.9-2.2-4.3-3.4,0,0,0-.1,0-.1,0,0,0,0,.1,0,2.1,1.8,4.3,3.4,6.8,4.6,2.1,1,4.1,1.8,6.2,2.8,1.8,.9,3.6,1.8,5.5,2.5,2.9,1.1,5.7,1.6,8.7,2.2,2.5,.4,4.9,.6,7.3,.6,1.3,0,2.7,.1,4-.3h0c0,0,.1,0,.1,0,0,0,0,.1,0,.1h0Z" style="fill:#8f5946;"/><path id="ej" d="M59.6,117.3c.5-2-.3-3.8-1-5.7-2.7-7.7-3.3-15.7-2.5-23.7,.2-1.8,1.5-3.2,2.5-4.8,.2-.5,.5-1.2,.2-1.7-1.2-1.3-3.3-2-4.2-1-3.8,4.2-3,10.3-2.5,15.8,.8,7.8,3.3,15,6.2,22.3,.2,.5,.8,.8,1.2,.5,.3-.5,0-1.2,.2-1.8h0Z" style="fill:#d6d3b8;"/></g><path id="ek" d="M97.7,147c-1.3,1,2.7,5.2,1.9,10.8-1,6.4-7.6,9.8-6.4,11.7,.6,1,2.5,.2,5.6,.8,3.6,.8,4.6,2.9,7.6,4.7,1.2,.7,5,2.7,9.9,2.5,1.4,0,6-.2,9.7-3.2,2.7-2.1,3.4-4.5,6.3-5.1,2.1-.4,3.2,.5,3.7-.2,1.1-1.4-4.9-5.5-5.4-11.7-.5-5.5,3.8-9.4,2.7-10.3-1-.9-4.2,3.6-10.5,5.6-7.8,2.4-15.3-.6-16.2-1-5.2-2.2-7.7-5.5-8.8-4.7Z" style="fill:#d6d3b8;"/><g id="el"><path d="M92.3,112.2c1.1-1.3,7,2.4,7.6,2.8,2.7,1.7,4.1,2.6,5.1,4.1,2.2,3.5,0,6,.9,12,1,5.7,4,8.9,3.4,9.2-.6,.4-4.8-3.2-6.9-8.5-2-5-.2-6.7-2.5-9.7-2-2.5-4.3-2.5-6.4-6-.4-.6-1.9-3.1-1.1-3.9Z" style="fill:#e5e1c6;"/><path d="M140,112.2c-1.1-1.3-7,2.4-7.6,2.8-2.7,1.7-4.1,2.6-5.1,4.1-2.2,3.5,0,6-.9,12-1,5.7-4,8.9-3.4,9.2,.6,.4,4.8-3.2,6.9-8.5,2-5,.2-6.7,2.5-9.7,2-2.5,4.3-2.5,6.4-6,.4-.6,1.9-3.1,1.1-3.9Z" style="fill:#e5e1c6;"/></g><g id="em"><path d="M63.9,136c-.8,2.4,2.9,5.9,5.5,7.6,4.4,2.9,7,1.1,10.5,4.5,2.9,2.7,3.3,5.6,3.4,6.3,.1,1.1,.4,2.6-.5,3.6-1.3,1.4-4.6,1.1-8.1-1,.1,.2,1.5,3.5,4.6,4.1,3.4,.6,6.7-2.4,7.6-5.3,1.3-4.8-3.6-11.1-8.9-13.4-2.9-1.2-6.2-1.3-6.3-2.7,0-.7,.7-1.7,2.4-3.6,1.4-1.6,1.8-1.8,1.7-2.1-.4-1.4-10.7-1.4-11.8,2.1Z" style="fill:#e5e1c6;"/><path d="M168.4,136c.8,2.4-2.9,5.9-5.5,7.6-4.4,2.9-7,1.1-10.5,4.5-2.9,2.7-3.3,5.6-3.4,6.3-.1,1.1-.4,2.6,.5,3.6,1.3,1.4,4.6,1.1,8.1-1-.1,.2-1.5,3.5-4.6,4.1-3.4,.6-6.7-2.4-7.6-5.3-1.3-4.8,3.6-11.1,8.9-13.4,2.9-1.2,6.2-1.3,6.3-2.7,0-.7-.7-1.7-2.4-3.6-1.4-1.6-1.8-1.8-1.7-2.1,.4-1.4,10.7-1.4,11.8,2.1Z" style="fill:#e5e1c6;"/></g></g></g></g></g></svg>