<svg xmlns="http://www.w3.org/2000/svg" viewBox="0 0 179.1 197.8">
    <g id="a"/>
    <g id="b">
        <g id="c">
            <g id="d">
                <path id="e"
                      d="M119.5,103.2s-1.8-.7-2.6-1.4c-.8-.7-1.5-1.2-1.8-2.2-.4-1.1-.5-1.5-.5-2.2s0-1-.4-1.5c-.4-.6-.7-.9-.5-1.4,.3-.5,.6-.7,.7-1s.1-.8,.1-.8c0,0-.3,0-.4-.5,0-.5,0-1.1,.2-1.6,.2-.5,.5-.9,.6-1.3,.1-.4,0-1,0-1.3s-.1-.8,.4-1.2,.8-.9,1.4-1.1c.6-.3,1.2-.3,1.6-.4,.4-.1,1.2,0,1.2,0,0,0,0-.4,.4-.8s1-1,1.5-1.1c.6-.1,1.1-.2,1.1-.2,0,0,.8-.3,1.1-.4s.6-.2,1-.7c.4-.5,.2-.8,1-1.1s1.4-.6,2.3-.2c.9,.4,1.5,.4,1.6,1.1,.1,.7,.3,1,.2,1.5,0,.5,.2,1.1,.2,1.1l.6,.6s-.3-.9,0-1.5,.1-1.1,.8-1.5c.7-.4,.8-.5,1.5-.5s1.1-.3,1.6,.3c.6,.6,1.4,1,2,1.3s1.3,.5,1.9,.9c.6,.4,.9,.4,1.1,.8,.2,.4,.5,.9,.5,.9l.7-.5s.7-.4,1.1-.3c.5,.1,1.3,.5,1.7,1,.4,.5,.7,.9,.9,1.3,.3,.4,.4,.5,.8,.7,.4,.2,.7,.4,.7,.4l.2,.8v.8c.1,0,.4-.1,.7-.2,.4,0,1.1,.2,1.5,.2s.8,0,1.3,.3c.5,.3,1,.4,1.2,.8,.2,.4,.6,1.2,.6,1.6,0,.4,.3,.8,.7,1.1,.4,.3,.7,.4,1.1,.6,.4,.2,.8,.5,1,1s.3,1.9,.3,1.9c0,0,.6,.5,1,.8,.4,.3,1.1,.7,1.2,1.2s.4,1.6,.4,2,.6,1.7,.6,1.7l.6,.9v.6s.5,.8,.7,1.3c.2,.5,.5,1.5,.2,2.1-.3,.6-.6,1.8-.9,2.3-.3,.6-.3,1.1-.5,1.4-.2,.4-.7,.8-.7,.8,0,0,.3,.8,0,1.3-.3,.5-.8,.9-1.1,1.5-.3,.6-.6,1.3-.8,1.7-.2,.5-.4,.9-.8,1.1s-1.3,.3-1.3,.3c0,0,.2,.6,0,1-.3,.4-.5,.7-1,1.1-.5,.5-1,.9-1.6,1.2s-1.1,.5-1.5,.8-.6,.6-.9,.9c-.3,.4-.8,.8-1.3,1.1-.6,.3-1.4,.6-1.8,1.1-.4,.5-.5,.9-1,1.3-.5,.4-.5,.9-1,.9-.5,0-.8-.2-1.2-.3-.5-.1-.7-.2-1.2,0-.5,.2-.9,.5-.9,.5l-1-.5s0,.3-.5,.6-1.1,.5-1.9,.6c-.8,.1-1.3,.1-1.9,0-.6-.1-.8-.2-1.4,.1-.6,.3-1,.5-1.5,.7-.6,.2-1,.5-1.4,.3-.4-.2-.9-.4-1.2-.7-.3-.3-.5-.7-.5-.7,0,0-.2,.5-.7,.7-.5,.2-1.4,.6-2,.5-.6,0-1.4-.4-1.9-.7-.6-.4-1.6-.8-1.6-.8,0,0-.5,.3-.9,.2-.4,0-1.5-.4-2-1s-.9-1.5-.9-2.3,0-1.4,.1-1.7c.2-.4,.4-1,.4-1,0,0-.6,.7-.9,.8-.4,.1-1,.1-1.4-.3-.4-.4-.7-.7-1-1.5s-.8-1.6-.8-2.7,.4-2.5,.5-3.8,.7-2.7,1-3.6c.3-.9,.6-1.6,1.1-2.3,.5-.7,1.3-1.3,1.9-1.8,.6-.5,.5-.5,1.3-.9,.8-.4,1.1-.9,1.9-1,.8-.1,1.3-.2,2-.2,.7,0,1.7,.4,2.2,.6,.6,.3-.4-3.1-.4-3.1,0,0-2.7,.4-3.4,.6-.7,.2-3.2,.7-3.2,.7Z"
                      style="fill:#f0e1df;"/>
                <path id="f"
                      d="M56,67.1c.8,.8,2.8,3.2,3.5,3.6,.7,.4,2,1.1,3,.7s1.8-1.1,2.8-1.1,2.8-.5,4.2,0,3.9,1.7,4.6,2.8,1.8,3.2,1.7,5.7c0,2.5-1.1,5.7-2.1,7.1s-3.5,4-4.6,5.1-3.5,2.6-4.6,3.3-4.3,1.9-6.3,1.8-4.5-.2-6.4-.7-3.1-1-4.1-1.4-2.8-1.2-2.8-1.2c0,0-3.6-.7-5.5-1.4-2-.8-6.2-3.3-8.3-4.2s-4.9-2-6.6-2.8-3.4-1.4-3.4-1.4c0,0-.9,0-1.7,0s-2.6-1-3.7-1.7-3.1-1.9-3.8-2.7c-.7-.8-1.7-2.3-2-2.7s-.9-1.3-.9-1.3c0,0-1.1-.4-1.9-1.2s-2.2-2.4-2.7-4c-.5-1.6-.7-3.2-1.1-4.4-.4-1.2-.9-3.2-1.2-3.9s-.7-1.8-1.2-2.8c-.5-1-.8-2.6-.7-3.7,.1-1.1,.6-2.8,.8-3.5,.2-.8,.7-2.1,.8-2.7s.3-2.2,.3-2.2c0,0-.3-1.2,0-2.2s.9-2.9,1.4-3.7,1.9-2.8,2.8-3.7c.9-.9,1.5-1.4,1.9-1.8s.5-.7,.6-1.2c0-.5,.2-1.6,.4-2.1,.2-.6,.7-1.7,1.2-2.3,.5-.6,1.7-2.3,2.3-3.1s1.7-2.2,2.5-2.9,2.4-2.2,3.4-3,3.5-2.4,4.4-3.2,2.6-2.3,3.6-2.9,3.5-2.3,4.9-2.9,3.3-1.4,4.1-1.7,1.5-.5,1.5-.5c0,0,.5-.4,1.3-.7,.8-.4,2.3-1,3.2-1.2s2.2-.5,2.8-.6,.5,0,1.6-.6c1.1-.6,2.2-1,3.1-1.5,.9-.5,3.7-1.7,4.7-1.9,1-.2,3.9-.5,4.7-.4s1.8,.6,1.8,.6c0,0,.9-.5,1.7-1s2-1.1,2.8-1.2,2-.3,3-.2c1,.2,3.5,.8,4.3,1.1s1.9,.6,2.6,.5c.7-.1,1.8-.1,2.2,0,.4,0,1.2,.2,1.2,.2,0,0,1.1-.5,1.6-.8,.5-.3,1.7-.7,2.3-.7,.6,0,2.7,.2,3.4,.5,.7,.3,2.4,.9,3.1,1.1s3.1,.4,3.9,.2c.8-.2,2.9-.5,3.5-.5,.6,0,2,0,2.7,.2s2.8,1.1,2.8,1.1c0,0,.6-.3,.9-.3s1.7-.3,2.1-.2c.4,.1,1.9,.5,2.4,.7,.5,.3,2.3,.8,3,1.1,.7,.3,3.4,.9,4,1.2s2.7,1.3,2.7,1.3c0,0,1.3-.1,2.1-.1s2.8,.2,3.5,.5c.7,.3,2.2,.9,2.8,1.4s2.4,2,3.1,2.5c.7,.5,2.6,1.6,3.3,1.8,.7,.3,2.3,1,2.3,1,0,0,2.4,.4,3.5,.8s3.6,2.1,4.5,2.8c1,.7,3.9,3.2,4.7,4,.8,.9,2.9,3.1,3.5,3.7,.6,.7,2.6,2.8,3.5,3.4,.9,.6,4,3.1,4.9,4,.8,.9,3.1,3.3,3.7,4.4s1.6,2.9,1.8,3.7c.2,.8,.5,1.6,.9,2.2,.4,.6,1.3,1.7,1.6,2.4s.6,2.6,.6,2.6c0,0,.4,.4,.9,1,.5,.6,2.8,3.6,3.4,4.5s2.1,3.5,2.3,4.4c.2,.9,.5,2.9,.5,2.9,0,0,.8,1.8,1.3,2.6,.6,.8,1.8,4.2,2.4,5.5s1.4,4.6,1.4,6.2,0,4.4-.4,5.4c-.4,1-1,2.6-1.2,3-.2,.4-.3,1.4-.3,1.4,0,0,.2,1.7,0,2.8s-.4,3.1-.8,4.1c-.5,1-1.2,3-1.9,3.9-.7,.9-1.9,2.7-2.5,3.2-.6,.5-1.9,1.6-2.8,1.7-.9,.1-2.8,.3-3.7-.2-.9-.5-4.2-2.6-4.8-3.4-.6-.8-1.5-2.1-1.7-2.4-.3-.3-.7-.6-.7-.6,0,0-1.7-.7-2.4-1.3-.7-.6-2.9-2.7-3.5-3.3s-5.3-4.3-6.7-5.3c-1.5-.9-5.2-3.5-6.2-3.9-1-.4-4-1.5-4.9-1.8-.9-.2-3-.6-3.7-.6-.7,0-1.4,.3-1.7,.6-.3,.4-.5,.8,0,1.1s.8,.3,1.7,.4c.9,.1,1.2,.2,2.3,.3,1.1,.2,2.2,.2,3.3,.9,1,.6,2.7,1.5,3.5,2,.9,.5,2.4,1.5,3.1,2,.8,.5,2,1.6,2.6,2.2,.6,.6,2.3,2.6,2.3,2.6,0,0-1.2-.3-1.7-.1-.5,.2-.5-.5-.5-.5v-.9l-1.1-.7s-.7-.9-1.1-1.3c-.4-.4-1.4-1.1-1.8-1.3-.4-.2-1.1-.1-1.4,0s-.7,.5-.7,.5c0,0-.4-.8-.8-1.1-.4-.3-1.8-1-2.5-1.3-.8-.4-1.9-1.2-2.3-1.4-.5-.2-1.8-.4-2.3-.1-.5,.3-1.1,.8-1.3,1.2s-.3,1.1-.3,1.4,.1,.8,.1,.8c0,0-.6-.3-.8-.8-.2-.6,0-1.2-.1-1.7s-.5-1.4-1.1-1.6c-.7-.2-1.8-.4-2.3-.2-.6,.3-1,.7-1.2,1-.2,.3-.6,.7-.9,.8-.4,.1-1.2,.6-1.2,.6l-.3,.3s-.4-.2-.8,0c-.4,.1-1.3,.4-1.5,.8-.3,.4-.6,1.1-.6,1.1,0,0-.6-.2-1.2,0-.6,.1-1.5,.3-1.9,.7-.4,.4-1,.7-1.2,1-.2,.4-.4,.7-.3,1.1,.1,.4,.1,1,0,1.3s-.4,.8-.6,1.3-.3,1-.2,1.4c.2,.4,.4,.9,.4,.9,0,0-.2,.5-.5,.8s-.6,.6-.5,1c.1,.5,.4,1,.6,1.4s.2,1.2,.3,1.8c.1,.6,.2,1.4,.6,2,.4,.6,.7,1.4,1.4,1.7,.7,.4,2.9,1.4,2.9,1.4,0,0-1.9,.3-2.7,0-.9-.3-3.2-1.5-3.8-2s-3-2.7-3.4-3.2c-.4-.6-2.1-2.7-2.5-3.9-.4-1.2-2-4-2.3-5.4-.4-1.4-1.2-4.8-1.2-6.2s.4-4.9,.9-6.2,2.1-3,2.8-3.7c.7-.7,2.1-1.3,3.1-1.4,1-.1,2.9-.2,3.8,0,.9,.3,2,.9,2.7,1.3,.7,.4,1.1,.5,1.7,.4,.6-.1,.9,0,1.2-.4,.4-.4,.5-.6,.5-.8s-.1-.8-.1-.8c0,0,1,.7,2.1,1s3.3,.9,5.5,0c2.2-.9,3.4-2.8,3.8-4,.4-1.3,.8-3.1,.1-4.9-.7-1.8-2.4-5.3-3.5-6.6-1.2-1.3-3.8-4-7.8-6.1-4-2.1-7.7-3.9-8.6-4.7-1-.8-4.3-3.3-5.7-4.7-1.3-1.3-2.5-2.9-3.4-3.6s-3.6-2.4-4.7-2.8c-1.1-.4-4.2-1-5.7-.9-1.5,0-7.2,.4-8.9,.7s-8.7,1.2-10.5,1.5-7.8,1.5-9.2,1.9-6.2,2-7.3,2.7c-1.1,.7-4.2,2.9-5.1,3.7-.9,.8-3.2,3.3-3.7,4.1-.6,.8-1.8,3.5-2,4.5-.2,1-.3,3.5-.1,4.4,.2,.9,.6,2.6,1,3.2s1.1,1.6,2,1.9c.9,.4,3.5,1.4,4.4,2.1s3.2,2.7,3.2,2.7Z"
                      style="fill:#f0e1df;"/>
                <path id="g"
                      d="M71.1,36.1c1.4-.3,8.5-1.4,9.8-1.5s4.9-.7,6.1-.8,5.5-.3,6.8-.2c1.3,.1,4.9,1,5.7,1.5,.8,.5,3.3,2,3.9,2.8,.6,.9,2.5,2.9,3.2,3.5,.7,.7,3.4,2.7,4.1,3.2s4,2.5,5,3,3.2,1.8,4.2,2.3c1,.5,3.6,1.9,4.7,2.8,1,.9,3.2,3.1,4,4s2.5,3.7,2.8,4.8,.9,2.9,.8,3.9-.7,2.8-1.2,3.6c-.6,.8-1.2,1.7-1.9,2.1-.7,.4-2.7,1.1-3.6,1-.9-.1-2.9-.4-3.6-.7-.7-.3-1.9-1-1.9-1,0,0,.5,.5,.5,1,0,.5-.2,.8-.7,1.1-.5,.3-1.1,.4-1.7,.3-.6-.1-1.6-.9-2.2-1.2s-2.1-.9-3.2-.8c-1.1,0-1.9,0-2.7,.2-.8,.2-1.7,.5-2.3,1.1s-1.7,1.6-2.1,2.3-1.2,1.9-1.3,2.9c-.1,1-.4,2.7-.4,3.8,0,1.1,.1,3.1,.4,4.2,.3,1.1,.7,3.5,1.1,4.4s1.6,3.2,2,4c.4,.8,1.6,3,2.3,3.8s2.6,2.9,3.6,3.5c1,.6,2.6,1.6,3.6,1.7,1.1,.1,3,.4,4.1,0,1.1-.3,2.5-.5,3.5-.8,.9-.2,1.9-.3,2.6-1,.7-.7,1.8-1.7,2.2-2.4,.4-.7,.6-1.2,.8-1.7,.2-.5,.4-1.8,.4-1.8v1.9c0,0,.2,1.1,.6,1.5,.4,.5,.5,.9,1.1,1.1,.6,.2,1,.3,1.7,0,.7-.4,1.2-.5,1.7-1.1s.8-.7,1.1-1.2c.3-.5,1.7-3,1.7-3,0,0-.8,1.9-.1,2.6,.7,.7,1,1.4,2,.9,1-.4,.7-.2,.7-.2,0,0-1.4,.5-1.9,.7-.6,.2-2,.6-2.6,1.1-.7,.5-1,1-1.3,1.5-.3,.6-.8,1.4-.7,2,.2,.6,.2,1.1,.5,1.4,.3,.4,.8,.8,.8,.8,0,0-.4-.3-.8-.2-.4,.1-.6,0-.8,.4-.3,.4-.4,1-.4,1v.8c.1,0,0-1.1-.5-1.5-.5-.4-.5-.9-1-1-.5,0-.7-.3-1.1-.2-.4,.1-.6,.2-.9,.6-.3,.4-.6,.8-.6,1.1,0,.4-.2,.8-.2,1.2,0,.5-.1,1.4-.1,1.4,0,0-.6-1.5-.9-2.3-.4-.8-.8-1.4-1.4-1.7-.7-.4-2.2-1-3.3-.7s-2.8,.8-3.9,1.6c-1.2,.8-1.9,1.5-2.3,2.3s-1.2,2.1-1.4,3.1c-.3,1-.9,3.5-1,4.4-.1,.9-.3,2.8,0,3.7s.5,1.2,.7,1.8,.3,1.3,.3,1.9c0,0,.5,.5,.9,1.2,.4,.7,1.1,1.5,1,2.4-.1,1-.9,2.8-1.4,3.4-.6,.6-2.1,2.7-2.6,3.8s-1.8,3.1-2.4,4.3c-.6,1.2-1.7,3.3-2.3,4.7-.6,1.4-2.7,8.2-3.2,9.7-.5,1.4-1.8,5.3-2.2,6.7-.4,1.5-.8,5.1-1.1,6.6-.4,1.5-1.3,8-1.3,11s-.1,8.6,.1,10.8c.2,2.2,.5,4.7,.6,5.6s.4,1.9,.6,2.3c.2,.4,.4,1.8,.4,1.8h-10.2s-.8-1.9-1-3.3-.6-3.4-.6-5.2v-6.8c0-1.5-.2-6.5,0-8.4,.2-1.9,0-5.2,.3-7,.3-1.9,.5-4.2,.7-5.9,.2-1.6,.8-4.7,1.1-6.2s1.1-4.7,1.3-6.3c.3-1.6,.9-5.6,1-7,.1-1.5,.2-3.5,0-4.8s-.5-2.3-1-3c-.5-.7-1.5-2.2-1.8-3.2-.3-1-.4-2.7-.2-3.8,.2-1.1,.4-1.8,.8-2.6,.4-.8,1.6-2.6,1.6-2.6,0,0-.7,.8-1.8,1-1.1,.2-3.4,.4-4.4-.3-1-.6-2.6-2-3.4-3.3-.8-1.3-2.7-5-3.2-6.1-.6-1.1-1.9-4.8-2-6.1s0-3,0-4c.1-1,.3-2.1,.1-3-.2-1-.7-2-1.5-2.7-.8-.7-3.1-1.7-4-1.9-.9-.3-2.8-.3-3.6-.3-.8,0-2,.5-2.6,.8-.6,.3-1.3,1.1-1.4,1.7-.2,.7,0,2.2,.4,2.7,.4,.6,1.3,1.6,1.7,2.3s.9,2.5,.8,3.3c-.2,.9-.9,2.6-1.5,2.9-.6,.4-2.3,1.3-3.1,1.1-.8-.2-2-.6-2.7-1.5-.7-.9-1.6-2.3-1.9-3.4-.3-1.1-.7-3-.7-3.8s.3-1.9,.7-2.4c.4-.5,1.4-1.2,2.1-1.5,.8-.3,1.6-.5,2-.9,.4-.5,.9-1.1,1.2-1.6,.3-.5,.2-.9,.9-1.6,.7-.7,.8-.7,1.8-1.7,1-1,1.8-1.6,3-3s2.7-2.6,3.2-4.3c.6-1.7,1-2.6,1-4.2s0-3.1-.6-4.4-1.7-3.1-2.6-3.7c-.9-.6-3-1.6-4.1-1.7-1.1-.1-2.8,0-3.8,.2-1,.2-2.2,.9-2.7,1.1-.6,.2-2,0-2.7-.6s-2.4-2.1-2.9-2.7c-.6-.7-2.2-2.5-3.1-3-.9-.5-3-1.8-4.1-2.2s-2.5-.9-2.9-2.1-1.1-2.7-1.2-4.3,0-3.5,.8-5.4,2-3.5,2.9-4.7c.9-1.1,1.6-2,3.2-3.3s3.4-2.5,5.4-3.2,3.9-1.5,6.1-2.1,5.4-1.2,7.5-1.6Z"
                      style="fill:#e0cbbd;"/>
                <path id="h"
                      d="M86,80.6c.9-.6,2.9-1,3.8-.9,.9,.1,3.3,.5,4.2,1.1,.9,.6,2.8,1.8,3.3,2.6,.5,.8,2.8,4.3,3.2,5.3,.4,.9,1.1,2.4,1.5,3.2,.4,.8,2.1,3.3,2.6,4.1,.5,.9,1.8,3.6,2.3,4.8s2.3,6.1,2.6,8.4c.3,2.3,.2,6.4,.1,8.3-.1,1.9-.4,4.1-.5,5,0,.9-.7,5.4-.9,6.7-.3,1.3-1.4,6.1-1.7,7.2-.3,1.1-1.6,6-1.8,6.9-.3,.9-1.8,8.2-1.8,8.2,0,0,2.1-5.7,2.6-7,.5-1.3,1.4-3.9,2-5.4,.6-1.5,1.7-4.1,1.9-5.1,.2-1,.5-2.1,.6-2.9,.2-.8,.4-1.6,.7-2.3,.3-.7,.5-1.7,.7-2.6s.2-1.7,.2-2.3,.2-1,.8-.8c.6,.3,.9,.8,1.1,1.3,.2,.6,.2,1.3,.3,1.6s.1,.9,.6,.6c.5-.3,.6-.5,1-1,.5-.6,.6-1,.6-1.4,0-.4,.1-.9,.1-.9,0,0,1.1,1.2,1.4,1.9,.3,.7,.7,2.1,.4,2.9s-1.9,3-2.4,3.8c-.6,.8-2.6,4.4-3.3,5.6-.7,1.1-2.8,6-3.4,7.5s-2.2,6.8-2.7,8.3c-.6,1.5-2,5.7-2.3,7.3s-1.2,6.2-1.4,7.9c-.3,1.8-.8,7.3-.8,8.7,0,1.4,0,8,.1,9.5,.1,1.5,.3,5.4,.6,6.6,.3,1.2,1,4.4,1,4.4h-10.2s-.7-1.5-.9-2.6c-.2-1.1-.7-4.4-.7-6.4s0-3.7,0-5c0-1.3-.1-6.4-.1-7.9s.1-6.2,.3-7.5c.2-1.3,.6-5.6,.7-6.4,0-.9,.9-6,1.1-7.1,.3-1.1,1.1-4.9,1.3-6.1,.2-1.2,.7-5.2,.8-6.5,.2-1.3,.4-4.2,.3-5.3-.1-1-.8-2.4-1-3.1-.2-.7-1.2-1.8-1.5-2.6-.4-.8-.8-2.8-.7-3.8s.6-2.2,.8-2.9c.2-.7,.9-1.8,1.1-2.1,.3-.3,.8-1.2,.8-1.2,0,0-1.9,1.3-3,1.4-1.2,.1-3.2-.2-4.5-1.3-1.3-1.2-3.9-5.1-4.7-7-.8-1.9-1.9-3.4-2.2-4.8s-.8-3.3-.7-4.9c0-1.6,.3-4.1,.4-5,.2-.8,.4-2.4,.7-3.2,.3-.8,.7-1.6,1.3-2,.6-.4,1.3-.5,1.5-1,.3-.5,.3-.7,.3-1.3s-.2-1.4-.2-1.4c0,0-.7-1.1-.8-2.4-.2-1.3-.3-3.4,0-4.5,.3-1.1,1.1-2.2,1.5-2.5,.5-.4,.9-.5,1.4-.9Z"
                      style="fill:#f1eed4;"/>
            </g>
            <g id="i">
                <path id="j"
                      d="M16.6,31.2c.2,.1,.3,.3,.4,.4,1.2,.6,2.6,.7,3.8,1.2,2,.9,4.1,1.6,6.2,1.4,.8,0,1.5-.3,2-1,1-1.5,.7-3.2,.4-4.9-.2-1.1,0-2.2,.2-3.3,.3-1.4,1.3-2.4,1.5-3.7,0,0,0,0,0,0,0,0,0,0,0,0,0,.1,0,.3-.1,.4-.5,1.1-1.4,2-1.7,3.3-.4,1.8-.2,3.5,0,5.3,.1,1.1,0,2.5-1.1,3.2-2.5,1-5.2-.2-7.6-1.1-1-.4-2.1-.5-3.2-.7-.3,0-.5-.3-.8-.5,0,0,0,0,0,0,0,0,0,0,0,0h0Z"
                      style="fill:#532e1f;"/>
                <path id="k"
                      d="M28.3,33.6c.8-.3,1.6-.2,2.4,.1,1.1,.5,1.8,1.4,2.9,2.1,.9,.6,1.8,1,2.6,1.6,.4,.3,.8,.7,1,1.2,.6,1.5,1.2,3.1,.7,4.8-.5,1.9-1.7,3.4-2.2,5.2-1.6,2.9-4.9,5.1-8.4,4.5-.5,0-.9-.3-1.2-.6-1.1-1-2.4-1.6-3.4-2.7-1-1.1-1.4-2.5-2-3.8h0s0,0,0,0c0,0,0,0,0,0,.4,1.1,.6,2.2,1.2,3.3,1,1.7,2.8,2.5,4.2,3.7,.8,.7,1.9,.8,3,.7,2.7-.3,5-1.6,6.6-3.9,.6-.8,.8-1.6,1.2-2.5,.6-1.3,1.4-2.5,1.7-4,.4-2.3-.3-4.8-1.9-6.4-1.4-.9-3-1.7-4.3-2.9-1-.9-2.7-1.5-3.9-.6h0c0,0,0,.1,0,.2,0,0,.1,0,.2,0h0Z"
                      style="fill:#532e1f;"/>
                <path id="l"
                      d="M16.4,42.7c0-.6,.2-1.1,.2-1.7,0-.9-.7-1.6-1.5-1.9-1.8-.7-4.1-.8-5.3-2.6-.8-1.2-.8-2.6-.7-3.9,0-1.3,.6-2.5,1.4-3.6,2.2-2.8,3.9-5.5,6.6-7.8,2.9-2.3,5.8-4.3,8.5-6.7,3.7-2.1,7.2-4.8,11.4-5.7,.1,0,.2-.2,.2-.3,0-.1-.2-.2-.3-.2-3.1,.8-6,2.1-8.5,4-3.1,1.5-5.4,3.9-8.3,5.9-2.3,1.6-4.2,3.1-6,5.2-1.6,1.9-2.9,3.7-4.4,5.7-.6,.9-.9,1.7-1.1,2.7-.3,1.2,0,2.3,.2,3.4,0,.3,.2,.6,.3,.9,1.2,2.3,4,2.3,6.1,3.3,.6,.3,1,.8,1,1.4,0,.5,0,1,0,1.5s0,0,0,0c0,0,0,0,0,0h0Z"
                      style="fill:#532e1f;"/>
                <path id="m"
                      d="M46.5,13.2c.7,.5,1,1.4,1.5,2.1,1.1,1.5,2.7,2.2,4.4,2.9,2,.8,2.4,3.3,2.6,5.3,.1,1.5,.7,2.9,.9,4.4,0,.8,0,1.6-.5,2.1-1.3,1.4-2.8,2.3-4.5,3.2-2,1.1-4.2,1.7-6.3,2.6-1.8,.8-3.6,1.8-4.8,3.4-1,1.3-2.2,2.5-2.4,4.2h0c0,.1,0,.2,.2,.3,.1,0,.3,0,.3-.2,0-.5,.2-1,.5-1.5,.9-1.4,1.6-2.6,2.9-3.6,2.8-2.3,6.1-3,9.2-4.5,2-1,3.9-2.1,5.4-3.8,.4-.4,.5-1,.5-1.5,0-2.2-1.1-4.3-1-6.5-.4-1.6-.8-3.6-2.5-4.3-2.1-.9-4.3-1.9-5.5-4.1-.2-.3-.5-.6-.8-.8,0,0,0,0,0,0,0,0,0,0,0,0h0Z"
                      style="fill:#532e1f;"/>
                <path id="n"
                      d="M45.5,30.7c-.9-1.2-2.2-2.4-2.2-3.9,0-1.7,.5-3.7-1-5.1-1.1-1-2.6-.7-4-.9-.5,0-.9-.3-1.2-.6h0c0-.9,0-1.9-.3-2.8-.2-.8-.4-1.5-.5-2.2-.1-.9-.2-1.7-.1-2.6,0-.6,.4-1.1,.6-1.7,0-.3,0-.6,0-.8,0-.4,.1-.7,.4-1,1.9-1.7,4.6-1.7,6.8-2.7,.1,0,.2-.2,.1-.3,0-.1-.2-.2-.3-.1-2.2,.9-4.5,1.1-6.6,2.4-.8,.5-.9,1.4-1,2.2,0,.7-.5,1.3-.6,1.9,0,.9,0,1.8,.1,2.7,0,.8,.3,1.5,.6,2.3,.2,.9,.2,1.8,.3,2.7v.2c0,0,.1,0,.2,.1l.3,.2s0,0,0,0c1.2,.9,2.6,.6,4,.8,1.4,.3,2,1.6,2.1,2.8,0,1-.4,2.1,0,3.1,.5,1.2,1.4,2.3,2.4,3.2,0,0,0,0,.1,0,0,0,0,0,0-.1h0Z"
                      style="fill:#532e1f;"/>
                <path id="o"
                      d="M53.9,8.1c.1,.9,.4,1.8,.2,2.7-.2,1.5-.2,3-1,4.4-.4,.8-.9,1.7-1.8,1.9-.1,0-.2,.1-.2,.2s.1,.2,.2,.2c2-.5,2.8-3,3-4.8,0-.6,.1-1.1,.2-1.7,0-1-.3-2-.4-3h0s0,0,0,0,0,0,0,0h0Z"
                      style="fill:#532e1f;"/>
                <path id="p"
                      d="M65.1,70.4c-1.6,.4-3.3,1.3-5,.7-1.9-1.6-3.6-3.4-5.4-5.2-1.9-2-4.5-2.8-6.9-3.9-.6-.3-1.1-.8-1.3-1.4-1.1-2.4-1.4-4.9-.9-7.6,.5-2.3,1.5-4.3,3.1-6,1.2-1.3,2.3-2.5,3.6-3.7,2.9-2.5,6.3-3.7,9.8-4.9,3.7-1.2,7.3-2,11.1-2.5,4.7-.5,9.1-1.5,13.8-1.8,3-.2,6-.5,9,.1,.1,0,.3,0,.3-.2,0-.1,0-.3-.2-.3-3-.6-6.1-.3-9.2-.2-6.1,.9-12,1.6-18.2,2.6-2.3,.4-4.4,1-6.6,1.7-2.8,.9-5.4,1.8-8,3.4-2.4,1.4-4,3.3-5.8,5.3-1.7,1.8-2.8,4-3.2,6.5-.5,2.7,0,5.3,1,7.7,.4,.8,1.1,1.4,1.9,1.7,2.3,1,4.6,1.8,6.4,3.6,1.8,1.8,3.5,3.7,5.5,5.3,1.7,.7,3.7-.1,5.2-1,0,0,0,0,0,0,0,0,0,0,0,0h0Z"
                      style="fill:#532e1f;"/>
                <path id="q"
                      d="M53.1,32.2c.2-.1,.5-.2,.7-.3,1-.5,1.7-1.3,2.6-1.9,1.7-1,3.4-1.6,5.1-2.5,1.4-.7,2.8-1.1,4.4-1.4,1.9-.3,3.8,.2,5.7,0,2.1-.1,4.2-.2,6.2-1,1.3-.5,2.4-1.2,3.2-2.4,.6-.8,.5-1.7,.4-2.6,.3-.6,.7-1.1,.7-1.8,0-1,0-1.9,0-2.9,0,0,0,0,0,0s0,0,0,0c0,.9-.2,1.9-.2,2.8,0,.7-.7,1.2-.8,1.9,0,.4,.1,.8,0,1.3-.1,.9-.8,1.6-1.5,2.1-1.2,1-2.5,1.5-4,1.7-2.5,.4-4.9,.5-7.4,.3-4.2-.4-7.7,1.8-11.4,3.6-1.2,.6-1.9,1.6-3,2.4-.3,.2-.6,.3-.8,.4,0,0,0,0,0,0,0,0,0,0,0,0h0Z"
                      style="fill:#532e1f;"/>
                <path id="r"
                      d="M78.2,24.9c.3,0,.5-.2,.7-.3,2.4-1.5,4.9-3.1,7.7-2.3,2.7,.8,6,2.5,8.4,.2,1.8-2.4,.8-5.3,.2-8-.2-.7-.3-1.4-.2-2.1,.1-1.1,.4-2.1,.5-3.2,0,0,0,0,0,0,0,0,0,0,0,0-.2,1.1-.5,2.1-.7,3.2-.2,2,.6,3.7,.9,5.6,.2,1.4,.1,2.8-.8,3.9-2.1,2.6-5.4,.5-8-.2-2.9-.8-5.6,.6-7.7,2.5-.3,.2-.5,.4-.9,.5h0s0,0,0,0c0,0,0,0,0,0h0Z"
                      style="fill:#532e1f;"/>
                <path id="s"
                      d="M8.6,32.3c0,.9-.2,1.8-.9,2.5-2.4,2.2-4.6,4.6-5.5,7.8-.4,1.4-.6,2.8,0,4.1,1,2,3.4,2.3,5.4,2.9,1,.3,2,.6,2.9,1.1,1,.6,1.7,1.5,2.4,2.5,1,1.5,1.8,3,2,4.7,.3,2,0,3.9,.6,5.9,0,.3,.2,.7,.4,1,.6,1,1.4,1.8,2,2.8,.6,.9,.9,1.9,1.6,2.9,1,1.6,2.5,2.7,4.3,3,.1,0,.3,0,.3-.2,0-.1,0-.3-.2-.3-3-.5-4.4-3.2-5.7-5.7-.3-.6-.8-1.2-1.3-1.8-1.8-2.2-1.1-5-1.6-7.6-.5-3.1-2.1-5.9-4.6-7.6-1.5-.6-3-1.1-4.6-1.5-1.3-.3-2.8-.8-3.4-2.1-1.2-2.5,.2-5.1,1.6-7.4,1-1.6,2.4-2.8,3.7-4.1,.7-.7,.7-1.8,.6-2.7h0s0,0,0,0c0,0,0,0,0,0h0Z"
                      style="fill:#532e1f;"/>
                <path id="t"
                      d="M12.2,61.3c.7,1.1,1.9,1.4,2.9,2.1,.4,.3,.7,.6,.9,1,0,0,.2,.1,.3,0,0,0,.1-.2,0-.3-.5-1.2-1.8-1.7-3-2.1-.5-.2-.8-.6-1.1-.9,0,0,0,0,0,0,0,0,0,0,0,0h0Z"
                      style="fill:#532e1f;"/>
                <path id="u"
                      d="M23.6,51.1c.2,.2,.3,.4,.6,.6,2.4,1.9,4.8,3.7,5.7,6.7,.9,2.6,1.5,5.1,3,7.5,1.7,2.8,5.2,5.1,8.3,3,.6-.4,.8-1.1,.8-1.8,0-1.4-.3-2.9-1-4.1h0s0,0,0,0c0,0,0,0,0,0,.7,1.3,.7,2.7,.7,4.1,0,.6-.3,1.2-.8,1.5-2,1.2-4.3,.3-5.8-1.2-2.7-2.5-3.5-6-4.6-9.4-1-3-3.4-4.9-6.1-6.6-.2-.1-.4-.4-.6-.6,0,0,0,0,0,0,0,0,0,0,0,0h0Z"
                      style="fill:#532e1f;"/>
                <path id="v"
                      d="M30.2,58.2c0-1.4-.5-3.2,.7-4.2,1.2-1.1,2.7-1.5,3.6-2.9,.6-.9,1.2-1.7,1.7-2.7,0,0,0,0,0,0,0,0,0,0,0,0-.5,1-1.3,1.7-2,2.6-1,1.2-2.3,1.7-3.4,2.6-1.4,1.2-1,3.1-.6,4.7,0,0,0,0,.1,0,0,0,0,0,0-.1h0Z"
                      style="fill:#532e1f;"/>
                <path id="w"
                      d="M40.9,59.5c.5-.9,1.6-1.4,2.6-1.4,1,0,2.1-.9,1.9-2.1,0-.1,0-.2-.2-.2s-.2,0-.2,.2c.1,1.2-1.2,1.7-2.2,1.8-.9,.1-1.6,.8-2,1.6h0s0,0,0,0c0,0,0,0,0,0h0Z"
                      style="fill:#532e1f;"/>
                <path id="x"
                      d="M43.8,57.9c1,0,1.5,.9,1.9,1.7,0,0,.1,.1,.2,0,0,0,.1-.1,0-.2-.2-.4-.3-.8-.6-1.2-.4-.5-1-.4-1.5-.5h0s0,0,0,0c0,0,0,0,0,0h0Z"
                      style="fill:#532e1f;"/>
                <path id="y"
                      d="M46.5,42.7c1.4,.9,3.3,2.3,5,1.1,.8-.5,1.3-1.1,2.1-1.6,0,0,0,0,0-.1,0,0,0,0-.1,0-.7,.5-1.4,.9-2.1,1.4-1.6,.9-3.4,0-4.8-.9,0,0,0,0,0,0,0,0,0,0,0,0h0Z"
                      style="fill:#532e1f;"/>
                <path id="a`"
                      d="M48.7,43.9c1,.4,1,1.6,.3,2.3h0c0,0,0,.1,0,.2,0,0,.1,0,.2,0,.6-.5,1-1.4,.4-2-.2-.2-.5-.5-.8-.5h0s0,0,0,0c0,0,0,0,0,0h0Z"
                      style="fill:#532e1f;"/>
                <path id="aa"
                      d="M62,34.5c.3,.4,.5,.8,.7,1.2h0c.4,1.4-.9,2.3-1.9,2.8,0,0,0,.1,0,.2,0,0,.1,0,.2,0,1.2-.5,2.5-1.6,2-3h0c0,0,0-.1,0-.1v-.2c-.4-.3-.6-.7-.8-1,0,0,0,0,0,0,0,0,0,0,0,0h0Z"
                      style="fill:#532e1f;"/>
                <path id="ab"
                      d="M62.7,35.8c.3,.5,.6,1.1,1.2,1.2,1.9,.3,3.6-.1,5.4-.7,.3,0,.5-.2,.8-.2,0,0,0,0,0,0,0,0,0,0,0,0-2,.3-4.1,.8-6.1,.7-.5,0-1-.5-1.2-1h0s0,0,0,0c0,0,0,0,0,0h0Z"
                      style="fill:#532e1f;"/>
                <path id="ac"
                      d="M82.6,30.6c.6,.5,1,1.2,1.7,1.6,3,1.5,6.4,1.4,9.7,1.8,0,0,0,0,0,0,0,0,0,0,0,0-.6,0-1.1-.3-1.6-.4-2.8-.5-5.5-.6-8-1.7-.7-.3-1.1-.8-1.7-1.3,0,0,0,0,0,0,0,0,0,0,0,0h0Z"
                      style="fill:#532e1f;"/>
                <path id="ad"
                      d="M79.4,35.2c1.4-.6,2.9-.8,4.4-1,.6,0,1.5-.3,1.5-1.1h0c0-.2,0-.2,0-.2v-.2c-.6-.5-1.1-.9-1.5-1.4,0,0,0,0-.1,0,0,0,0,0,0,.1,.3,.6,.7,1,1.2,1.5l.2,.2h0c0,.1,0,.1,0,.1-.2,.5-.7,.6-1.2,.7-1.5,.4-3,.7-4.4,1.2,0,0,0,0,0,0,0,0,0,0,0,0h0Z"
                      style="fill:#532e1f;"/>
                <path id="ae"
                      d="M6.9,63.3c-3.6-.3-6-3.8-6.4-7.2-.4-3.2,1.3-5.9,1.8-9,.1-.8,.2-1.5,0-2.3,0-.1-.1-.2-.3-.2-.1,0-.2,.1-.2,.3,.4,2.6-.9,4.9-1.6,7.4-.7,2.5-.3,5,.8,7.3,1.1,2.2,3.2,3.8,5.7,3.8,0,0,0,0,0,0,0,0,0,0,0,0h0Z"
                      style="fill:#532e1f;"/>
                <path id="af"
                      d="M1.1,58.9c.6,1.7,1.2,3.5,1.7,5.2,.7,2.3,.7,4.6,1.9,6.7,.6,1.1,1.5,2,2.4,2.9,1.6,1.4,3.8,1.8,5.8,1.4,.6,.2,1.3,0,2,.3,0,0,0,0,0,0,0,0,0,0,0,0-.7-.1-1.4-.3-2.1-.5-.6-.1-1.2,.1-1.8,0-4.2-.4-6.8-4.5-7.1-8.4-.6-2.6-1.4-5.2-2.6-7.5,0,0,0,0,0,0,0,0,0,0,0,0h0Z"
                      style="fill:#532e1f;"/>
                <path id="ag"
                      d="M35.3,68.1c.6,.5,1.2,1.2,2,1.5,.9,.3,1.9,0,2.9,.4,1.6,.5,2.5,1.9,3.6,3.2,2.5,2.9,4.6,6,8.2,7.3,1.6,.6,3.2,.9,4.9,.8,2.5-.1,4.5-1.4,6.6-2.6,1.6-1,3.6-1.2,5.3-.6,0,0,.2,0,.2,0s0-.2,0-.2c-3-1.5-6,.5-8.5,2.1-3,1.4-6.6,1.2-9.5-.4-3.8-2.1-5.8-5.8-8.8-8.8-.5-.5-1.1-.9-1.9-1.1-.8-.2-1.6,0-2.4,0-1-.1-1.8-.7-2.5-1.4,0,0,0,0,0,0,0,0,0,0,0,0h0Z"
                      style="fill:#532e1f;"/>
                <path id="ah"
                      d="M58.8,87.1c-.8-3.2,.8-6.8,3.9-8.1,.1,0,.1-.2,0-.3,0-.1-.2-.1-.3,0-3.3,1.2-5.1,5.3-3.8,8.5,0,0,0,0,0,0,0,0,0,0,0,0h0Z"
                      style="fill:#532e1f;"/>
                <path id="ai"
                      d="M53.5,80.7c1.2,.9,2.9,.2,4.2,.7,.7,.3,.8,1.2,.6,1.9h0c0,0,0,.1,0,.2,0,0,.1,0,.2,0,.6-.9,.2-2.4-1-2.5-1.2-.1-2.3,.2-3.5,0-.2,0-.3-.1-.5-.3,0,0,0,0,0,0,0,0,0,0,0,0h0Z"
                      style="fill:#532e1f;"/>
                <path id="aj"
                      d="M42,83c1.6,.9,3.1,1.8,4.8,2.9,1.5,1,3,1.5,4.8,1.8,1.2,.2,2.3,.2,3.4,0,0,0,0,0,0,0s0,0,0,0c-3.2,.1-6.5-.7-9.2-2.7-1.1-.9-2.5-1.1-3.7-1.8,0,0,0,0,0,0,0,0,0,0,0,0h0Z"
                      style="fill:#532e1f;"/>
                <path id="ak"
                      d="M18.7,73.1c.3,.1,.6,.2,.9,.2,1.3,0,2.7-.2,4,0,3.1,.3,5.8,1.7,8.5,3.2,3.7,1.9,6.3,5.1,10,7,1.1,.6,2.2,1.1,3.4,1.2,2.4,.2,4.6-.5,7-.6,0,0,0,0,0,0s0,0,0,0c-2.4-.1-4.7,.4-7,.3-5.2-1.1-8.4-5.8-13-8.1-4-2-8.2-4.2-12.8-2.9-.3,0-.6,0-.9-.1h0s0,0,0,0c0,0,0,0,0,0h0Z"
                      style="fill:#532e1f;"/>
                <path id="al"
                      d="M20.5,83.1c6.3,2.1,12.1,5.4,18.2,8.3,2,1,4.1,1.7,6.4,1.5,2.4-.1,4.5-1.1,6.3-2.7,0,0,0,0,0,0,0,0,0,0,0,0-2.7,2-6.1,2.9-9.3,2-4.3-1.3-7.9-3.7-12-5.6-2.9-1.3-5.5-2.9-8.8-3.6-.2,0-.5-.1-.7,0h0s0,0,0,0c0,0,0,0,0,0h0Z"
                      style="fill:#532e1f;"/>
                <path id="am"
                      d="M43.6,92.6c1.3,.4,2.5,.9,3.7,1.6,1.8,1,3.7,1.5,5.7,1.7,1.5,.2,3,.4,4.6,.4,1.6,0,3.1-.2,4.6-.8,2.9-1.1,5.5-2.7,7.7-4.9,2.3-2.3,4.6-4.4,5.6-7.6,1-3.3,1.1-6.9-1-9.8-2.8-4-8.2-4.1-12.3-2.2-.5,.3-1.2,.4-1.8,0-2.6-1.6-4.4-4-6.6-6.1,0,0,0,0,0,0,0,0,0,0,0,0,1.5,1.6,3,3,4.4,4.7,.9,1.1,1.9,2.2,3.5,1.9,1.1-.2,1.9-.8,3-1,2.3-.6,4.6-.4,6.7,.6,4.1,1.9,4.9,6.9,3.8,10.9-.7,2.5-2.2,4.5-4,6.3-2.3,2.4-4.6,4.6-7.6,5.9-1.5,.7-3.1,1.2-4.7,1.4-2,.2-3.9-.2-5.9-.4-2.8-.2-5.2-1.5-7.7-2.6-.6-.3-1.2-.3-1.8-.3,0,0,0,0,0,0,0,0,0,0,0,0h0Z"
                      style="fill:#532e1f;"/>
                <path id="an"
                      d="M69.3,107.1c-.5,.7-1.1,1.3-1.9,1.9-.5,.4-1.1,.4-1.7,.5-.9,0-1.9-.2-2.6-.9-.9-1-1.6-2.1-2.2-3.3-.5-1.9-1.1-4-.4-6,.5-1.6,2.2-1.8,3.5-2.3,1.4-.6,2-2,2.8-3.3,.7-1.1,1.8-1.8,3-2.3,.1,0,.2-.2,.1-.3,0-.1-.2-.2-.3-.1-2,.7-3.4,2.4-4.4,4.3-.3,.6-.8,1-1.4,1.3-.9,.5-2,.4-2.8,1.1-2.1,1.9-1.2,4.9-.8,7.3,.6,1.5,1.6,3,2.7,4.2,1.4,.9,3.3,1.2,4.8,.2,.8-.5,1.3-1.3,1.6-2.2,0,0,0,0,0,0,0,0,0,0,0,0h0Z"
                      style="fill:#532e1f;"/>
                <path id="ao"
                      d="M67.5,109.3c2.1-.6,2.7-3,2.5-4.9,0-.6-.2-1.2-.5-1.8-.5-1-1.4-1.7-2-2.7-.6-1-.7-2.5,.1-3.5,.3-.4,.7-.6,1.1-.8,1.3-.5,2.6-.9,3.9-1.5,1.4-.7,2.8-1.3,4.1-2.2,2.3-1.7,3.6-4.1,4.1-6.9,.7-3.6,3.1-6.9,6.8-7.6,1.7-.3,3.4-.4,4.9,.6,2.5,1.8,3.4,4.6,5.4,6.7,1.4,2.4,2.5,4.8,3.9,7.2,0,0,.2,.1,.2,0,0,0,.1-.2,0-.2-1.2-2.5-2.5-4.9-3.8-7.3-2-2.1-3-4.9-5.4-6.8-1.6-1.1-3.4-1.1-5.2-.8-1.5,.2-2.8,.8-3.8,1.8-1.3,1.2-2.3,2.6-3,4.2-.5,1.3-.6,2.8-1.1,4.1-1.8,4.8-6.9,6.5-11.3,8.1-2.1,.7-2.5,3.3-1.3,5.1,.6,.9,1.5,1.6,1.9,2.6,.3,.8,.5,1.6,.4,2.5,0,.7-.2,1.3-.4,2-.3,.9-1.1,1.2-1.7,1.9h0s0,0,0,0c0,0,0,0,0,0h0Z"
                      style="fill:#532e1f;"/>
                <path id="ap"
                      d="M89.3,93.9c-2.1,.4-4.1-1-5.2-2.7-.9-2.3-1.5-5-.7-7.4,.8-2.5,3.7-3.6,6.1-3.7,2.9-.2,5.4,1.4,7.4,3.3,.8,1.2,1.5,2.4,2.5,3.5,.9,1.1,1.3,2.4,1.9,3.6,0,0,0,0,.1,0,0,0,0,0,0-.1-1-2.7-2.6-5-4.2-7.4-2.8-2.9-7.2-4.5-11-2.7-1.5,.7-2.9,1.7-3.3,3.3-.9,3.2-.5,7,2.2,9.3,1.2,1,2.7,1.5,4.1,1.1,0,0,0,0,0,0,0,0,0,0,0,0h0Z"
                      style="fill:#532e1f;"/>
                <path id="aq"
                      d="M101,69.2c-1.9,2.5-5.8,2.5-8.2,.8-.9-1.3-1.1-3.1-.1-4.4,1.3-1.6,3.4-2,5.4-1.7,1.5,.2,3.1,1.3,3.1,2.9h0c0,.1,0,.2,0,.3h0c.4,1.3-.3,2.7-1.5,3.4,0,0,0,0,0,0,0,0,0,0,0,0,1.2-.7,2.1-2.1,1.9-3.5v-.2h0c.1-1.9-1.8-3.3-3.5-3.5-2.1-.2-4.5,.1-5.9,2-1.1,1.4-.9,3.4,.2,4.8,2.5,1.9,6.8,1.9,8.7-.9,0,0,0,0,0,0,0,0,0,0,0,0h0Z"
                      style="fill:#532e1f;"/>
                <path id="ar"
                      d="M97.1,57.5c-2.5,.7-4.9,1.4-7.2,2.9-2.2,1.3-4.7,3-7.2,1.9-.7-.7-.9-1.7-.7-2.7,.2-.9,.8-1.5,1.6-2,2.1-1.3,4.1-2.4,6.4-3.1,3.2-1,6.6-1,9.9-1.3,3.3,.4,6.7,1,9.6,2.6,.1,0,.3,0,.3-.1,0-.1,0-.3-.1-.3-3-1.6-6.5-2.2-9.9-2.6-3.4,.3-6.8,.3-10.1,1.4-2.5,.8-4.9,1.9-7,3.6-.6,.5-1,1.1-1.1,1.8-.2,1.1,0,2.4,.9,3.1,1.6,1.2,3.6,.4,5.1-.4,1.8-.8,3.2-2,5-2.8,1.5-.6,3.1-1.1,4.6-1.7,0,0,0,0,0,0,0,0,0,0,0,0h0Z"
                      style="fill:#532e1f;"/>
                <path id="as"
                      d="M90.1,60.6c.9-.4,1.8-.8,2.7-1.1,2.6-.9,5.1-2,7.9-2.3,3.9-.5,7.6,.5,11.1,1.9,.1,0,.3,0,.3-.1,0-.1,0-.3-.1-.3-3.6-1.4-7.4-2.4-11.4-1.9-2.8,.3-5.4,1.4-7.9,2.5-.9,.4-1.7,.9-2.6,1.3h0s0,0,0,0c0,0,0,0,0,0h0Z"
                      style="fill:#532e1f;"/>
                <path id="at"
                      d="M70.6,49.7c-1.1,.9-2.4,1.6-3.5,2.6-1.1,1.1-2.1,2.3-2.5,3.8-.5,1.7-.6,3.5,.4,5,.9,1.4,1.4,2.9,2.6,4,.7,.6,1.2,1.3,2,1.8,1.1,.8,2.5,.9,3.7,1.5,1,.5,1.9,1.1,2.8,1.8,.2,.2,.4,.4,.5,.7,.4,.6,.6,1.1,.9,1.7,.3,.6,.9,.9,1.1,1.6,.3,1,.6,2.1,0,3.1-.9,.8-1.5,1.8-2,2.8-.8,1.6-.4,3.4-.6,5.1-.2,2.4-2.4,3.7-4.3,4.9-1,.6-2.1,.6-3.2,1.1-.4,.2-.7,.5-.9,.9h0c0,0,0,.2,0,.3,0,0,.2,0,.3,0,.3-.3,.5-.6,.9-.7,3.3-1,7.1-2.7,7.6-6.4,.2-1.3,0-2.5,.2-3.8,.3-1.7,1.4-2.9,2.5-4.1,.4-1.1,.2-2.3,0-3.4-.1-.5-.6-.8-.9-1.2-.5-.7-.7-1.5-1.2-2.2-.2-.3-.4-.6-.7-.8-.9-.8-1.9-1.3-2.9-1.9-1-.6-2.2-.7-3.2-1.2-1.1-.6-1.8-1.6-2.8-2.4-1-1.8-2.6-3.3-2.8-5.5-.4-4.1,3.1-6.8,5.9-9.2,0,0,0,0,0,0,0,0,0,0,0,0h0Z"
                      style="fill:#532e1f;"/>
                <path id="au"
                      d="M64.7,56.1c1.1-1.4,2-2.9,3.4-4.1,1.1-1,2.2-1.7,3.5-2.4,2.1-1.1,4.2-1.8,6.5-2.2,3.3-.5,6.5-.6,9.8-.6,2.5,0,4.9,.3,7.4,.9,5.7,1.3,10.6,3.9,14.4,8.3,.9,1.1,1.6,2.2,2.3,3.4,.7,1.3,1.4,2.6,2.1,3.9,1.2,2.2,2.3,4.3,3.9,6.1,2.4,2.7,6.1,4,9.5,2.8,1-.3,2-.8,2.7-1.7,1.3-1.7,2.1-3.7,2.1-5.8-.8-4.9-4-8.9-7.7-12-3.8-2.6-8-4.5-12-6.8-2.6-1.8-5.1-3.8-7.3-6.1,0-.1-.2-.1-.3,0-.1,0-.1,.2,0,.3,.3,.4,.7,.8,1.1,1.2,2.7,2.2,5,4.5,8.1,6.1,3.5,1.7,7,3.5,10.2,5.7,1.8,1.6,3.6,3.2,5,5.3,1.4,2.2,2.8,4.5,2.6,7.1-.1,1.9-.8,3.7-2.2,5.1-1.3,1.3-3,1.7-4.7,1.6-2.5,0-4.9-1.1-6.5-3-2-2.4-3.3-5-4.8-7.6-.4-.8-.9-1.5-1.3-2.3-.6-1.3-1.4-2.5-2.3-3.6-1.6-1.8-3.2-3.3-5.3-4.6-2.7-1.8-5.5-2.9-8.5-3.7-2.2-.6-4.4-.8-6.7-1-4.1-.3-8.1,0-12.2,.6-3.7,.6-6.9,2.5-9.8,4.7-1.1,1.3-2.2,2.8-2.9,4.3h0s0,0,0,0c0,0,0,0,0,0h0Z"
                      style="fill:#532e1f;"/>
                <path id="av"
                      d="M114.6,47.3c2.3,2.4,6.1,2.2,8.9,1,0,0,0,0,0,0,0,0,0,0,0,0-1.6,.5-3.2,.7-4.8,.5-1.4-.2-3-.4-4-1.5h0s0,0,0,0c0,0,0,0,0,0h0Z"
                      style="fill:#532e1f;"/>
                <path id="aw"
                      d="M130.8,61.2c.4,1.1,.5,2.2,.8,3.3,.3,.9,.9,1.7,1.7,2.2,1.1,.6,2.3,.5,3.5,.6,0,0,0,0,0,0,0,0,0,0,0,0-2-.2-4.3-.9-5-3.1-.3-1-.7-2-1-3,0,0,0,0,0,0,0,0,0,0,0,0h0Z"
                      style="fill:#532e1f;"/>
                <path id="ax"
                      d="M117.4,68.8c.5,.7,1.2,1.2,1.9,1.8,.4,.3,.8,.7,.7,1.3v.2h0c-.5,.8-1.6,1-2.5,.6-.9-.4-1.7-1.1-2.7-1.4-1.6-.5-3.3-.4-4.9-.2-1.6,.2-2.8,1.3-3.9,2.4-1,1-1.8,2.2-2.1,3.7-.4,1.9-.7,3.7-.6,5.6,0,1.4,.4,2.8,.7,4.2,.2,1.4,.5,2.7,1.2,3.9,1.2,2,1.7,4.2,3.2,6,2.1,2.8,4.6,5.2,7.8,6.4,2.2,.3,4.5,.3,6.8-.4,1-.3,2-.2,3-.6,.1,0,.2-.1,.1-.2,0,0-.1-.2-.2-.1-.8,.2-1.6,.3-2.5,.5-2.6,.6-5.2,1-7.7,.2-3.1-1.5-5.6-4-7.5-6.9-1.2-2.9-3.1-5.5-3.6-8.7-.2-1.4-.6-2.8-.7-4.2,0-1.5,.2-3.1,.4-4.6,.4-2.9,2.6-5.2,5.1-6.5,1.6-.2,3.2-.4,4.8,0,1.1,.2,1.9,.8,2.8,1.4,1.1,.6,2.5,.5,3.3-.4l.2-.3s0,0,0-.2v-.2c0-.5-.2-.9-.5-1.3-.7-.8-1.8-1-2.5-1.9h0s0,0-.1,0c0,0,0,0,0,.1h0Z"
                      style="fill:#532e1f;"/>
                <path id="ay"
                      d="M107.6,75c-.2,.8,.2,1.5,.5,2.2,.1,.3,0,.6-.1,.9-.3,.7-1,1.2-1.3,1.9h0s0,0,0,0c0,0,0,0,0,0,0-.2,.1-.3,.3-.4,.9-.5,1.7-1.5,1.5-2.6-.5-.6-1.1-1.2-.8-2,0,0,0,0,0,0,0,0,0,0,0,0h0Z"
                      style="fill:#532e1f;"/>
                <path id="b`"
                      d="M107.9,77.3c0,.5,.4,1,.8,1.2,.5,.2,1.2,.3,1.7,.6,.5,.2,.8,.7,1,1.2,.7,1.6,1.4,3.2,1.1,4.9-.2,1.8-1.6,3.1-2.4,4.7-.7,1.4,.6,2.8,.9,4.2,.3,1.1-.4,2.3-1.5,2.6h0c-.6,0-1.1-.5-1.5-.9h0c0,0-.2,0-.3,0,0,0,0,.2,0,.3,.4,.4,.8,.8,1.3,1h.4c0,0,0,0,.1,0h.2c1.4-.3,2.1-1.8,1.8-3.1-.3-1.3-1.2-2.3-1.1-3.7,.9-1.7,2.4-3.1,2.6-5.1,.2-1.8-.5-3.5-1.2-5.2-.3-.6-.6-1.1-1.2-1.4-.7-.4-1.5-.3-2.2-.8-.2-.2-.3-.4-.4-.6h0s0,0,0,0c0,0,0,0,0,0h0Z"
                      style="fill:#532e1f;"/>
                <path id="ba"
                      d="M108.8,78.2c1,.6,2.1,.9,3.2,.7,.5,0,.9-.3,1.4-.5,.7-.3,1-1,1.1-1.7,.1-1.4-.7-2.8-1.9-3.4,0,0,0,0,0,0,0,0,0,0,0,0,1.3,.8,1.9,2.7,1.3,4.1-1.3,1.3-3.4,1.3-5,.6h0s0,0,0,0c0,0,0,0,0,0h0Z"
                      style="fill:#532e1f;"/>
                <path id="bb"
                      d="M113.2,74c.4,.3,.7,.6,1.1,.8,.9,.5,1.8,.9,2.7,1.4,1.6,1,3.7,.6,5-.7,.9-1,1.5-2.6,.5-3.7h0c0-.1-.2-.1-.3,0,0,0-.1,.2,0,.3,.8,1,.3,2.2-.5,3.1-1.4,1.5-3.6,1.4-5.2,.2-.6-.5-1.4-.5-2.1-.9-.3-.2-.7-.4-1-.6h0s0,0,0,0c0,0,0,0,0,0h0Z"
                      style="fill:#532e1f;"/>
                <path id="bc"
                      d="M68.2,95.8c2.9-1.6,6.5-1,9.3,.5,1.2,.6,2.2,1.7,2.3,3.1,.4,3.2-1,6.7,.7,9.7,0,0,.2,.1,.3,0,0,0,.1-.2,0-.3-1.1-2.5-.7-5.2-.4-7.8,.3-2.1-.8-4.2-2.7-5.1-2.9-1.5-6.7-2-9.6-.2h0s0,0,0,0c0,0,0,0,0,0h0Z"
                      style="fill:#532e1f;"/>
                <path id="bd"
                      d="M80.1,102.1c0-1.7,.4-3.2,.8-4.9,.2-.9,.5-1.7,1.2-2.3,.5-.5,1.2-.7,1.7-1.2,.8-1,.1-2.3-.2-3.3h0s0,0,0,0c0,0,0,0,0,0,.1,1,.4,2.2,0,3.1-1.1,.7-2.2,1.4-2.6,2.8-.5,2-.9,3.9-.9,5.9,0,0,0,0,0,0s0,0,0,0h0Z"
                      style="fill:#532e1f;"/>
                <path id="be"
                      d="M79.9,103.5c0,1.3,0,2.5,0,3.8,0,1.4,.6,2.8,1.2,4,.8,1.7,1.4,3.4,2.3,5.1,1.4,2.4,2.6,4.9,5.2,6,1.6,.7,3.4,.7,5,0,1.8-.8,3.1-2.3,4.3-3.8,0-.1,0-.3,0-.3-.1,0-.3,0-.3,0-1.3,1.6-2.8,3.3-4.8,3.9-1.9,.6-4,0-5.5-1.3-1.4-1.3-2.3-2.9-3.2-4.6-1.2-2.3-2.2-4.5-3.1-6.9-.7-1.9-.6-3.9-.8-5.9h0s0,0,0,0,0,0,0,0h0Z"
                      style="fill:#532e1f;"/>
                <path id="bf"
                      d="M98.9,115.4c-.3,.9-.9,1.7-1.3,2.6-.7,1.7,.3,3.5,1.5,4.7,0,0,0,0,.1,0,0,0,0-.1,0-.1-.9-1.1-1.6-2.4-1.3-3.9,.2-1.1,.8-2.1,1.1-3.2,0,0,0,0,0,0,0,0,0,0,0,0h0Z"
                      style="fill:#532e1f;"/>
                <path id="bg"
                      d="M95.5,120.8c-1.4,1.1-2.5,2.6-3.1,4.4-.9,2.7-.5,5.7,1.4,7.9,.6,.6,1.3,1.1,2.2,.9,2.6-.4,3.8-3,4.1-5.4,0,0,0-.1,0-.1,0,0-.1,0-.1,0-.5,2.2-1.8,4.9-4.3,4.9-2.1-.7-2.9-3.2-3.2-5.1,.1-1.8,.4-3.5,1.3-5.1,.5-.9,1.2-1.7,1.9-2.5,0,0,0,0,0,0,0,0,0,0,0,0Z"
                      style="fill:#532e1f;"/>
                <path id="bh"
                      d="M99.6,87.2c.5,1,.8,2,1.2,3,.8,2,2.2,3.5,3.3,5.4,1.4,2.4,2.2,4.8,3.3,7.3,.6,1.4,.9,2.7,1.3,4.2,.3,1.3,.6,2.5,.7,3.8,.2,1.4,.1,2.8,0,4.2-.2,1.9-.2,3.7-.5,5.5-.3,2.3-.6,4.4-.8,6.7-.6,5.3-2.5,10.2-3.6,15.3h0c0,.1,0,.3,.2,.3,.1,0,.3,0,.3-.2,1.1-5.1,3-10,3.6-15.3,.2-2.2,.5-4.4,.8-6.7,.3-1.9,.3-3.7,.5-5.5,.1-1.4,.1-2.7,0-4.1-.2-2.4-.9-4.7-1.7-7-.9-2.5-1.9-4.8-3-7.2-.9-2-2.3-3.6-3.4-5.5-.8-1.4-1.3-2.8-2.2-4.1,0,0,0,0,0,0,0,0,0,0,0,0h0Z"
                      style="fill:#532e1f;"/>
                <path id="bi"
                      d="M123.9,104.4c-2.5,.2-4.9,1.6-6.5,3.5-2,3.1-2.8,7-2.8,10.6,0,1.4,.7,2.6,1.5,3.8,.4,.5,1.1,.8,1.7,.6,1.1-.3,1.4-1.5,2.1-2.2,.3-.3,.5-.5,.8-.7,.2-.2,.2-.4,.2-.6-.1-.6-.7-1-.7-1.6,0-.7,0-1.4-.6-1.9-.2-.1-.1-.4-.2-.6,0,0,0-.1-.1-.1s-.1,0-.1,.1c0,.2,0,.3,0,.5,.2,.5,.7,.8,.8,1.3-.4,.9,.5,1.6,.6,2.4-.7,.8-1.5,1.3-2,2.3-.5,.9-1.6,1.2-2.2,.4-.6-.8-1.2-1.7-1.4-2.8-.4-2.1,.1-4,.6-6.1,.5-2,1-4,2.5-5.5,1.6-1.6,3.6-2.8,5.8-3.2,0,0,0,0,0,0,0,0,0,0,0,0h0Z"
                      style="fill:#532e1f;"/>
                <path id="bj"
                      d="M117.8,116.3c.2-.2,.5-.4,.7-.5,.2-.1,.6,0,.8-.3h0s0,0,0,0h0c.2-.8,.4-1.6,0-2.4h0c0,0,0,0-.1,0,0,0,0,0,0,.1,.2,.6,.1,1.3,0,2v.2h-.2c-.5,.3-.9,.6-1.4,.9h0s0,0,0,0c0,0,0,0,0,0h0Z"
                      style="fill:#532e1f;"/>
                <path id="bk"
                      d="M121.6,108.4c.6,.3,1.4,.2,1.9-.3,.5-.5,.3-1.3,.3-1.9,0,0,0-.1-.1-.2,0,0-.1,0-.2,.1-.2,.5,0,1-.2,1.5-.3,.6-1,.9-1.7,.6h0s0,0,0,0c0,0,0,0,0,0h0Z"
                      style="fill:#532e1f;"/>
                <path id="bl"
                      d="M123,108.1c.2,.4,.7,.6,.7,1.1,0,.8-.5,1.4-.7,2.1-.1,.5,.4,.8,.6,1.3,0,0,.1,.1,.2,0,0,0,.1-.1,0-.2,0-.4-.7-.7-.5-1.2,.3-.8,.8-1.5,.7-2.4,0-.4-.5-.7-.8-1,0,0-.1,0-.2,0,0,0,0,.1,0,.2h0Z"
                      style="fill:#532e1f;"/>
                <path id="bm"
                      d="M127.1,110.5c-.7,1.2-2.2,1.2-3.4,1.9-.4,.3-.7,.7-.9,1.1-.3,.5-.4,1.1-.4,1.6,0,.6,.3,1.1,.3,1.7,0,1.2-1,1.8-1.9,2.5,0,0,0,.2,0,.3,0,0,.2,0,.3,0,1-.6,2-1.4,2.1-2.6,0-1.1-.5-2.1,0-3.1,.3-.4,.5-.9,1-1.1,1.1-.6,2.5-.8,3.1-2.1,0,0,0,0,0,0,0,0,0,0,0,0h0Z"
                      style="fill:#532e1f;"/>
                <path id="bn"
                      d="M122.6,115.1c0,.2,.2,.3,.2,.5v.2h.1c.3,.3,.6,.1,.9,.1h0c.6,.6,1.4,1.4,2.2,.8,0,0,.1-.1,0-.2,0,0-.1-.1-.2,0-.8,.4-1.3-.4-1.9-.8h0c0,0,0,0,0,0h-.2c-.2,0-.3,0-.5,.1h-.3v-.3c-.3,0-.2-.3-.4-.4h0s0,0,0,0c0,0,0,0,0,0h0Z"
                      style="fill:#532e1f;"/>
                <path id="bo"
                      d="M127.3,115.2c-.7,.4-1.2,1.4-.9,2.2,0,0,.1,.1,.2,0,0,0,.1-.1,.1-.2-.3-.7,.1-1.5,.7-2,0,0,0,0,0,0,0,0,0,0,0,0h0Z"
                      style="fill:#532e1f;"/>
                <path id="bp"
                      d="M125,104.7c.9,0,1.7,.5,2.3,1.2,1.3,1.5,2,3.4,1.8,5.4,0,.9-.4,1.7-.6,2.5,0,.2,0,.5,0,.7,.3,.7,1,1.2,1,2,0,.5-.3,1-.2,1.6,0,0,0,0,0,0,0,0,0,0,0,0,0-.6,.3-1.1,.2-1.6-.1-.6-.4-1.1-.8-1.6-.2-.2-.2-.5-.2-.7,.2-1.5,1-2.9,.6-4.4-.4-1.5-.9-2.9-1.9-4-.6-.7-1.5-.9-2.4-1h0s0,0,0,0c0,0,0,0,0,0h0Z"
                      style="fill:#532e1f;"/>
                <path id="bq"
                      d="M129.3,109.8c-.2-1.6,0-3.7,1.5-4.7,1.4,.2,2.3,1.4,2.6,2.7,.4,1.8,.6,3.5,1,5.2,0,0,0,0,0,0,0,0,0,0,0,0-.3-1.6-.4-3.2-.7-4.8-.2-1.6-1.4-3.4-3.2-3.4-1.7,1-1.8,3.3-1.4,5,0,0,0,0,0,0,0,0,0,0,0,0h0Z"
                      style="fill:#532e1f;"/>
                <path id="br"
                      d="M133.8,108c-.2-.5-.2-1.1,0-1.6,.2-.6,1-.9,1.5-.7,0,0,.2,0,.2-.1,0,0,0-.2-.1-.2-.6-.3-1.4,0-1.7,.6-.3,.7-.2,1.4,0,2,0,0,0,0,0,0,0,0,0,0,0,0h0Z"
                      style="fill:#532e1f;"/>
                <path id="bs"
                      d="M140,98.3c-.2,.1-.4,.3-.6,.3-1.3,.3-2.4,.5-3.5,1.3-1.5,1.2-2.4,3.1-1.3,4.9,.9,1.5,2.7,1.1,4.2,1.5,.4,0,.7,.4,.9,.7,0,0,0,0,0,0,0,0,0,0,0,0-.3-.4-.6-.7-1.1-.8-1.1-.3-2.2-.3-3.2-.9-.8-.5-1.2-1.5-1-2.4,.4-2.4,2.6-3.6,4.8-4,.3,0,.5-.3,.8-.4,0,0,0,0,0,0,0,0,0,0,0,0h0Z"
                      style="fill:#532e1f;"/>
                <path id="bt"
                      d="M130.2,96.5c-.1,1.5,.2,3.2,1.7,3.9,1,.4,2,0,2.7-.7,1.3-1.1,2.4-2.5,3.1-4,0,0,0-.1,0-.1,0,0-.1,0-.1,0-1.2,1.9-2.8,4.4-5.3,4.5-1.5-.5-2.1-2.1-1.9-3.6h0s0,0,0,0,0,0,0,0h0Z"
                      style="fill:#532e1f;"/>
                <path id="bu"
                      d="M124.2,102.4c.8,0,1.6,0,2.3-.5,1.5-1.1,2.7-2.4,3.3-4.1,.5-1.4,.6-2.8,.4-4.2,0,0,0,0,0,0,0,0,0,0,0,0,.5,3.1-1.2,5.9-3.6,7.9-.7,.5-1.4,.7-2.2,.8,0,0,0,0,0,0,0,0,0,0,0,0h0Z"
                      style="fill:#532e1f;"/>
                <path id="bv"
                      d="M119.3,85.4c-1.5-.4-3.2,.6-4.2,1.8-.5,.6-.1,1.2-.2,1.8,0,.2,0,.3,0,.4-.5,.9-1.1,2-.7,3.1,.2,.7,1,.7,1.7,.8,.2,0,.5,.1,.6,.3,.4,.5,.8,.9,1.4,1.1,0,0,0,0,.1,0,0,0,0,0,0-.1-.2-.1-.5-.1-.7-.3-.5-.8-1.3-1.4-2.2-1.3-1.3-.8-.3-2.4,.2-3.4,.3-.6,0-1.2,0-1.8,.8-1.3,2.5-2.2,4-2.2,0,0,.1,0,.1,0,0,0,0-.1,0-.1h0Z"
                      style="fill:#532e1f;"/>
                <path id="bw"
                      d="M114.2,92.5c.1,.3,.3,.5,.4,.8h0v0h0c-.3,.6-1,1-.9,1.7,0,.6,.3,1.1,.6,1.6,.4,.6,0,1.2,.1,1.9,.1,1,.5,2.1,1.2,2.8,1.3,1.3,3.1,2.2,4.9,2.2,.1,0,.2-.1,.2-.2,0-.1-.1-.2-.2-.2-1.6-.1-3-.9-4.3-1.8-.9-1.1-1.5-2.5-1.3-3.9,0-.7-.3-1.2-.7-1.8-.5-.8,.2-1.4,.6-1.9h0c0,0,0-.1,0-.2h0c0-.1,0-.1,0-.2h0c0,0,0,0,0-.1v-.2c-.3-.1-.3-.3-.5-.5h0s0,0,0,0c0,0,0,0,0,0h0Z"
                      style="fill:#532e1f;"/>
                <path id="bx"
                      d="M119.6,85.2c-.5,.8-.5,1.8-.2,2.7,.3,1.1,1.1,2,1.5,3.1,.2,.6,.2,1.3,0,1.9v.2h0c-.3,.6-.8,1.1-1.3,1.5h0s0,0,0,.1c0,0,0,0,.1,0,.6-.4,1.1-.9,1.5-1.5h0c0,0,0,0,0-.1v-.2s0,0,0,0c.7-1.8-.7-3.4-1.4-4.9-.4-.8-.5-1.8,0-2.7,0,0,0,0,0,0,0,0,0,0,0,0h0Z"
                      style="fill:#532e1f;"/>
                <path id="by"
                      d="M120.8,92c0,.9,.3,1.7,.9,2.3,0,.9-.3,1.8-.3,2.6,0,.5,.4,.9,1,1,0,0,.2,0,.2-.1,0,0,0-.2-.1-.2-.5,0-.8-.4-.7-.8,0-1,.8-2.4-.3-3.3-.4-.3-.4-1-.6-1.5,0,0,0,0,0,0,0,0,0,0,0,0h0Z"
                      style="fill:#532e1f;"/>
                <path id="c`"
                      d="M124.3,96.4c-.8,.2-1.6,.5-1.9,1.3-.3,.8,0,1.6,.6,2.2,0,0,.2,0,.2,0,0,0,0-.2,0-.2-.5-.5-.8-1.3-.6-2,.2-.7,1-1,1.6-1.2,0,0,0,0,0,0,0,0,0,0,0,0h0Z"
                      style="fill:#532e1f;"/>
                <path id="ca"
                      d="M120.6,90c.3,.5,.8,1,1.4,1,.4,0,.9-.3,1.3,0,0,0,0,0,0,0,0,0,.2,0,.3,0,0,0,0-.2,0-.3-.2-.1-.4-.3-.6-.2-.9,.2-1.8,.3-2.2-.5h0s0,0,0,0c0,0,0,0,0,0h0Z"
                      style="fill:#532e1f;"/>
                <path id="cb"
                      d="M124.6,88.4c0,.2,0,.4-.2,.5-1.6,1.3-1,3.6,.3,4.8,0,0,.1,0,.2,0,0,0,0-.1,0-.1-.7-1-1.4-2.3-1-3.5,.2-.6,.8-.9,.9-1.5,0,0,0,0,0,0,0,0,0,0,0,0h0Z"
                      style="fill:#532e1f;"/>
                <path id="cc"
                      d="M119.5,87.9c-.1-.9,0-1.9,.5-2.7,.4-1,1.6-1.5,2.6-1.5,.1,0,.2-.1,.2-.2,0-.1-.1-.2-.2-.2-1.2,0-2.3,.6-2.9,1.6-.5,.9-.4,1.9-.3,2.9,0,0,0,0,0,0,0,0,0,0,0,0h0Z"
                      style="fill:#532e1f;"/>
                <path id="cd"
                      d="M124.5,86.8c-.8-.7-1.8-1.4-1.8-2.6,0-.4,.3-.7,.7-.8,.9-.3,1.6-.7,1.9-1.5,.6-.5,1.4-.7,2.1-.6,.8,.1,1.8,.6,2,1.5,.2,.7-.2,1.4,.1,2,.2,.4,.6,.6,.7,1,.1,.7,.2,1.6-.3,2.2-.3,.3-.8,.4-1.3,.4,0,0-.1,0-.1,.1s0,.1,.1,.1c.7,0,1.8,0,2-.9,.2-.8,.3-1.5,0-2.2-.2-.5-.8-.7-.8-1.2,0-.7,.2-1.5-.2-2.1-.5-.8-1.4-1.3-2.3-1.3-1.2,0-2.5,.4-2.9,1.6-.5,.3-1.1,.4-1.6,.8-.3,.3-.5,.6-.5,1.1,0,1.3,1.1,2,2,2.6,0,0,0,0,0,0,0,0,0,0,0,0h0Z"
                      style="fill:#532e1f;"/>
                <path id="ce"
                      d="M126.9,87c.7,.6,1.5,1.1,1.8,2.1,.3,.9,0,1.9,0,2.9,0,0,0,.2,.2,.2,0,0,.2,0,.2-.2,0-.9,.3-1.8,.2-2.6-.2-1.2-1.3-1.8-2.2-2.4h0s0,0,0,0c0,0,0,0,0,0h0Z"
                      style="fill:#532e1f;"/>
                <path id="cf"
                      d="M130.4,90.4c.2,.4,.4,.7,.7,.9,.2,.2,.6,.4,.6,.7,.1,1-.9,1.4-1.4,2.2-.3,.4-.3,.9-.2,1.4,0,0,0,0,0,0,0,0,0,0,0,0-.1-.5,0-1,.3-1.3,.7-.7,1.8-1.4,1.3-2.5-.3-.7-1.1-.8-1.4-1.5h0s0,0,0,0c0,0,0,0,0,0h0Z"
                      style="fill:#532e1f;"/>
                <path id="cg"
                      d="M130.6,86.1c0,.6-.2,1.1-.1,1.7,.1,1.3,1.4,2.9,2.8,2.7,0,0,.2,0,.2-.2s0-.2-.2-.2c-1.1,.1-1.7-.9-2.3-1.8-.5-.7-.2-1.5-.2-2.3h0s0,0,0,0c0,0,0,0,0,0h0Z"
                      style="fill:#532e1f;"/>
                <path id="ch"
                      d="M134.5,92.4c-.3-.5-.8-.9-.9-1.5-.2-1.1,.7-2,1.6-2.3,0,0,0-.1,0-.2,0,0-.1,0-.2,0-1.2,.3-2.1,1.5-1.8,2.8,.2,.6,.7,.9,1.1,1.4,0,0,0,0,.1,0,0,0,0,0,0-.1h0Z"
                      style="fill:#532e1f;"/>
                <path id="ci"
                      d="M130.5,86.6c0-.2,.1-.4,.1-.5,0-.9-.3-1.9,.1-2.7,.6-1.3,2.2-1.6,3.4-1,1.2,1.2,2.8,1.6,4.3,2.3,.7,.3,1.1,1,1.2,1.7,.2,1-.3,1.9-1,2.6h0s0,0,0,.1c0,0,0,0,.1,0,1-.9,1.5-2.2,1.1-3.5-.2-.6-.6-1-1.1-1.3-1.5-.8-3-1.2-4.4-2.3-1.1-.8-2.6-.5-3.5,.5-.9,1-.6,2.3-.4,3.5,0,.2,0,.4,0,.5,0,0,0,0,0,0,0,0,0,0,0,0h0Z"
                      style="fill:#532e1f;"/>
                <path id="cj"
                      d="M135.9,91.3c.8,.2,1.6,.3,2.4-.1,.6-.4,1-1,1.1-1.8,0,0,0,0,0,0,0,0,0,0,0,0-.3,1.5-1.9,2.1-3.3,1.8,0,0,0,0,0,0,0,0,0,0,0,0h0Z"
                      style="fill:#532e1f;"/>
                <path id="ck"
                      d="M138.4,90.6c-.3,.4-.8,.9-.7,1.4,.1,.9-.1,1.8-.3,2.6h0s0,0,0,0c0,0,0,0,0,0,.2-.9,.6-1.7,.4-2.6,0-.5,.2-1,.6-1.3,0,0,0,0,0,0,0,0,0,0,0,0h0Z"
                      style="fill:#532e1f;"/>
                <path id="cl"
                      d="M141,97.7c-.1-.8,.6-1.3,1.1-1.8,.6-.6,0-1.6,.4-2.4,0-.1,.2-.3,.3-.3,.4,0,.8,0,1.2-.2,.6-.4,.9-1.1,.8-1.8v-.2h0s0,0,0,0v-.2h0c.2,0,.6,.1,.8,0h.1c0-.1,.1-.2,.1-.2h0c0-.2,0-.3,.1-.4,0-.4-.2-.7,0-1.1,0-.2,0-.4-.2-.5-.3-.4-.9-.4-1.2-.8-.8-1-1.5-2-2.7-2.5-.8-.3-2-.1-2.4,.9,0,0,0,.2,0,.2,0,0,.2,0,.2,0,.3-.7,1.1-.9,1.8-.7,1.3,.4,1.9,1.5,2.8,2.5,.3,.3,.8,.4,1.1,.7,0,0,0,.2,0,.2-.2,.4,0,.7,0,1.1v.3h-.2c-.2,0-.4,0-.5,.1h-.2s0,0,0,0v.2h-.2c0,.1,0,.2,0,.2v.2c0,.6-.2,1.4-.9,1.5-.3,0-.7,0-1,.1-.8,.6-.5,1.7-.5,2.5,0,.2,0,.3-.2,.4-.6,.5-1.1,1.1-.9,1.9,0,0,0,0,0,0,0,0,0,0,0,0h0Z"
                      style="fill:#532e1f;"/>
                <path id="cm"
                      d="M139.2,93.9c.3-.1,.6-.2,.9-.1,.7,.2,1.2,1.1,1.9,.8,.1,0,.2-.2,.1-.3,0-.1-.2-.2-.3-.1,0,0-.1,.1-.2,0-.8-.4-1.6-1.1-2.5-.5h0s0,0,0,0c0,0,0,0,0,0h0Z"
                      style="fill:#532e1f;"/>
                <path id="cn"
                      d="M145.8,99c.2-1.1,1.4-1.9,2.5-1.7,1.2,.2,2.2,1.1,3.3,1,.7,0,1.3-.6,2.1-.7h.3c0-.1,0-.2,.1-.2h0c.2-.9,.1-1.8-.2-2.5-.4-.8-1.3-.7-1.9-1.2-.2-.1-.4-.3-.5-.5-.4-1.1-.6-2.5-1.8-2.9-.7-.2-1.4-.5-2.2-.6-.6-.2-1.2,0-1.8,.3h0c0,0-.1,.2,0,.2,0,0,.2,.1,.2,0,.5-.2,1-.4,1.5-.2,.7,.2,1.5,.4,2.2,.7,1,.4,1.2,1.5,1.4,2.5,.3,1.1,1.4,1.1,2.2,1.6,.7,.5,.7,1.4,.6,2.2v.3h-.2c-.8,0-1.4,.7-2.2,.6-1.1,0-2-.8-3.1-.9-1.2-.1-2.4,.8-2.6,2h0s0,0,0,0c0,0,0,0,0,0h0Z"
                      style="fill:#532e1f;"/>
                <path id="co"
                      d="M144.9,95.4c.5,0,.9,.3,1.4,.3h.2s0,0,.1,0h0c.1,0,.3-.1,.4-.2h0s0,0,0,0h0c.2-.7,0-1.4,.3-2,0,0,0,0,0-.1,0,0,0,0-.1,0-.4,.5-.2,1.1-.5,1.6v.3h-.2s0,0,0,0l-.3,.2h0c-.5,0-.9-.2-1.4-.2h0s0,0,0,0c0,0,0,0,0,0h0Z"
                      style="fill:#532e1f;"/>
                <path id="cp"
                      d="M146.6,95.2c.8,.4,1.3,1.1,1.1,2,0,0,0,.1,.1,.1s.1,0,.1-.1c.2-1-.4-1.8-1.3-2.1,0,0-.1,0-.1,0,0,0,0,.1,0,.1h0Z"
                      style="fill:#532e1f;"/>
                <path id="cq"
                      d="M138.6,103.2c1.2-.6,2.5-.8,3.8-.6,1.3,.6,3,.6,4-.5,0,0,.1-.2,0-.3,0,0-.2-.1-.3,0-.5,.4-1,.8-1.6,.8-1.3,0-2.5-.6-3.8-.2-.8,.2-1.5,.4-2.2,.8h0s0,0,0,0c0,0,0,0,0,0h0Z"
                      style="fill:#532e1f;"/>
                <path id="cr"
                      d="M153.9,95.9c0,.5,0,1.1,.3,1.6,.6,.8,1.8,1.1,2,2.1,.2,1.4,.2,2.8,1.3,3.9,.3,.3,.3,.7-.2,.8-.6,0-.8-.6-1.3-.9-.4-.3-.9-.5-1.2-1h0s0,0-.1,0c0,0,0,0,0,.1,.2,.5,.7,.7,1.1,1,.3,.2,.4,.6,.7,.8,.2,.2,.4,.3,.8,.2,.4-.1,.8-.4,.6-.9-.3-.8-.9-1.4-1-2.2-.1-.7,0-1.4-.2-2.1-.3-1-1.3-1.5-2.1-2.1-.4-.3-.4-.9-.5-1.5,0,0,0,0,0,0,0,0,0,0,0,0h0Z"
                      style="fill:#532e1f;"/>
                <path id="cs"
                      d="M145.1,100.1c.4,.6,.7,1.3,1.2,1.8,1.4,1.2,3.4,.6,5.2,1,1.2,.3,1.8,1.4,2.9,1.9,.6,.3,1.4,0,2-.4,0,0,.1-.2,0-.3,0,0-.2-.1-.3,0h0c-.5,.2-1.1,.3-1.6,.3-1.2-.8-2.2-2.1-3.8-2.1s-2.5,0-3.7-.4c-.8-.3-1.3-1.2-1.9-1.8h0s0,0-.1,0c0,0,0,0,0,.1h0Z"
                      style="fill:#532e1f;"/>
                <path id="ct"
                      d="M141.6,105.5c.5-.1,1.1-.2,1.6,.2,.5,.4,.5,1.1,.9,1.5,.4,.4,1,.5,1.6,.3,1.1,.3,1.8,1.2,2.2,2.2v.2h.1c0,0,0,.1,.1,.1h0c.6,0,1.1,0,1.7-.1,.3,0,.7,0,1,0,0,0,.2,0,.2-.2s0-.2-.2-.2c-.6,0-1.2,0-1.8,.2-.2,0-.4,0-.6,0h-.2s0,0,0,0h0c-.6-1.3-1.7-2.5-3.3-2.3-.1,0-.3-.1-.4-.2-.5-.5-.5-1.2-1.1-1.7-.6-.4-1.2-.2-1.8-.1,0,0,0,0,0,0,0,0,0,0,0,0h0Z"
                      style="fill:#532e1f;"/>
                <path id="cu"
                      d="M149,107.1c.2,.1,.4,.2,.6,.4,.8,.9,.9,2.1,1.6,3,.7,.8,1.7,.7,2.6,1.1,.4,.2,.6,.5,1,.6,.6,.2,1.3,.3,1.9,0h.2c0-.1,0-.1,.1-.2h.1c.5-1.4,.9-2.6,1.4-3.8,.2-.5,.4-1.1,.3-1.7,0-1-.5-1.9-1.3-2.7,0,0-.2,0-.3,0,0,0,0,.2,0,.3,.4,.7,.9,1.3,1,2.1,0,.7-.1,1.3-.4,1.9-.4,1-1,1.9-1.1,3l-.3,.4h-.1c-.5,.2-1,.2-1.4,0-1-.5-2-.9-3.1-1.3-.3-.1-.6-.3-.7-.5-.6-1.1-1.2-2.4-2.4-3,0,0,0,0,0,0,0,0,0,0,0,0h0Z"
                      style="fill:#532e1f;"/>
                <path id="cv"
                      d="M119.2,121.1c-.3,.6-.8,1.1-1,1.8-.3,1.2-.2,2.4,.4,3.5,.6,1.2,2.2,2.1,3.5,1.3,.4-.3,.5-.7,.4-1.2,0-.5-.3-1-.1-1.5,.2-.5,.7-.9,.6-1.5v-.2h0c.5-.8,.5-1.7,1-2.5,0,0,0,0,0-.1,0,0,0,0-.1,0-.5,.7-.5,1.7-1.1,2.4h-.1c0,.2,0,.2,0,.2v.2c0,.1,0,.3,0,.4-.3,.4-.7,.7-.7,1.3,0,.6,.4,1.2,.1,1.7-.4,.9-1.6,.5-2.3,0-1.2-.9-1.3-2.5-1.1-3.8,0-.7,.5-1.3,.7-2,0,0,0-.1,0-.1,0,0-.1,0-.1,0h0Z"
                      style="fill:#532e1f;"/>
                <path id="cw"
                      d="M119.3,126.8c.7,1,1.9,1.3,3,1,1.2,.5,2.1,1.6,3.6,1.5,.9,0,1.8-.3,2.5-1h0c.5,.8,1.3,1.3,2.2,1.3,1,0,1.9-.7,2.8-1.1,.2,0,.3-.1,.5,0,1.6,.2,3.3,.4,4.6-.8,.9-.8,0-1.8-.4-2.6h0v-.2c.2-.6,.5-1,.6-1.6,0-.4-.1-.7-.3-1.1-.2-.3-.4-.5,0-1v-.2c0,0,0,0,0-.1v-.2c-.3-.4-.6-.8-.5-1.2,.1-.3,.2-.6,.1-.9,0-.2,0-.4-.2-.5-.4-.6-.8-1.2-1.2-1.8-.3-.4,0-.9,0-1.3,0-.3-.2-.5-.4-.7h-.2v-.2c0-.3,0-.7,.1-1,0-.2,0-.3,0-.5s0,0,0,0,0,0,0,0c0,.2,0,.3,0,.4-.1,.3-.2,.6-.3,1v.3c0,0,.1,0,.1,0h.2c.1,.3,.3,.5,.4,.8,0,.4-.2,.8,0,1.2,.4,1,1.7,2,1.2,3.2-.2,.4,0,.8,.3,1.2v.3h.1v.2c-.2,.2-.2,.4-.2,.6,.1,.5,.4,.8,.5,1.2,.1,.5-.4,.9-.4,1.4v.4c-.2,0-.2,0-.2,.1v.3c.3,.7,1.2,1.4,.6,2-.4,.4-1,.5-1.6,.7-1,.3-2-.2-3,0-1.1,.2-1.8,1-2.9,1.1-.8,.1-1.6-.4-2-1.1h-.3c0-.2-.2-.2-.2-.1l-.2,.2s0,0,0,0c-.8,.7-2,.9-3,.6-.9-.3-1.5-1-2.4-1.3-.5-.2-1,0-1.5,0-.6,0-1.1-.3-1.6-.7,0,0,0,0-.1,0,0,0,0,0,0,.1h0Z"
                      style="fill:#532e1f;"/>
                <path id="cx"
                      d="M137.3,128c.5,0,.8-.4,1.2-.6,.1,0,.3,0,.4,.2h0c0,0,.1,.1,.2,.1h.2c.5,0,.8-.3,1.3-.5,.6-.3,1.1,.3,1.7,.3,.7,0,1.3-.7,1.8-1.1,.5-1.3,1.9-1.9,3.1-2.5,1.1-.6,1.4-1.9,.7-3,0-.1,0-.3-.1-.5-.8-1.1-.7-2.4-1.1-3.5-.4-1.1-1.3-1.8-1.9-2.8-.5-.8,.2-1.6,.5-2.3,.3-.6-.2-1.3-.7-1.8-.2-.2-.2-.5-.4-.8,0,0,0,0,0,0,0,0,0,0,0,0,.3,.8,1.2,1.4,.9,2.3-.6,.6-1,1.4-.8,2.3,.4,1.3,1.8,2,2,3.3,.4,1.7,1,3.2,1.6,4.8,.2,.7-.2,1.3-.8,1.6-.9,.5-1.8,.8-2.5,1.5-.7,.8-1.2,1.8-2.2,2.1-.8-.7-1.9-.3-2.7,.2h0l-.3-.2c-.3-.3-.8-.3-1,.1-.2,.3-.5,.5-.8,.7,0,0,0,0,0,0,0,0,0,0,0,0h0Z"
                      style="fill:#532e1f;"/>
                <path id="cy"
                      d="M137,107.1c.7,.5,.8,1.4,1.4,2.1,0,.1,.2,.2,.4,.3,.7,.2,1.6-.3,2.1,.5,.4,.6,.1,1.5,.7,2.1,.9,.9,1.9,1.3,2.7,2.4,.1,.2,.4,.3,.5,.4,0,0,0,.1,0,.2h.2v-.2h.1s0,0,0,0h0c-.3-.1-.7-.3-1-.4-1-.3-1.9,0-2.9,.3h0s0,0,0,0,0,0,0,0c1.2-.3,2.6-.5,3.8,.1,0,0,.1,0,.2-.1v.2h-.1s0,0,.1,0h0c0,0,.1,0,.1-.1,0,0,0-.1-.1-.2h-.2s0,0,0-.1c-.4-.5-.7-1-1.1-1.4-.6-.7-1.4-1-2-1.6-.1-.1-.3-.3-.3-.5,0-.6,0-1.3-.6-1.8-.6-.5-1.4-.2-2.1-.3-.2,0-.3,0-.4-.2-.5-.7-.8-1.5-1.5-1.9,0,0,0,0,0,0,0,0,0,0,0,0h0Z"
                      style="fill:#532e1f;"/>
                <path id="d`"
                      d="M147.5,112.5c.3,.2,.6,.5,.7,.8,.1,.3,.2,.7,.4,.9,.6,.4,.9,.9,1.3,1.4,.1,.2,.3,.2,.5,.3,0,0,.1,0,.2,0,0,0,0-.1,0-.2-.4-.2-.6-.7-.8-1.1-.3-.4-.9-.4-1.2-.9-.3-.5-.6-.9-1.1-1.3h0s0,0,0,0c0,0,0,0,0,0h0Z"
                      style="fill:#532e1f;"/>
                <path id="da"
                      d="M147.1,123.6c.3,0,.5,0,.7-.2,.4-.3,.6-.8,1-1.1,1.1-.8,2.3-1,3.2-2,.4-.5,.7-1,1-1.6,.4-.8-.7-1.2-1.2-1.5l-.2-.3h0c0,0,0,0,0-.1h0c-.5-.4-1.3-.2-1.9-.4,0,0,0,0,0,0,0,0,0,0,0,0,.5,.1,1,0,1.5,.3l.3,.2h0s0,0,0,0h0v.2c0,.1,.1,.2,.2,.3,.3,.4,.8,.4,1.1,.8-.5,1.7-2.2,2.6-3.7,3.3-.7,.3-.9,1-1.4,1.5-.1,.2-.3,.2-.5,.3,0,0-.1,.1,0,.2,0,0,.1,.1,.2,0h0Z"
                      style="fill:#532e1f;"/>
                <path id="db"
                      d="M150.6,121c.9-.8,2.8-1.5,2.4-3h0l-.2,.2h0c.8,0,1.8-.5,2.1-1.3,.4-.9,.8-1.8,1.5-2.6,.6-.6,.3-1.5,.5-2.2,0-.1,0-.3-.1-.3-.1,0-.3,0-.3,.1-.2,.7,0,1.5-.4,2.1-.7,.9-1.2,1.8-1.5,2.8-.4,.4-.9,.8-1.6,.9h-.3c0,0-.2,.2-.2,.3v.3s0,0,0,0c.2,.3,0,.7-.3,.9-.7,.5-1.3,1.1-1.8,1.7,0,0,0,.1,0,.2,0,0,.1,0,.2,0h0Z"
                      style="fill:#532e1f;"/>
                <path id="dc"
                      d="M132.6,113.6c-.2,.7-.5,1.5-.3,2.3h0c0,.1,0,.2,0,.2h0c.3,.5,.8,.9,1.3,1.2,0,0,.1,0,.2,0,0,0,0-.1,0-.2-.3-.4-.8-.6-1.1-1.1l-.2-.2h0c-.3-.8-.1-1.5,0-2.2,0,0,0,0,0,0,0,0,0,0,0,0h0Z"
                      style="fill:#532e1f;"/>
                <path id="dd"
                      d="M132.3,115.7c.2,.2,.3,.5,.2,.8h0c0-.1,0,0-.1,0h0c-1.2,.5-2.4,1.4-2.6,2.8-.1,.7-.1,1.5-.2,2.2-.7,1.4-1.6,2.6-1.9,4.2-.2,1.3,.4,2.7,1.3,3.6,0,0,.2,0,.3,0,0,0,0-.2,0-.3-.7-.6-1-1.5-1.1-2.4-.2-1.6,.8-3.1,1.6-4.5,.1-.2,.2-.4,.2-.6,0-.7,0-1.5,.2-2.2,.2-1.3,1.3-2,2.4-2.6h0c0,0,.1,0,.1-.2v-.2c0-.3-.2-.5-.4-.7h0s0,0-.1,0c0,0,0,0,0,.1h0Z"
                      style="fill:#532e1f;"/>
                <path id="de"
                      d="M126.8,118.5c1.2,1.3-.2,2.8-1.1,3.9-.4,.5-.4,1.2-.3,1.8,0,0,0,0,0,0s0,0,0,0c0-.7,0-1.4,.5-1.9,1.2-.9,2.2-2.8,.8-3.9h0s0,0-.1,0c0,0,0,0,0,.1h0Z"
                      style="fill:#532e1f;"/>
                <path id="df"
                      d="M126.9,121c0,0,0,.2,.1,.3,.5,.5,1.2,.7,1.4,1.5,.1,.6-.2,1.2-.3,1.8h0c0,0,0,.1,0,.1,0,0,.1,0,.1,0,.2-.5,.4-.8,.5-1.3,.2-1-.5-1.8-1.4-2.1-.1,0-.2-.2-.3-.3,0,0-.2,0-.3,0,0,0,0,.2,0,.3h0Z"
                      style="fill:#532e1f;"/>
                <path id="dg"
                      d="M129.2,122.7c.2-.4,.4-.8,.7-1.1h.1c.3-.3,.7,0,1.1,0h.3s0,0,0,0h0c.2-.2,.3-.3,.4-.5,0,0,0-.2,0-.2,0,0-.2,0-.2,0,0,0-.1,.1-.2,.2l-.3,.2h-.2c-.4,0-.8-.2-1.1,0h-.1s0,0,0,.1h0c-.3,.5-.5,.9-.6,1.4h0s0,0,0,0c0,0,0,0,0,0h0Z"
                      style="fill:#532e1f;"/>
                <path id="dh"
                      d="M132.9,118.9c-.1,.5-.4,.9-.7,1.4-.5,.9-.3,1.9,.3,2.7,0,0,.1,0,.2,0,0,0,0-.1,0-.2-1-1.2-.2-2.7,.3-3.9,0,0,0,0,0,0,0,0,0,0,0,0h0Z"
                      style="fill:#532e1f;"/>
                <path id="di"
                      d="M134.7,119.3c.2,.4,.4,.8,.5,1.2,.1,.7-.3,1.2-.7,1.7-.7,.6-.7,1.6-.4,2.4,0,0,0,0,.1,0,0,0,0,0,0-.1-.2-.6-.3-1.3,.2-1.8,.5-.5,1-1.2,1.1-1.9,0-.6-.5-1-.7-1.6h0s0,0,0,0c0,0,0,0,0,0h0Z"
                      style="fill:#532e1f;"/>
                <path id="dj"
                      d="M135.1,121.2c-.2,1.4,1.5,1.8,2.3,2.7,.2,.2,.4,.5,.3,.8,0,0,0,.2,.2,.1,0,0,.1,0,.1-.2,0-1.5-1.8-1.8-2.6-2.7-.2-.2-.2-.5-.2-.7h0s0,0,0,0c0,0,0,0,0,0h0Z"
                      style="fill:#532e1f;"/>
                <path id="dk"
                      d="M141,117c0,.1,0,.2,0,.3-.4,.7-.9,1.4-.7,2.3h0c0,.2,0,.2,0,.2h0c.3,.6,1.1,.6,1.6,.9,.5,.2,.6,.8,.9,1.2,0,0,0,0,0,0,0,0,0,0,0-.1-.4-.9-1-1.6-2.1-1.8-.1,0-.2-.1-.3-.2v-.2h0v-.2c0-.3,0-.7,.1-1,.2-.5,.6-.9,.5-1.4,0,0,0,0,0,0,0,0,0,0,0,0h0Z"
                      style="fill:#532e1f;"/>
                <path id="dl"
                      d="M140.4,124.2c.2,.2,.4,.4,.5,.7,.3,.7,.4,1.5,1.2,2,.4,.3,.9,.3,1.3-.2,0,0,0-.2,0-.3,0,0-.2,0-.3,0-.3,.3-.7,.1-1-.2-.6-.7-.8-1.6-1.6-2.1,0,0,0,0,0,0,0,0,0,0,0,0h0Z"
                      style="fill:#532e1f;"/>
                <path id="dm"
                      d="M137.7,121.3c.2-.2,.1-.5,.3-.7v-.2h0c0,0,0,0,0,0h0c.6-.5,1.4-.6,2.2-.6,.1,0,.2,0,.2-.2s-.1-.2-.2-.2c-.9,0-1.8,.1-2.4,.7v.2h-.1s0,0,0,.1h0c-.1,.4-.1,.7-.2,.9,0,0,0,.1,.1,.2,0,0,.1,0,.2-.1h0Z"
                      style="fill:#532e1f;"/>
                <path id="dn"
                      d="M131.5,72.7c.8,1.2,.7,2.5,1.1,3.8,.3,.9,1,1.6,1.8,2.1,1.9,1.1,3.8,1.4,5.7,2.5,2.4,1.4,4.4,2.8,6.7,4.4,1.7,1.1,3.3,2.2,4.7,3.6,1.8,1.9,3.5,3.6,5.8,5,.3,.2,.5,.3,.9,.3h.2s0,0,.1,0h.1c.4-.3,.7-.6,.8-1.1,.8-1.9-.2-3.8-1.4-5.2,0,0,0,0-.1,0,0,0,0,0,0,.1,.4,.7,.9,1.3,1.2,2,.4,1.1,.3,2.6-.5,3.5l-.3,.2h-.2c-.2,0-.4-.1-.6-.2-2.2-1.4-3.9-3.1-5.7-5-1.5-1.5-3-2.5-4.8-3.7-2.3-1.5-4.3-3-6.7-4.4-1.7-1-3.4-1.4-5.2-2.2-1-.5-1.9-1.1-2.2-2.1-.5-1.3-.5-2.6-1.3-3.7h0s0,0,0,0c0,0,0,0,0,0h0Z"
                      style="fill:#532e1f;"/>
                <path id="do"
                      d="M149.9,83.5c.2,3.5,2.2,6.7,5.1,8.6,0,0,0,0,.1,0,0,0,0,0,0-.1-2.4-2.3-4.5-5.2-5-8.5,0,0,0,0,0,0,0,0,0,0,0,0h0Z"
                      style="fill:#532e1f;"/>
                <path id="dp"
                      d="M136.6,79.4c-1.8-1-3.8-1.7-5.9-1.5-.8,0-1.6,.3-2,1.1h0c0,.1,0,.2,0,.2h0c0,.2,0,.2,0,.3h0v.2c0,0,0,0,.1,.1h.1c.3,.3,.6,.5,1,.5,3.1,.3,6.2,.9,8.7,2.7,2.6,1.1,5,2.7,7.1,4.6,0,0,0,0,0,0,0,0,0,0,0,0-2.7-2.6-5.9-4.5-9.3-6.1-2-1-4.1-1.3-6.3-1.4-.3,0-.6-.2-.8-.3l-.3-.2h0s0,0,0,0h0v-.2c.4-.3,.7-.6,1.1-.7,1.9-.4,3.5,.2,5.2,.8,.4,.1,.8,.2,1.2,.2h0s0,0,0,0c0,0,0,0,0,0h0Z"
                      style="fill:#532e1f;"/>
                <path id="dq"
                      d="M155,75.2c.4,2,1.2,4,2.9,5.3,1.7,1.4,3.8,1.9,5.9,1.9,.5,0,1,.2,1.4,.4,0,0,0,0,0,0,0,0,0,0,0,0-.7-.3-1.3-.7-2.1-.8-2.4-.2-4.8-1.1-6.3-3.2-.8-1.1-1.5-2.2-1.8-3.6h0s0,0,0,0c0,0,0,0,0,0h0Z"
                      style="fill:#532e1f;"/>
                <path id="dr"
                      d="M137.6,51.6c1.3,.8,2.6,1.7,3.3,3.1,1,2.2,1.4,4.5,2.2,6.8,.5,1.7,2.1,2.8,3.9,3.1,1.4,.2,2.9,0,4.1-.9,1.6-1.1,2.5-2.6,3.9-3.9,.3-.3,.6-.4,.9-.6,1.1-.5,2.2-.8,3.3-1.4,1.8-1,2.9-2.5,4.1-4,0,0,0,0,0-.1,0,0,0,0-.1,0-1.3,1.4-2.7,2.7-4.4,3.7-1.1,.6-2.3,.9-3.4,1.5-.2,.1-.5,.2-.7,.4-1.3,1.2-2.3,2.6-3.6,3.7-1.2,1-2.7,1.2-4.1,1-1.3-.2-2.6-1-3.2-2.2-1.2-2.3-1.3-4.9-2.5-7.3-.8-1.5-2.3-2.4-3.7-3.1h0s0,0,0,0c0,0,0,0,0,0h0Z"
                      style="fill:#532e1f;"/>
                <path id="ds"
                      d="M143.2,61.1c0,.5,.1,1,.5,1.4,1.5,1.7,2.9,3.6,2.8,5.9,0,.3-.2,.5-.3,.8-.7,1-1,2.1-1.5,3.1-.5,.9-1.4,1.4-2.2,2-.8,.6-1.7,.8-2.6,1.1,0,0,0,0,0,0,0,0,0,0,0,0,.9-.4,2-.4,2.8-.9,1-.6,2.1-1.3,2.5-2.5,.4-.9,.7-1.8,1.3-2.6,.6-.9,.5-1.9,.2-2.8-.4-1.6-1.2-3.2-2.7-4.2-.4-.3-.6-.8-.7-1.4h0s0,0,0,0c0,0,0,0,0,0h0Z"
                      style="fill:#532e1f;"/>
                <path id="dt"
                      d="M149.3,81.6c-.1-.2-.2-.5-.3-.8-.4-1.4-.6-2.8-1.5-4-1.3-1.8-1.9-3.9-1.5-6.1,.2-.8,.6-1.4,.9-2.1,.3-.8,.2-1.7,.6-2.5,.9-1.6,2.8-2,4.3-3,.3-.2,.5-.4,.7-.7,.8-.8,1.3-1.7,2.2-2.3,0,0,0,0,0,0,0,0,0,0,0,0-1.3,.9-2.1,2.2-3.5,3-.8,.4-1.6,.8-2.4,1.3-.7,.4-1.3,.9-1.6,1.6-.4,.8-.3,1.7-.6,2.6-.3,.8-.8,1.4-1,2.3-.4,1.7-.1,3.4,.7,4.8,.7,1.3,1.6,2.5,2.1,3.8,.3,.8,.5,1.6,.9,2.3,0,0,0,0,0,0,0,0,0,0,0,0h0Z"
                      style="fill:#532e1f;"/>
                <path id="du"
                      d="M142.1,74.5c.9-.5,1.8-1.2,2.8-.6,.6,.4,.8,1.1,1.2,1.7,0,.1,.2,.1,.3,0,0,0,.1-.2,0-.3-.4-.9-.8-2-1.9-2.1-.8-.1-1.5,.1-2,.8-.1,.2-.3,.2-.5,.3,0,0,0,0,0,0,0,0,0,0,0,0h0Z"
                      style="fill:#532e1f;"/>
                <path id="dv"
                      d="M163,64.7c2.2,1.6,4.4,3.4,5.4,6,.4,.9,.5,1.8,.4,2.8-.1,1-.2,1.9,0,2.9,0,0,0,0,0,0,0,0,0,0,0,0-.3-.9,0-1.9,0-2.9,.2-1.2,.1-2.3-.4-3.4-.4-.9-1.1-1.6-1.7-2.4-1.1-1.3-2.6-2-3.9-3,0,0,0,0,0,0,0,0,0,0,0,0h0Z"
                      style="fill:#532e1f;"/>
                <path id="dw"
                      d="M166.4,47.5c.3,.5,.4,1,.7,1.5,3.2,4.3,7.3,8.5,6.1,14.3-.6,2.9-3.5,5.3-6.4,4.4h0c-.1,0-.3,0-.3,.1,0,.1,0,.3,.1,.3,2.9,1,5.9-1.3,6.8-4,1-2.7,.4-5.7-1-8.2-1.5-2.8-3.3-5.2-5.5-7.6-.2-.2-.3-.5-.5-.8h0s0,0,0,0c0,0,0,0,0,0h0Z"
                      style="fill:#532e1f;"/>
                <path id="dx"
                      d="M169,72.8c.1-1.5-.4-3.2,.7-4.4,1.1-1.1,2.4-2,3.2-3.3,0,0,0-.1,0-.2,0,0-.1,0-.2,0-.6,.8-1.4,1.4-2.2,2.1-.5,.5-1.2,.9-1.5,1.5-.8,1.3-.2,2.8-.1,4.2h0s0,0,0,0c0,0,0,0,0,0h0Z"
                      style="fill:#532e1f;"/>
                <path id="dy"
                      d="M173.6,60.1c.1,2,1.5,3.7,2.2,5.5,.6,1.6,1.5,3,2,4.6,.4,1,.7,2,.8,3.1,0,3,.3,6-.7,8.8-.9,2.5-2.2,4.6-3.9,6.9-2,2.8-5.5,4.3-8.7,3-2.9-1.2-3.2-4.6-3.9-7.3-.4-1.3-1.1-2.5-2-3.5-.8-.9-1.9-1.4-2.6-2.4h0s0,0-.1,0c0,0,0,0,0,.1,1.2,1.7,3,2.8,3.9,4.8,.7,1.5,.9,3.1,1.3,4.6,.5,1.5,1.2,3,2.6,3.8,4,2.4,8.6-.1,10.8-3.8,1.5-2.5,3.1-4.8,3.6-7.7,.5-2.7,.4-5.4,.2-8.1-.8-3.2-2.4-6.1-3.7-9.1-.4-.8-.9-1.5-1.3-2.4-.1-.3-.2-.5-.2-.8h0s0,0,0,0c0,0,0,0,0,0h0Z"
                      style="fill:#532e1f;"/>
                <path id="e`"
                      d="M155.2,92.2c1,.9,2.1,1.4,3.2,2.2,.4,.3,.6,.7,.8,1.1,2.1,3.7,6.4,6.4,10.5,5.4,.9-.5,1.8-1,2.4-1.7,2.3-2.7,4.2-5.6,4.9-9.1,.4-2,.2-4,.4-6,.4-1,.8-1.9,1-2.9,0,0,0-.1,0-.1,0,0-.1,0-.1,0-.3,.7-.6,1.5-1,2.2-.2,.3-.2,.5-.3,.8-.2,1.9,0,3.8-.3,5.7-.2,1.7-1,3.2-1.9,4.7-1.3,2.3-2.6,4.8-5.1,5.9-3.8,1.1-7.5-1.3-9.6-4.4-.5-.7-.8-1.4-1.5-1.9-.9-.7-1.9-.9-2.8-1.5-.2-.1-.3-.3-.5-.4,0,0,0,0,0,0,0,0,0,0,0,0h0Z"
                      style="fill:#532e1f;"/>
                <path id="ea"
                      d="M107.4,14.8c.5,1.4,1.3,2.8,1,4.4-.5,3-1.2,5.8-1,8.8,.1,1.5,.4,3,.9,4.4,.7,1.9,1.6,3.8,3.2,5.1,.7,.6,1.5,.9,2.3,.9,.9,0,1.7,0,2.6,0,.3,0,.5,.2,.7,.3,1.2,.9,1.9,2.5,3.6,2.2,2-.4,3.7-1.5,5-3,1.2-1.3,1.7-2.9,2.7-4.5,.2-.3,.5-.7,.8-.9,.9-.8,1.8-1.6,2.6-2.5,1.3-1.5,2.5-2.9,3.6-4.7,.6-1.1,.8-2.3,1.1-3.5,0,0,0,0,0,0,0,0,0,0,0,0-.3,1.5-.8,3.1-1.9,4.3-1,1.1-1.7,2.2-2.7,3.3-.9,1-1.9,1.8-2.9,2.8-1,1-1.5,2.2-2.2,3.5-1.3,2.3-3.3,4.3-6,4.8-.7,.1-1.4,0-1.9-.6-.7-.9-1.5-1.8-2.6-1.9-.8,0-1.6,0-2.4,0-.8,0-1.5-.3-2.1-.9-1.4-1.4-2.5-3.1-3-5-.6-2.2-1-4.3-.8-6.6,.2-2.1,.6-4.2,.9-6.3,.3-1.7-.8-3-1.3-4.5h0s0,0,0,0c0,0,0,0,0,0h0Z"
                      style="fill:#532e1f;"/>
                <path id="eb"
                      d="M101.6,2.9c.8,.3,1.7,0,2.5,0,1.5,.1,2.9,.9,4.4,1.4,1.5,.5,3,.8,4.5,1.3,2.2,.8,4.2,1.7,5.8,3.5,2.2,2.6,2.9,6.3,1.7,9.4-1,2.5-2.8,4.5-3.7,7-.6,1.6-.8,3.2-.3,4.8,.4,1.3,1.1,2.5,2,3.5,0,0,0,0,.1,0,0,0,0,0,0-.1-1.2-1.4-2-3.2-1.9-5,0-3.6,2.5-6.4,4-9.5,2-4,.7-9-2.8-11.8-1.5-1.2-3.2-1.9-5-2.5-1.4-.4-2.7-.8-4.1-1.2-1.6-.5-3.1-1.4-4.8-1.4-.8,0-1.5,.3-2.3,.3,0,0-.1,0-.1,.1s0,.1,.1,.1h0Z"
                      style="fill:#532e1f;"/>
                <path id="ec"
                      d="M121.4,29.9c-.9-.8-1.4-1.9-1.7-3-.4-1.4-.3-2.8-.3-4.2,0-1.3,.7-2.4,1.3-3.6,.1-.3,.1-.5,.2-.8,0,0,0-.2,0-.2,0,0-.2,0-.2,0-.6,1.5-1.6,2.8-1.7,4.5-.1,2.6,.2,5.6,2.4,7.3,0,0,0,0,0,0,0,0,0,0,0,0h0Z"
                      style="fill:#532e1f;"/>
                <path id="ed"
                      d="M90.5,23.4c1,.4,2.2,.2,3.3,.2,.6,0,1.2,.2,1.7,.6,1.6,1.4,3.3,2.8,5.5,3,2.3,.1,5.3-.3,6.5,2.2,0,.1,.2,.2,.3,.1,.1,0,.2-.1,.1-.3-1-2.7-4.4-2.5-6.7-2.5-2.1,0-3.7-1.5-5.3-2.9-1.4-1.1-3.1-.5-4.6-.5-.2,0-.4,0-.6-.1,0,0,0,0,0,0,0,0,0,0,0,0h0Z"
                      style="fill:#532e1f;"/>
                <path id="ee"
                      d="M90.4,33.3c1.2,.3,2.4,.5,3.6,.5,1.1,0,2.1,.7,3.2,.9,2.3,.5,5,1.7,7-.1,.8-1.1,1-2.5,.7-3.9h0s0,0,0,0c0,0,0,0,0,0,.2,1.2,0,2.3-.8,3.3-.4,.5-1,.9-1.7,.9-2.3,.1-4.5-.6-6.6-1.3-1-.3-2.1-.2-3.2-.2-.7,0-1.4-.1-2.1-.3h0s0,0,0,0c0,0,0,0,0,0h0Z"
                      style="fill:#532e1f;"/>
                <path id="ef"
                      d="M91.3,33.8c3,0,5.9,.4,8.6,1.9,2.7,1.4,4.3,3.8,6.3,5.9,1.3,1.4,2.9,2.2,4.4,3.3,0,0,.2,0,.3,0,0,0,0-.2,0-.3-.9-.9-1.9-1.4-3-2.2-2.1-1.6-3.3-3.8-5.3-5.5-1.5-1.3-3.3-2.1-5.2-2.9-2-.8-4.1-.5-6.1-.4,0,0,0,0,0,0,0,0,0,0,0,0h0Z"
                      style="fill:#532e1f;"/>
                <path id="eg"
                      d="M136.8,29.2c0,.3-.2,.7,0,1,.4,2.2,0,4.3-.7,6.3-.7,1.1-1.8,1.8-2.7,2.8-1.5,1.5-2.4,3.2-3.4,5-.3,.5-.8,1.1-1.5,1-1.8-.5-3.5-1.5-4.6-3.1-.5-.7-.8-1.6-.3-2.4,0,0,0-.2,0-.3-.1,0-.2,0-.3,0-.4,.4-.5,.9-.4,1.5,.2,1.1,.7,2,1.6,2.7,1.3,.9,2.4,1.9,4,2.2,.3,0,.6,0,.8-.2,1.3-.8,1.6-2.2,2.4-3.5,.6-.9,1.3-1.6,2-2.4,.9-1.1,2.2-1.7,2.7-3,.9-2.1,1.2-4.4,.5-6.6,0-.3,0-.6,0-.9,0,0,0,0,0,0,0,0,0,0,0,0h0Z"
                      style="fill:#532e1f;"/>
                <path id="eh"
                      d="M145.1,32.2c-1.4,.9-2.5,1.9-3.9,2.9-1.2,.8-2.4,1.7-3.8,1.4-.3,0-.6-.2-.7-.5h0c0-.1-.2-.1-.3,0-.1,0-.1,.2,0,.3,.5,.8,1.5,1,2.4,.7,2.7-.8,4.3-3.1,6.5-4.6,0,0,0,0,0,0,0,0,0,0,0,0h0Z"
                      style="fill:#532e1f;"/>
                <path id="ei"
                      d="M139.4,44.1c-.2,.2-.4,.2-.6,.4-1.6,1.5-3,3.1-4.9,4.2-.5,.3-1.1,.4-1.7,.3-.9-.2-1.4-1.1-1.9-1.9,0-.9-.2-1.8,0-2.7,0-.1,0-.3-.1-.3-.1,0-.3,0-.3,.1-.3,1-.3,2.1,0,3,.3,1.1,1.2,2.3,2.4,2.2,2.9,0,4.5-3,6.5-4.9,.2-.2,.4-.3,.6-.4,0,0,0,0,0,0,0,0,0,0,0,0h0Z"
                      style="fill:#532e1f;"/>
                <path id="ej"
                      d="M111.7,4.9c1,.6,2.2,1,3.3,1.5,.4,.2,.7,.5,1.2,.7,.8,.2,1.6,0,2.5,0,2,.1,4,.4,5.9,1.6,1.8,1.3,3.1,2.8,5.1,3.8,1.5,.8,3.1,1.4,4.6,2.2,2.5,1.4,4.1,4,3.9,6.8,0,0,0,0,0,0s0,0,0,0c0-1.1,.2-2.3-.2-3.4-.4-.9-1-1.8-1.7-2.5-1.9-1.7-4.2-2.5-6.4-3.6-1.9-1-3.2-2.6-5.1-3.8-2.5-1.6-5.4-1.8-8.2-1.6-.4,0-.6-.3-.9-.5-1.2-.6-2.6-.7-3.8-1.3,0,0,0,0,0,0,0,0,0,0,0,0h0Z"
                      style="fill:#532e1f;"/>
                <path id="ek"
                      d="M131.5,13.2c.4,.3,.9,.6,1.4,.8,2.1,.5,4,.8,5.9,2,1.3,.9,2.5,1.6,3.8,2.5,3.3,2.6,5.8,5.6,8.6,8.7,1.7,1.8,2.3,4.3,2.1,6.8-.1,1.8-1.1,3.2-2.2,4.6-1.3,1.6-3.1,2.2-4.9,3.2-.5,.3-.9,.5-1.3,.9-1.4,1.2-2.4,2.8-3.8,4,0,0,0,0,0,0,0,0,0,0,0,0,1.4-1.2,2.5-2.6,4-3.7,1.6-1.2,3.4-1.8,5.1-3,2-1.5,3.3-3.6,3.6-6,.2-1.5-.1-3-.7-4.5-.8-2.1-2.5-3.5-4-5.1-1.4-1.5-2.7-2.9-4.2-4.4-1.7-1.7-3.6-2.9-5.6-4.2-2-1.3-3.9-1.9-6.2-2.2-.6,0-1.1-.3-1.6-.5,0,0,0,0,0,0,0,0,0,0,0,0h0Z"
                      style="fill:#532e1f;"/>
                <path id="el"
                      d="M146.6,45c.3-.7,.6-1.4,1.2-1.9,2.9-2,4.5-4.8,5.6-7.9,0,0,0-.2,0-.2,0,0-.2,0-.2,0-1.3,2.9-2.9,5.6-5.5,7.7-.6,.5-.8,1.3-1.2,2.1h0s0,0,0,0c0,0,0,0,0,0h0Z"
                      style="fill:#532e1f;"/>
                <path id="em"
                      d="M151.5,26.9c1.3,2.2,3.6,3.4,5.5,5.1,3.1,2.8,5.7,6.1,6.7,10.1,.6,1.1,1.4,2,2,3.1,.6,1.2,.8,2.4,.6,3.7-.2,1.6-1.2,2.9-1.8,4.3h0s0,0,0,.1c0,0,0,0,.1,0,.9-1.3,1.9-2.6,2.1-4.2,.2-1.5,0-2.8-.7-4.1-.6-1.1-1.5-2-2-3.1-.4-.9-.5-1.9-1-2.8-1.3-2.4-2.8-4.4-4.7-6.3-2.1-2.2-4.9-3.6-6.9-5.9h0s0,0,0,0c0,0,0,0,0,0h0Z"
                      style="fill:#532e1f;"/>
                <path id="en"
                      d="M37.3,8.7c1.5-.5,2.9-1.1,4.4-1.7,.9-.4,1.9-.2,2.8-.5,2.4-.7,4.4-2.1,6.6-3.1,2.2-.9,4.6-1.2,7-1.2,1.6,0,3.2,1.1,3.5,2.8,.3,1.6,.3,3.2,1.3,4.7,1,1.5,2.6,1.9,4.2,2,0,0,.2,0,.2-.1,0,0,0-.2-.1-.2-1.6-.3-3.3-.7-4.1-2.3-.7-1.5-.6-3.1-1.1-4.7-.5-1.6-2.2-2.7-3.8-2.7-2.4,0-4.8,.3-7.1,1.2-2.3,1-4.3,2.4-6.7,3.1-.7,.2-1.3,.1-2,.3-1.9,.4-3.3,1.5-5,2.2h0s0,0,0,0c0,0,0,0,0,0h0Z"
                      style="fill:#532e1f;"/>
                <path id="eo"
                      d="M61.6,5.4c.7,3.3-.6,6.7-.3,10.1,.1,1.4,.3,2.8,1.2,4,.8,1.1,1.6,2.2,2.7,3,0,0,0,0,.1,0,0,0,0,0,0-.1-.9-.8-1.6-1.8-2.3-2.9-.7-1-.9-2-1.1-3.1-.5-3.1,.5-6,.3-9.1,0-.7-.3-1.3-.5-1.9h0s0,0,0,0c0,0,0,0,0,0h0Z"
                      style="fill:#532e1f;"/>
                <path id="ep"
                      d="M61.6,16c-.2-1.8,.5-4.3,2.5-4.8,1,.1,2,.5,3.1,.6,.8,.1,1.4,.5,2.1,.9,0,0,.1,0,.2,0,0,0,0-.1,0-.2-.7-.4-1.3-.8-2.1-1-1-.3-1.9-.5-2.9-.7-.6-.1-1.1,.1-1.5,.5-1.3,1.2-1.7,3-1.4,4.7,0,0,0,0,0,0,0,0,0,0,0,0h0Z"
                      style="fill:#532e1f;"/>
                <path id="eq"
                      d="M59,2.1c.4,.4,1,.9,1.5,.6,1.7-.8,3.2-1.9,5.2-2.1,2.6-.3,4.9,.7,7.4,1.4,1.2,.3,2.3,0,3.5,0,1.6,.1,3.5,1.1,3.7,2.9,.2,2,.4,4,.5,6,0,1.3,.7,2.5,1.1,3.7,0,0,0,0,.1,0,0,0,0,0,0,0-.4-1.2-.7-2.4-.8-3.7,0-2-.4-3.9-.5-5.9,0-.4-.1-.8-.3-1.1-.9-1.4-2.4-2.2-3.9-2.3-1.2,0-2.4,.2-3.6-.1-2.5-.7-4.8-1.6-7.4-1.3-2,.2-3.5,1.2-5.2,2.2-.4,.2-.9-.1-1.3-.3,0,0-.1,0-.2,0,0,0,0,.1,0,.2h0Z"
                      style="fill:#532e1f;"/>
                <path id="er"
                      d="M77.8,2c.4,.1,.8,0,1.1-.2,3.7-2.5,7.3,.4,10.9,.7,2.6,.2,5-.7,7.6-.5,1.2,.1,2.3,.4,3.4,.9,1.7,.9,3.2,2.4,3.7,4.3,.6,2,.4,3.9,.2,5.9,0,.6,0,1.1,.2,1.7,0,0,0,0,.1,0,0,0,0,0,0-.1-.3-1.3,0-2.6,.1-3.9,.2-1.7,.2-3.4-.7-4.9-.9-1.5-2.1-2.8-3.7-3.6-1.1-.5-2.2-.8-3.4-.9-1.6-.2-3.1,.2-4.7,.4-.9,.1-1.8,0-2.7,0-3.3-.1-6.5-2.5-9.8-1.4-.9,.3-1.6,.9-2.5,1.2,0,0-.2,.1-.1,.2,0,0,.1,.2,.2,.1h0Z"
                      style="fill:#532e1f;"/>
                <path id="es"
                      d="M6.5,73c.8,.8,1.9,1.2,2.6,2.1,1.3,1.9,2.3,3.8,4.3,5,1.9,1.2,3.6,2.4,5.8,2.8,2,.4,3.8-.2,5.8-.6,2.6-.4,5.6,0,7.5,2,1.2,.8,2.6,1,3.8,1.7,0,0,.1,0,.1,0,0,0,0-.1,0-.1-.9-.5-2-.8-2.9-1.4-.8-.5-1.3-1.2-2.1-1.6-1.4-.8-3-1-4.5-1.1-2.5-.1-4.8,1.2-7.4,.7-.9-.2-1.7-.5-2.5-.9-1.6-.9-3.1-1.6-4.4-2.8-1.2-1.1-2-2.5-2.9-3.9-.7-1.1-1.8-1.6-3-2.1h0s0,0,0,0c0,0,0,0,0,0h0Z"
                      style="fill:#532e1f;"/>
                <path id="et"
                      d="M93.2,132c.4,.9,1,1.7,1.4,2.5,.4,.8,.5,1.6,.7,2.5,.2,1.4,0,2.7,0,4.1-.3,2.6-.5,5.1-1,7.7-.8,4.6-2.1,8.8-2.4,13.3-.9,5.6-.8,11.2-.9,16.8,.3,3-.2,6.1,0,9.1,.2,2.4,.2,4.7,.8,7.1,.2,.9,.5,1.7,.8,2.6,0,0,.2,.1,.3,.1,0,0,.1-.2,.1-.3-1.1-2.9-1.3-5.9-1.4-8.9-.3-4.3,0-8.7-.1-13,.2-2,0-4.1,.1-6.2,.3-3.9,.8-7.6,1.2-11.5,.1-1,.3-1.9,.6-2.9,.5-1.9,.8-3.8,1.3-5.7,.5-4.2,1.5-8.3,1.1-12.5,0-.8-.4-1.6-.6-2.4-.4-1-1.1-1.7-1.8-2.5h0s0,0,0,0c0,0,0,0,0,0h0Z"
                      style="fill:#532e1f;"/>
                <path id="eu"
                      d="M100.8,160.5c.7-2,1.1-4,1.3-6.1,1.3-4.6,2.1-9.3,3.3-13.9,0,0,0-.2-.1-.2,0,0-.2,0-.2,.1-1.3,4.5-2.1,8.9-3.2,13.6-.5,2.2-.6,4.4-1.2,6.5,0,0,0,0,0,0,0,0,0,0,0,0h0Z"
                      style="fill:#532e1f;"/>
                <path id="ev"
                      d="M102.9,197.6c0-.2,0-.4,0-.6-1.5-5.1-1.3-10.2-1.7-15.3,.2-3.5,.1-6.9,.6-10.4,.4-3.1,.9-5.9,1.4-9,.4-2.8,1.4-5.4,2.3-8,1.1-3.2,1.9-6.4,3.1-9.6,1.8-4.7,4.3-8.9,7-13.1,0-.1,0-.3,0-.3-.1,0-.3,0-.3,0-2.8,4.3-5.4,8.6-7.2,13.4-1.2,3.1-2.1,6.2-3.1,9.4-.8,2.4-1.6,4.6-2.1,7.1-.7,3.9-1.4,7.6-1.8,11.5-.3,2.9-.4,5.8-.4,8.8,0,2.2,.2,4.5,.3,6.7,.1,2.1,.3,4.1,.7,6.2,.2,1.1,.8,2,1,3.1,0,0,0,0,0,0,0,0,0,0,0,0h0Z"
                      style="fill:#532e1f;"/>
                <path id="ew"
                      d="M98.9,195.4c-1-3-1-6.2-1.2-9.3-.1-2.5,.1-4.9,.2-7.4,0-2.9,.5-5.7,1-8.6,.6-3.1,1.4-6,1.9-9,0,0,0,0,0,0,0,0,0,0,0,0-.5,2.9-1.4,5.6-1.9,8.5-.6,3.1-1,6-1.1,9-.1,2.5-.3,4.9-.2,7.3,.2,3.2,.3,6.5,1.3,9.5,0,0,0,0,0,0,0,0,0,0,0,0h0Z"
                      style="fill:#532e1f;"/>
                <path id="ex"
                      d="M114.9,119.6c.8,2.1,1.5,5.3-.8,6.7h0c0,0,0,0-.1,0h0c-.1-.2-.3-.4-.3-.6,0-1.1-.2-2.6-1.5-3-.5-.2-1.1,.3-1.1,.8,0,2.2-.3,4.3-1.2,6.3-.5,1.1-.4,2.3-.7,3.5-2.2,7.2-5.7,13.8-7.1,21.1h0s0,0,0,0c0,0,0,0,0,0,1.9-6.3,4.4-12.4,6.7-18.6,.6-1.7,.9-3.4,1.3-5.2,.2-1.2,.8-2.1,1.1-3.3,.3-1.2,.4-2.4,.3-3.7,0-.2,0-.6,.4-.5,1.3,.2,1.1,1.7,1.3,2.7,0,.2,.2,.3,.3,.5l.2,.3s0,0,.1,0h0c0,0,0,0,.2,0h.2s0,0,.1,0l.3-.2c2.3-1.7,1.4-4.8,.4-7h0s0,0,0,0c0,0,0,0,0,0h0Z"
                      style="fill:#532e1f;"/>
                <path id="ey"
                      d="M112,137.4c1.3-2.2,2.4-4.5,4.1-6.6,1-1.1,1.8-2.4,1.8-4,0-1.4-.9-2.4-1.8-3.4-.4-.5-.2-1-.3-1.6,0-.1-.1-.2-.2-.2s-.2,0-.2,.2c0,.6-.1,1.2,.3,1.7,1,1.4,2.2,2.8,1.5,4.5-.7,1.8-2.2,3.1-3.2,4.8-.9,1.5-1.5,3-2.1,4.5,0,0,0,0,0,0,0,0,0,0,0,0h0Z"
                      style="fill:#532e1f;"/>
            </g>
            <path id="Pons"
                  d="M86,95.1c-.4,.1-1.7,.6-2.7,1.4-3.5,3-2.1,9.7-1.9,11.1,1.1,5.4,4.9,12.4,8.7,12.2,1.3,0,1.2-.9,7.1-4.5,2.3-1.4,3.4-2,4.8-2,2.3,0,3.3,1.2,4.2,.6,1.7-1,.4-6.3-.3-9.1-1.6-6.3-3.1-12.1-6.4-12.7-2.4-.4-2.9,2.4-7.2,2.7-2.4,.2-3.8-.6-6.4,.3Z"
                  style="fill:none;"/>
            <path id="cingulateSulcus"
                  d="M35.3,70.9c2,.3,4.4-1.5,4.3-2.7-.1-1.2-2.2-1-4.4-2.8-2.8-2.4-4.1-6.9-2.8-9.9,.7-1.5,1.4-1.4,3.2-3.3,3.6-3.9,2.1-6.5,5.1-10.4,1.6-2.1,3.6-3.2,7.5-5.4,2.8-1.6,3.4-1.5,7.5-3.7,4.7-2.5,4.3-2.8,6.5-3.7,4.2-1.7,5.3-.3,11.2-1.4,5.9-1,5.6-2.4,11.1-3,5.6-.6,8.7,.6,9.7,1,2.2,1,2.3,2.4,4.5,3,2.6,.7,3.6-.6,6.2,.2,2.9,.8,3.9,2.9,4.6,2.5,.7-.4,.5-2.9-1-4.5-1.8-1.9-3.8-.6-7.8-2-3.5-1.2-3.1-2.6-7.1-4.2-1.1-.4-4-1.5-7.6-1.3-3.4,.3-4.6,1.5-7.9,2.8-5.3,2-6.4,.4-12.5,1.6-3.4,.7-7,2.6-14.1,6.3-9.7,5.1-10.4,5.4-11.1,6.2-3.5,4.2-2.6,7.9-6.7,11.7-1.8,1.7-3.1,1-6.2,3.5-1.7,1.4-2,2.2-2.1,2.9-.2,1.6,1,2.3,2.5,4.8,2.2,3.6,1.3,4.8,3.8,8.4,1.2,1.7,2,2.9,3.5,3.1Z"
                  style="fill:none;"/>
            <path id="pituataryGland"
                  d="M62.9,98.7c-1,.6-1.3,1.9-1.4,2.6-.3,2,0,5.9,2.6,6.8,1.3,.4,3,.2,4-.9,1.3-1.5,.5-3.7,.1-4.8-.6-1.7-2.1-4-4-4-.2,0-.8,0-1.4,.4Z"
                  style="fill:none;"/>
            <path id="medulla"
                  d="M96.9,122.3c-2.4,1.4-3,4.1-3.1,4.3-.7,3.4,1.9,5,3.2,9,.9,2.8,0,7.1-1.6,15.6-1.7,8.4-2.8,11.2-1.7,11.9,1.3,.8,5-1.4,6.4-4.5,1.2-2.5,.3-4,.7-8.1,.3-2.9,1-4.3,2.3-7.7,3.7-10.4,5.6-15.7,3.6-18.6-1.9-2.7-6.8-3.7-9.9-1.9Z"
                  style="fill:none;"/>
            <g id="fd">
                <path d="M96.4,34.1c0,.1-.1,.2-.2,.2,0,0,0,0,0,0-2.9-.6-6-.4-9-.1-4.7,.4-9.1,1.3-13.8,1.8-3.8,.4-7.5,1.2-11.1,2.5-3.5,1.2-7,2.3-9.8,4.9-1.3,1.2-2.4,2.4-3.6,3.7-1.6,1.7-2.6,3.7-3.1,6-.6,2.6-.2,5.2,.9,7.6,.3,.6,.8,1.1,1.3,1.4,2,.9,4.1,1.7,5.9,3.1,0,0,.1,0,.2,.1,.3,.2,.5,.5,.8,.7,1.3,1.3,2.5,2.6,3.8,3.9,0,0,0,0,0,0,.5,.5,1,.9,1.5,1.3,1.6,.6,3.3-.3,4.9-.6,0,0,0,0,0,0,0,0,0,0,0,0-1.5,.9-3.5,1.7-5.2,1-.2-.1-.3-.2-.5-.4,0,0,0,0,0,0,0,0-.2-.2-.3-.2,0,0-.2-.1-.3-.2-1.6-1.4-3-2.9-4.5-4.5-1.8-1.8-4.1-2.7-6.4-3.6-.8-.3-1.5-.9-1.9-1.7-1.1-2.4-1.5-5-1-7.7,.5-2.5,1.6-4.6,3.2-6.4,1.8-2,3.5-3.9,5.8-5.3,2.6-1.6,5.2-2.5,8-3.4,2.2-.7,4.3-1.4,6.6-1.7,6.2-1,12.1-1.7,18.2-2.6,2.4-.1,4.9-.3,7.3,0,.6,0,1.2,.1,1.9,.3,.1,0,.2,.1,.2,.3Z"
                      style="fill:#532e1f;"/>
                <path d="M75.5,83c-1,3.1-3.4,5.3-5.6,7.6-.1,.2-.3,.3-.4,.4-.3,.3-.6,.5-.9,.8-.3,.3-.6,.5-.9,.7h0c-1.6,1.3-3.5,2.2-5.4,3-1.5,.6-3.1,.8-4.6,.8-1.5,0-3-.3-4.6-.4-2-.2-3.9-.7-5.7-1.7-1.2-.7-2.4-1.2-3.8-1.6h0s0,0,0,0c0,0,0,0,0,0,.6,0,1.3,0,1.8,.3,2.5,1.2,4.9,2.4,7.7,2.6,2,.2,3.9,.6,5.9,.4,1.7-.2,3.2-.7,4.7-1.4,1.7-.8,3.2-1.8,4.5-3,1.1-.9,2.1-1.9,3.1-2.9,1.8-1.8,3.3-3.8,4-6.3,1.1-4,.3-9.1-3.8-10.9-2-.9-4.1-1.2-6.2-.7-.2,0-.3,0-.5,.1-1,.3-1.9,.8-3,1-.9,.2-1.6,0-2.2-.5,0,0,0,0,0,0,0,0-.2-.2-.3-.2,0,0-.2-.1-.3-.2-.3-.3-.5-.6-.8-.9-1.4-1.7-3-3.1-4.4-4.7,0,0,0,0,0,0,0,0,0,0,0,0,0,0,0,0,0,0,0,0,0,0,.1,.1,1.6,1.5,3,3.2,4.6,4.6,0,0,0,0,0,0,.6,.5,1.2,.9,1.8,1.3,.5,.3,1.2,.2,1.8,0,4-1.9,9.4-1.8,12.3,2.2,2.1,3,2,6.6,1,9.8Z"
                      style="fill:#532e1f;"/>
                <path d="M79.2,77.5c-1.1,1.2-2.2,2.5-2.5,4.1-.2,1.3,0,2.5-.2,3.8-.5,3.7-4.4,5.4-7.7,6.4,0,0-.1,0-.2,.1-.3,.1-.5,.4-.7,.6,0,0-.2,.1-.3,0h0c0,0,0-.1,0-.2s0,0,0-.1c.2-.3,.4-.6,.7-.8,0,0,.1,0,.2-.1,.3-.2,.6-.3,.9-.4,.8-.2,1.5-.4,2.2-.8,2-1.2,4.1-2.5,4.3-4.9,.2-1.7-.2-3.5,.6-5.1,.5-1.1,1.2-2,2-2.8,.6-1,.3-2.1,0-3.1-.2-.6-.8-1-1.1-1.6-.3-.6-.5-1.2-.9-1.7-.2-.3-.3-.5-.5-.7-.9-.7-1.8-1.3-2.8-1.8-1.2-.7-2.5-.7-3.7-1.5-.8-.5-1.3-1.2-2-1.8-1.2-1.1-1.7-2.6-2.7-4-1-1.5-.9-3.3-.4-5,.4-1.4,1.3-2.5,2.3-3.6,0,0,.2-.2,.2-.2,1.1-1,2.4-1.7,3.5-2.6,0,0,0,0,0,0,0,0,0,0,0,0-.6,.5-1.2,.9-1.7,1.5,0,0-.2,.2-.3,.3-.6,.6-1.3,1.2-1.8,1.8-.2,.2-.4,.5-.5,.7-1,1.4-1.7,3-1.5,4.9,.2,2.1,1.8,3.7,2.8,5.5,.9,.8,1.7,1.8,2.8,2.4,1,.5,2.2,.7,3.2,1.2,1,.6,2,1.1,2.9,1.9,.3,.2,.5,.5,.6,.8,.5,.7,.7,1.5,1.2,2.2,.3,.4,.7,.7,.9,1.2,.3,1.2,.5,2.3,0,3.4Z"
                      style="fill:#532e1f;"/>
                <path d="M132.4,64.7c0,2.1-.7,4.1-2.1,5.8-.7,.9-1.7,1.4-2.7,1.7-3.4,1.2-7.2-.2-9.5-2.8-1.7-1.9-2.7-4-3.9-6.1-.8-1.3-1.5-2.5-2.1-3.9-.6-1.2-1.3-2.4-2.2-3.4-3.8-4.4-8.7-7.1-14.4-8.3-2.5-.6-4.9-.8-7.4-.9-3.3,0-6.5,0-9.8,.6-2.4,.4-4.5,1.1-6.5,2.2-1,.5-1.8,1.1-2.7,1.7,0,0-.2,.2-.3,.3-.2,.1-.3,.3-.5,.4-.5,.4-.9,.9-1.3,1.4-.2,.2-.4,.5-.5,.7-.5,.7-1,1.4-1.5,2.1,0,0,0,0,0,0,0,0,0,0,0,0h0c.6-1.2,1.4-2.4,2.2-3.5,.2-.3,.5-.6,.7-.9,2.9-2.2,6-4.1,9.8-4.7,4.1-.7,8.1-.9,12.2-.6,2.2,.2,4.4,.4,6.7,1,3.1,.8,5.8,1.9,8.5,3.7,2.1,1.3,3.7,2.8,5.3,4.6,1,1.1,1.7,2.2,2.3,3.5,.4,.8,.9,1.5,1.3,2.3,1.5,2.7,2.8,5.3,4.8,7.6,1.6,1.9,4.1,3,6.5,3,1.7,0,3.4-.4,4.7-1.7,1.4-1.4,2-3.2,2.2-5.1,.2-2.6-1.2-4.9-2.6-7.1-1.3-2.2-3.1-3.7-5-5.3-3.2-2.2-6.7-4-10.2-5.7-2-1-3.7-2.3-5.4-3.7-.9-.8-1.8-1.6-2.7-2.3,0,0-.1,0-.2-.1-.3-.3-.7-.7-1-1,0,0,0,0,0,0,0,0,0,0,0,0,0,0,0-.2,0-.3,0,0,.2,0,.3,0,1.2,1.2,2.4,2.3,3.7,3.4,.6,.5,1.3,1,2,1.5h0c.6,.4,1.1,.8,1.7,1.2,4,2.2,8.3,4.1,12,6.8,3.7,3.1,7,7.1,7.8,12Z"
                      style="fill:#532e1f;"/>
                <path d="M110.8,44.9c0,0-.2,.1-.3,0-.6-.5-1.3-.9-1.9-1.3-.9-.6-1.7-1.2-2.5-2-.1-.1-.3-.3-.4-.4-.3-.4-.7-.7-1-1.1,0,0,0,0,0,0-1.5-1.6-2.9-3.2-4.9-4.3-1.2-.7-2.5-1.1-3.8-1.4,0,0,0,0,0,0-1.6-.3-3.2-.5-4.8-.5,0,0,0,0,0,0s0,0,0,0c1,0,2-.2,3.1-.1,1,0,2.1,.1,3,.5,1.9,.7,3.6,1.6,5.2,2.9,1,.9,1.9,1.9,2.7,2.8,.8,.9,1.6,1.8,2.7,2.6,.3,.3,.7,.5,1,.7,.7,.5,1.3,.9,1.9,1.5,0,0,0,0,0,0h0c0,0,0,.1,0,.2Z"
                      style="fill:#532e1f;"/>
            </g>
            <path id="corpusCollosum"
                  d="M109.3,72.7c.6,.2,2.1,.7,3,2,.3,.5,1,1.4,.7,2.2-.4,.9-2.4,.8-3.4,.6-.2,0-3.3-.7-3.3-2.3,0-1,1.2-2.2,3-2.5Z"
                  style="fill:none;"/>
            <path id="PinealGland"
                  d="M78.9,59.3c-2.9-1.1-6.8,.8-7.4,3.5-.4,1.9,1,3.6,1.3,4,2.3,2.7,7.4,3.7,9.2,1.5,1.9-2.2,.6-7.6-3.1-8.9Z"
                  style="fill:none;"/>
            <path id="interventricularForamen"
                  d="M111.2,58.5c-1-.4-2.3-.8-3.9-1.1-1.1-.2-3.2-.6-5.8-.5-3,.2-5.1,1-6.6,1.6-4.7,1.8-7.1,3.4-7.1,3.4-.5,.3-1.6,1-3.2,1-.6,0-1.5,0-2.3-.7-.8-.7-.8-1.9-.6-2.7,.1-.5,.4-1,1.4-1.9,1.4-1.2,2.8-1.8,3.6-2.2,1.4-.6,3.1-1.3,5.5-1.8,1.7-.3,3.1-.5,5.3-.6,1,0,2-.1,2.5-.2,1.5,0,4.6,.2,9.3,2.4,.6,1,1.2,1.7,1.6,2.1,.5,.5,1,1,.9,1.1,0,.1-.4,0-.7,0Z"
                  style="fill:none;"/>
            <path id="fornix"
                  d="M105.1,94.4c3.5,9,5.3,13.5,5.7,18.4,.2,2.5-.1,4.9-.8,9.6-1.1,7.7-2.8,13.1-2.7,13.2,.1,0,1.4-3.5,2.4-7.7,.8-3.2,.8-3.9,1.6-6.4,.9-2.7,1.2-2.6,2.2-5.5,1.6-4.5,1-5.2,2.3-7.1,1.8-2.6,4-3.2,3.7-4.1-.3-1-3,0-6-1.4-2.3-1-3.6-2.9-6.1-6.7-2.4-3.6-3.7-6.5-3.9-6.4-.2,0,.9,2.7,1.4,4.1Z"
                  style="fill:none;"/>
            <path id="fourthVentricle"
                  d="M154.2,30.2c-.1,.1,2.2,2,4.9,5.8,2.4,3.6,3.9,7,4.6,8.9,.9,2.2,.8,2.3,1.5,4,2,5,3.8,6,6,10,1.7,3.1,.5,2.3,3.9,12.7,1.7,5.1,2.3,6.3,1.8,8.2-1.1,4.3-6.1,6.3-5.6,7.1,.3,.4,2.1,.2,3.5-.8,3.1-2.1,3.2-6.7,3.2-8.9,0-3.1-.6-5.1-1.8-9-.9-3-2.3-6.8-4.6-11-1.4-2.6-2.4-3.4-4.1-6.6-.9-1.8-.9-2.1-2.5-5.5-2-4.4-3-6.6-4-8.2-2.9-4.4-6.7-6.9-6.8-6.7Z"
                  style="fill:none;"/>
            <path id="occipitalLobe"
                  d="M78.1,70.3c4.3,.8,7.9,1.3,10.6,1.5,7.2,.8,10.3,.6,11.9,2.8,.7,1,.4,1.3,1.2,6.3,.8,5.2,1.5,7.1,1.2,7.2-.4,.2-.9-7.5-6.1-11-3.3-2.3-8.5-2.8-11.9-.6-4,2.6-4.2,8.2-5.7,8-.8-.1-1.5-2-1.2-3.5,.4-2.2,2.7-2.6,3.2-4.4,.4-1.2,0-3.2-3.2-6.5Z"
                  style="fill:none;"/>
            <path id="hyppothalamus"
                  d="M98.9,82.9c-.8,1.1,1.2,3.1,3.5,7.8,1,1.9,1.4,3,1.6,2.9,.3,0-.3-2.1-.5-5.7-.3-3.7,0-5.7-.9-6.2-.6-.3-1.5,0-2.1,.3-.7,.2-1.3,.4-1.5,.9Z"
                  style="fill:none;"/>
            <path id="cerebralAqueduct"
                  d="M91.7,61.7c1.5-3.2,7.5-3.3,11.3-3.3,5.3,0,7.1,1.2,7.5,1.5,.9,.7,1.1,1.2,2.9,3.8,3.5,5.1,5.3,6.8,4.8,7.3-.5,.7-3-1.8-7-1.8-4.3,0-6.8,2.8-7.9,1.7-1-1,1.2-3.4,0-5.8-1-2.3-4.5-3.6-7.1-3-2.5,.5-3.8,2.7-4.6,2.2-.5-.3-.5-1.7,0-2.7Z"
                  style="fill:none;"/>
            <path id="thalamus"
                  d="M136.1,77.6c-.3-1.3,3.8-3.4,4.2-3.6,3.6-1.8,6.9-2,8.2-2,6.3-.2,6.5,1.9,14.5,2.8,5.2,.6,8.2,.2,11.9,2.6,1.3,.9,3.1,2.3,2.9,2.7-.2,.4-2.7-.6-4.1-1.1-5-1.9-8.9-2.6-15.4-3.6-8.3-1.4-12.5-2-14.9,.3-.9,.9-1.8,2.4-3.7,2.8-1.5,.3-3.3-.1-3.5-.9Z"
                  style="fill:none;"/>
            <path id="calcarineSulcus"
                  d="M100.7,33.2c.5-.2,1.6-.8,2-2,.4-1.1,0-2.5-.9-3.2-1.1-.8-2.2,0-3.9-.5-2.1-.5-1.9-2.5-3.8-3.1-1.4-.4-1.7,.3-3.8,.3-2.7,0-3.2-1.3-5.3-1.5-2.7-.2-3.3,1.9-6.9,3.2-3.7,1.4-5.1,0-10.2,.6-4.1,.5-7.1,2-9,2.9-3.9,1.8-3.1,2.3-7.2,4.2-3.9,1.9-5.6,2-8.7,4.2-2.5,1.8-3.2,3-3.4,3.3-1.5,2.6-.3,3.7-1.5,6.2-1.6,3.3-4.2,2.8-5.5,6.1-.2,.6-1.1,3.2,.3,4.9,1.3,1.5,4.1,1.5,5.8,.6,.9-.5,.9-.9,2.1-1.6,1.7-.9,2.5-.3,3.3-1,1.1-1,.2-3,.4-5.4,.2-2.6,1.7-4.4,3.3-6.3,3.6-4.3,9.7-5.8,25.7-10.1,11.8-3.2,12.6-3.6,14.9-3.1,3.9,.7,8.9,3,12.3,1.3Z"
                  style="fill:none;"/>
            <path id="cingulateGyrus"
                  d="M135.9,52.6c.6,1.1,1.7,1.3,2.6,1.9,3.2,2.1,.9,7.2,3.9,10.1,2.5,2.5,7.1,1.6,7.6,1.4,2.3-.5,2.4-1.5,6.6-4.2,5.1-3.3,7.4-3.5,7.8-5.6,.3-1.6-.6-3.5-1.9-3.9-.9-.3-1.8,.2-4.5,2.3-5.1,3.9-5.5,4.8-7.1,4.9-2.3,.2-4.4-1.6-5.6-2.7-2.2-2-2-3.3-4.5-5.3-.6-.5-3.5-2.9-4.8-2-.8,.5-.8,2.1-.3,3.2Z"
                  style="fill:none;"/>
            <path id="tectum" d="M109.5,80c1,.7,1.2,2.1,1.2,2.7,.3,1.7-.6,2.5-1.1,4.4-1,3.6,.8,6.3,.1,6.6-.6,.3-2.2-1.6-3.2-3.4-.9-1.6-3.8-6.3-1.8-9,1-1.4,3.4-2.2,4.7-1.4Z"
                  style="fill:none;"/>
        </g>
    </g>
</svg>